<?xml version="1.0" encoding="utf-8"?>
<!-- Generator: Adobe Illustrator 15.0.0, SVG Export Plug-In . SVG Version: 6.00 Build 0)  -->
<!DOCTYPE svg PUBLIC "-//W3C//DTD SVG 1.1//EN" "http://www.w3.org/Graphics/SVG/1.1/DTD/svg11.dtd">
<svg version="1.1" id="Layer_1" xmlns="http://www.w3.org/2000/svg" xmlns:xlink="http://www.w3.org/1999/xlink" x="0px" y="0px"
	 width="297.333px" height="418px" viewBox="0 0 297.333 418" enable-background="new 0 0 297.333 418" xml:space="preserve">
<g id="XMLID_1_">
	<path fill="#FFFFFF" d="M288,279.256V74.437c0,0-77.56-8.09-139-63.62c-61.44,55.53-139,63.62-139,63.62v204.82
		c0,0,17.65,65.641,139,127.42C270.35,344.897,288,279.256,288,279.256z"/>
	<g>
		<path fill="#ED1C24" d="M293.92,269.046V70.896c0-1.13-0.68-1.82-1.52-2.06c2.109,0.91,1.88,4.59-0.73,4.31
			c-0.75-0.08-1.5-0.17-2.25-0.26c-15.81-1.9-31.58-6.25-46.6-11.29c-34.351-11.53-66.59-29.01-93.82-53
			c-27.17,23.95-59.48,41.63-93.82,53c-15.05,4.98-30.78,9.38-46.6,11.29c-0.75,0.1-1.5,0.18-2.25,0.26v-2.25
			c0,0,79.61-8.31,142.67-65.3c56.83,51.36,127.1,63.18,140.43,65.02c0.17-1.56,1.73-2.16,2.971-1.78
			c-0.221-0.1-0.46-0.16-0.73-0.19c-15.53-1.64-31.56-6.12-46.52-11.01c-34.681-11.33-67.36-29.23-94.561-53.63
			c-0.95-0.85-2.23-0.85-3.18,0c-27.27,24.46-59.87,42.14-94.56,53.63c-14.92,4.94-31.01,9.37-46.52,11.01
			c-1.22,0.13-2.25,0.93-2.25,2.25v208.66c0,2.46,0.79,4.44,1.71,6.74c3.09,7.68,7.18,14.92,11.69,21.84
			c20.21,31.011,49.41,55.7,79.83,76.221c11.94,8.05,24.34,15.409,36.97,22.329c3.34,1.83,6.72,3.61,10.1,5.37
			c1.6,0.83,3.84,2.761,5.76,1.78c7.29-3.72,14.5-7.6,21.63-11.63c22.131-12.53,43.301-26.87,62.711-43.33
			c21.55-18.28,41.96-40.06,54.609-65.61c1.82-3.689,3.62-7.54,4.74-11.51C294.88,278.037,293.92,272.846,293.92,269.046z
			 M289.42,281.016v-0.22C289.58,280.317,289.42,280.966,289.42,281.016z M150.14,409.957h-2.28c0.38-0.19,0.76-0.39,1.14-0.59
			C149.38,409.567,149.76,409.766,150.14,409.957z M8.58,281.056c0-0.14-0.01-0.25-0.02-0.33c0.01,0.021,0.02,0.051,0.02,0.07
			V281.056z M8.56,280.707C8.52,280.527,8.54,280.546,8.56,280.707L8.56,280.707z"/>
		<path fill="#ED1C24" d="M8.56,280.707C8.52,280.527,8.54,280.546,8.56,280.707L8.56,280.707z"/>
		<path fill="#ED1C24" d="M8.56,280.726c0.01,0.021,0.02,0.051,0.02,0.07v0.26C8.58,280.917,8.57,280.806,8.56,280.726z"/>
		<path fill="#ED1C24" d="M149,409.367c0.38,0.2,0.76,0.399,1.14,0.59h-2.28C148.24,409.766,148.62,409.567,149,409.367z"/>
		<path fill="#ED1C24" d="M289.42,281.016v-0.22C289.58,280.317,289.42,280.966,289.42,281.016z"/>
		<path fill="#ED1C24" d="M291.67,70.896v2.25c-0.75-0.08-1.5-0.17-2.25-0.26c-15.81-1.9-31.58-6.25-46.6-11.29
			c-34.351-11.53-66.59-29.01-93.82-53c-27.17,23.95-59.48,41.63-93.82,53c-15.05,4.98-30.78,9.38-46.6,11.29
			c-0.75,0.1-1.5,0.18-2.25,0.26v-2.25c0,0,79.61-8.31,142.67-65.3c56.83,51.36,127.1,63.18,140.43,65.02
			C290.89,70.816,291.67,70.896,291.67,70.896z"/>
		<g>
			<path fill="#ED1C24" d="M8.56,280.726c0.01,0.021,0.02,0.051,0.02,0.07v0.26C8.58,280.917,8.57,280.806,8.56,280.726z"/>
			<path fill="#ED1C24" d="M149,409.367c0.38,0.2,0.76,0.399,1.14,0.59h-2.28C148.24,409.766,148.62,409.567,149,409.367z"/>
			<path fill="#ED1C24" d="M289.42,281.016v-0.22C289.58,280.317,289.42,280.966,289.42,281.016z"/>
			<path fill="#ED1C24" d="M291.67,73.146c-0.75-0.08-1.5-0.17-2.25-0.26c-15.81-1.9-31.58-6.25-46.6-11.29
				c-34.351-11.53-66.59-29.01-93.82-53c-27.17,23.95-59.48,41.63-93.82,53c-15.05,4.98-30.78,9.38-46.6,11.29
				c-0.75,0.1-1.5,0.18-2.25,0.26v-2.25c0,0,79.61-8.31,142.67-65.3c56.83,51.36,127.1,63.18,140.43,65.02
				c0.17-1.56,1.73-2.16,2.971-1.78C294.51,69.747,294.28,73.426,291.67,73.146z"/>
		</g>
	</g>
	<g>
		<path fill="#FFFFFF" d="M291.67,70.896v210.22c0,0-18.12,67.38-142.67,130.78C24.45,348.497,6.33,281.117,6.33,281.117V70.896
			c0,0,79.61-8.31,142.67-65.3C212.06,62.586,291.67,70.896,291.67,70.896z"/>
	</g>
	<path fill="#262262" d="M266.07,94.417v173.04c0,0-14.91,55.45-117.43,107.65c-102.52-52.2-117.43-107.65-117.43-107.65V94.417
		c0,0,65.52-6.84,117.43-53.75C200.54,87.577,266.07,94.417,266.07,94.417z M262.67,265.546V98.057c0,0-63.43-6.62-113.67-52.03
		c-50.24,45.41-113.67,52.03-113.67,52.03v167.49c0,0,14.44,53.67,113.67,104.19C248.23,319.216,262.67,265.546,262.67,265.546z"/>
	<path fill="#FFDE17" d="M275,86.997v185.67c0,0-16,59.5-126,115.5c-110-56-126-115.5-126-115.5V86.997c0,0,70.31-7.33,126-57.67
		C204.69,79.667,275,86.997,275,86.997z M266.07,267.457V94.417c0,0-65.53-6.84-117.43-53.75
		c-51.91,46.91-117.43,53.75-117.43,53.75v173.04c0,0,14.91,55.45,117.43,107.65C251.16,322.907,266.07,267.457,266.07,267.457z"/>
	<path fill="#ED1C24" d="M288,74.437v204.82c0,0-17.65,65.641-139,127.42C27.65,344.897,10,279.256,10,279.256V74.437
		c0,0,77.56-8.09,139-63.62C210.44,66.347,288,74.437,288,74.437z M275,272.667V86.997c0,0-70.31-7.33-126-57.67
		c-55.69,50.34-126,57.67-126,57.67v185.67c0,0,16,59.5,126,115.5C259,332.167,275,272.667,275,272.667z"/>
</g>
<g id="XMLID_2_">
	<path fill="#ED1C24" d="M42.5,258.167l14.75-7.25l-4-15.75l39.25,18.75l-1.75,3.93c-0.1-0.04-0.2-0.069-0.3-0.109
		c-6.98-2.59-14.32-5.74-20.36-10.2c-0.76-0.561-2.01,0.02-2.2,0.899c-1.38,6.32-3.51,12.58-6.42,18.391L42.5,258.167z"/>
	<path fill="#ED1C24" d="M238.24,272.336c0,0-18.16,22.11-87.79,22.32c-0.01-0.69-0.431-1.38-1.25-1.471
		c-0.82,0.091-1.24,0.78-1.25,1.471c-69.63-0.21-87.78-22.32-87.78-22.32c0.98-1.57,1.87-3.22,2.68-4.88
		c3.37-6.86,5.34-13.97,6.11-17.05c0.04-0.17,0.08-0.33,0.12-0.48c0.17-0.7,0.25-1.09,0.25-1.09s0.3,0.22,0.9,0.62
		c0.13,0.09,0.27,0.19,0.44,0.29c2.63,1.72,9.16,5.61,19.47,9.47c13.39,5.01,33.17,9.95,59.06,9.95c25.89,0,45.67-4.94,59.06-9.95
		c10.311-3.859,16.84-7.75,19.471-9.47c0.17-0.1,0.31-0.2,0.439-0.29c0.6-0.4,0.9-0.62,0.9-0.62s0.08,0.39,0.25,1.08
		c0.04,0.15,0.08,0.31,0.12,0.49c0.77,3.08,2.75,10.189,6.109,17.05C236.37,269.117,237.26,270.766,238.24,272.336z"/>
	<path fill="#ED1C24" d="M207.65,257.846l-1.75-3.93l39.25-18.75l-4,15.75l14.75,7.25l-18.971,8.66
		c-2.899-5.811-5.04-12.07-6.42-18.391c-0.189-0.88-1.43-1.46-2.2-0.899c-5.79,4.27-12.76,7.25-19.42,9.84
		C208.48,257.537,208.06,257.697,207.65,257.846z"/>
	<path fill="#ED1C24" d="M150.45,294.657c-0.351,0.01-0.7,0.01-1.05,0.01H149c-0.35,0-0.7,0-1.05-0.01
		c0.01-0.69,0.43-1.38,1.25-1.471C150.02,293.277,150.44,293.966,150.45,294.657z"/>
</g>
<g>
	<g id="g64" transform="translate(92.4658,156.769)">
		<path id="path66" fill="#262262" d="M20.961,160.834c0,0,1.973,0.186,2.428,0.41c0,0,1.131-1.133,1.999-1.074
			c0.868,0.07,6.329,2.155,7.621,3.698c0,0,0.427-1.921,0.12-3.376c-0.313-1.456,0.973-5.578,2.197-6.571
			c1.229-0.987,11.635-6.502,15.646-8.138c4.014-1.631,12.123-4.132,14.377-5.776c0,0-0.456,2.045-4.895,4.466
			c-4.438,2.422-12.581,5.665-17.071,14.63c0,0,1.788,1.017,1.469,2.461c0-0.002,3.558,5.572,5.616,7.661
			c0,0,3.783,2.847,14.455,3.559c10.677,0.716,14.428-2.616,16.036-3.018c1.596-0.4,6.899-2.759,9.216-3.003
			c0,0-4.34,2.567-7.231,3.693c-2.894,1.125-14.387,5.27-18.046,8.745c0,0,17.753,7.434,21.815,11.855
			c0,0-16.374-6.248-21.209-7.184c0,0-5.841,1.354-13.349-0.556c0,0-1.187,2.512-4.733,3.744c0,0,1.624,4.64,3.405,8.557
			c1.785,3.923,6.956,9.596,12.883,12.41c0,0-13.081-4.286-25.227-14.121c-7.694-6.227-7.764-15.055-7.764-15.055
			c0.001,0-5.507-4.735-7.355-8.924c-1.848-4.188-0.762-4.612-1.692-6.041c-1.048-1.611-0.868-1.199-0.868-1.199
			s0.531-0.027,0.545-0.675C21.357,161.372,20.961,160.834,20.961,160.834z"/>
	</g>
	<g id="g68" transform="translate(111.188,175.648)">
		<path id="path70" fill="#FFFFFF" d="M16.212,146.581c0,0-1.372-5.012-0.21-8.488c1.137-3.38,3.985-3.919,3.985-3.919
			s-2.893,4.333-2.767,6.656c0.127,2.365,2.682,7.863,2.682,7.863L16.212,146.581z"/>
	</g>
	<g id="g72" transform="translate(94.5322,188.063)">
		<path id="path74" fill="#FFFFFF" d="M20.129,130.715c0,0,3.59-0.378,6.345,2.432c2.757,2.814,2.583,6.547,2.583,6.547l-5.58,0.586
			C23.477,140.279,19.986,135.488,20.129,130.715z"/>
	</g>
	<g id="g76" transform="translate(108.134,212.225)">
		<path id="path78" fill="#FFFFFF" d="M18.782,123.401c0,0-0.44,4.966-0.083,5.694s5.693,7.748,5.43,8.34
			c-0.252,0.591-6.305-5.545-7.242-8.353C15.946,126.28,15.785,122.871,18.782,123.401z"/>
	</g>
	<g id="g80" transform="translate(101.054,192.702)">
		<path id="path82" fill="#262262" d="M20.427,130.172c-0.105,0.479-0.72,0.748-1.367,0.607c-0.65-0.144-1.088-0.643-0.985-1.124
			c0.106-0.481,0.718-0.751,1.366-0.611C20.088,129.19,20.535,129.69,20.427,130.172z"/>
	</g>
</g>
<g>
	<g>
		<path fill="#D31F36" stroke="#010101" stroke-linejoin="round" d="M117.421,116.429c0,0-5.873,1.65-7.547,4.38
			c0,0,5.826,5.854,13.377-1.782c0.049-2.122,0.009-2.83,0.152-6.36"/>
		<path fill="#D31F36" stroke="#010101" stroke-linejoin="round" d="M123.404,112.667c-1.615,2.733-3.991,2.507-5.983,3.762"/>
	</g>
	
		<path id="path554" sodipodi:nodetypes="cccccccccsccccccccccccccccccccccccccccccccccccccccccccccccccccccccccccccccccccccccccccccccccccccccccccccccccccccccccccccccccccccccccccccccccccccccccccccccccccccccccccccscccccccccsccccscsccccccccccccccccccccccccccccccsczc" fill="#D31F36" stroke="#010101" stroke-linejoin="round" d="
		M189.536,114.362c-15.444,8.539-29.265,17.424-42.853,28.747c-6.518,5.693-4.678,10.231-4.93,15.343
		c0.21,3.433-0.742,6.625-2.853,8.549c-4.83,0.977-9.664,1.959-14.494,2.936c-0.462-1.336-0.922-2.671-1.384-4.006
		c0.441-2.051,2.136-3.059,5.705-1.772c0.281-2.637-1.839-3.709-4.32-4.625c-0.853-0.663-1.911-1.173-1.772-3.453
		c-0.417-5.16,7.862,0.369,7.939,0.369c0.078,0-0.275-5.208-4.08-6.25c-2.075-0.734-2.952-2.922-2.16-4.542
		c1.66-3.312,4.784,0.26,7.173,0.387c-0.09-2.162-0.705-3.702-2.566-5.446c-1.002-0.617-3.463-1.081-3.527-2.115
		c-0.053-1.403,2.306-2.004,5.548-1.615c-0.676-1.967-2.856-3.24-5.853-4.164c-0.591-1.027-1.181-2.056-1.772-3.083
		c-0.839-1.554-1.215-1.595,0.729-4.542c1.748-1.131,4.069-2.729,5.816-3.859c-0.643-0.077-1.287-0.153-1.93-0.23
		c0.257-2.107,0.286-2.815,0.775-6.315c-1.875,2.562-4.217,2.104-6.323,3.157c0,0-6.006,1.066-7.94,3.619
		c-0.077,0-15.103-0.767-15.103-0.767c-3.202,0.447-5.938,1.354-6.471,4.469c-7.324,0.739-14.994,0.085-20.578,7.09
		c3.802-0.18,7.13-1.085,11.401-0.536c0,0,3.64,0.068,4.395,3.923c0.077,0.154,1.237,0.157,1.237,0.157
		c0.463,0.36,0.922,0.721,1.385,1.081c0.18-0.488,0.355-0.979,0.535-1.468c0.412,0.283,0.826,0.567,1.237,0.85
		c0.129-0.54,0.26-1.076,0.388-1.615c0.411,0.283,0.817,0.566,1.228,0.849c0.026-0.642,0.058-1.287,0.083-1.929
		c0.54,0.385,1.076,0.769,1.616,1.154v-2.539c0,0,5.964-0.014,7.782,3.776c0.078,0.077-16.741,3.09-32.985,1.698
		c1.568-0.771,3.132-1.547,4.699-2.317c-5.923-1.204-11.492-2.292-16.719-6.398c1.973,7.426,12.166,16.148,14.254,16.109
		c0,0.077-2.004-3.618-2.004-3.618c5.884,0.256,11.768,0.509,17.651,0.766c0.642,1.953,0.359,4.142,1.929,5.863
		c0,0-0.974,3.227,1.191,4.542c0.077,0.153,2.584-6.546,2.584-6.546s0.768,1.802,1.542,3c1.121-5.763,7.395-6.703,7.395-6.703
		s1.311,3.007,1.311,3.084c-1.96,0.284-4.399,4.279-3.083,6.471c-1.314,0.025-3.649,3.896-2.926,6.01
		c-1.105,1.099-3.858,2.566-3.158,7.172c-2.167,0.464-3.449,4.429-2.779,8.631c-3.352,3.121-2.529,8.85,0.462,11.171
		c-1.242,1.104-2.006,1.955-2.003,3.314c-1.18-0.438-2.268-0.072-2.778,0.702c-1.447-1.484-3.525-2.783-5.004-1.394
		c-0.383-1.755-2.668-3.686-5.169-3.462c0.146-1.851-0.814-4.142-3.462-4.939c0,0-0.535-8.672-3.166-11.484
		c-0.258-1.573,0.15-2.644,2.316-3.933c2.164-1.154,2.624-2.049,2.465-5.317c0.854-2.184,1.501-4.412-1.154-5.926
		c0.081,2.598-0.717,3.85-1.772,5.003c-1.26-0.183-1.7,1.288-2.548,1.93c-1.187-1.6,2.502-4.077-0.231-7.635
		c-0.154-0.155-1.908-4.645-6.241-4.542c2.06,1.206,2.931,3.235,2.926,5.317c-1.366,3.854-2.06,6.832-0.692,11.253
		c-1.8-2.697-2.821-7.823-4.311-8.714c-1.307-0.256-1.945-3.345-7.016-2.465c2.188,0.588,2.882,2.259,3.47,3.776
		c-1.341,0.692-0.674,2.516,0.306,3.775c-0.186,2.959,1.586,4.687,4.237,5.789c-0.437,4.032-0.874,8.06-1.311,12.092
		c-1.053-0.133-2.673,3.967-3.314,4.091c-1.03,0.641-2.831,2.366-0.766,2.853c-0.613,2.213-1.182,3.547-4.478,4.006
		c0,0,3.482,2.064,6.37-1.468c3.094-0.078,2.076-3.768,3.572-5.391c0-0.077,0.849-0.61,2.086-3.859
		c0.542,2.9,3.518,11.783,10.248,16.192c5.866,6.279,10.686,12.209,10.635,20.578c2.29-2.13,3.657-5.502,4.708-8.715
		c3.184-1.107,7.737-1.53,11.798-1.348c-0.696,1.465-1.476,2.872-0.471,3.822c-2.833,0.974-3.455,3.031-2.317,5.087
		c-2.987,2.029-3.184,3.332-3.231,6.702c-5.526,7.087-8.936,6.852-14.41,5.015c-1.798-1.058-4.581-2.575-5.862-1.773
		c-2.365-1.576-5.764-1.81-6.324,1.773c1.774-1.473,2.834-1.189,4.246,0.229c-0.284,0.721-0.521,1.438,0.536,1.847
		c-0.462,0.513-0.922,1.027-1.385,1.54c-2.543-0.39-5.965-0.368-6.859,3.315c1.307-1.082,4.207-1.338,6.545-0.305
		c0.438,0.152,0.874,0.307,1.311,0.461c0.052,0.59,0.106,1.183,0.157,1.772c0,0-3.466-0.535-4.394,5.087
		c3.25-3.456,5.548-2.548,5.548-2.548c1.252,1.833,5.861,1.556,9.176-1.459c4.657-2.603,6.014,1.139,9.019-1.313
		c2.493-1.856,5.442-0.619,7.469,1.542c2.338,0.879,4.786,1.6,6.711,0c0,0,2.353-1.498,4.699,0.925
		c0.026-2.733-1.911-4.185-4.542-4.236c-0.257-0.257-0.106,0.1-0.776-0.777c-2.466-0.513-5.238-0.305-7.395-1.54
		c1.017-3.86,2.499-7.358,5.391-10.331c3.572-3.826,6.2-5.568,10.709-11.429c-0.174,3.311,2.364,6.995,3.702,10.358
		c0,0,2.693-4.299,3.084-7.791c0.076,0,3.374-1.716,4.782-3.176c2.971,1.843,7.812-1.475,10.939-4.219
		c1.928,0.729,3.391,0.678,5.631,0c-1.799,3.661,1.04,7.057,5.548,8.476c0.417,3.23,3.681,3.907,8.632,3.932
		c0.208,1.901,3.157,2.16,3.157,2.16c-1.864,0.868-2.835,1.739-2.77,3.702c-1.91,0.012-3.355,0.493-3.858,2.696
		c-2.622,0.044-5.294,0.245-7.552,1.542c-2.415-0.376-5.354-1.376-7.247-3.315c-0.977-0.823-1.221-2.007-2.926-2.465
		c-1.082-1.277-2.375-0.991-2.778,0.229c-1.118-0.871-5.31-1.277-6.01,2.696c1.957-1.431,3.711-1.978,4.939-0.229
		c-0.669,1.212,1.629,1.906,3.619,2.392c1.411,0.087,3.914,1.373,4.699,3.543c-1.819,0.554-4.577,0.372-6.397-1.006
		c-1.618-1.352-3.803-1.191-5.004-0.305c-1.666-1.061-5.634,0.944-5.788,4.155c1.671-1.532,3.193-2.272,4.708-1.303
		c-0.754,0.18-0.468,0.253-0.388,0.692c1.285,0.745,2.565,1.489,3.85,2.235c-1.889,0.499-3.665,1.251-2.843,4.772
		c0,0,1.539-3.042,5.003-1.92c0.077-0.077,0.478,1.087,1.468,0.305c1.5-1.706,4.928-2.471,7.939-2.771
		c2.417-0.287,4.83-0.999,6.933,0.38c1.874-0.964,3.959-1.611,6.094-0.073c2.517,0.796,4.356,3.729,7.551,2.39
		c1.59-1.101,3.542-1.156,5.549,1.081c0.024-2.819-2.089-3.764-5.088-4.395c-0.692-0.412-1.382-0.825-2.076-1.237
		c-1.927-0.283-3.862,0.06-5.789-0.848c10.084-2.608,17.152-8.232,22.129-16.258c1.594,0.564,3.18,1.124,4.772,1.689
		c1.13,0.073,1.217,0.465,3.546,1.162c0.088-3.43-1.386-6.964-7.552-7.321l-8.097-3.083c-1.717-1.812-2.494-5.657-0.304-7.939
		c2.144-1.909,2.518-1.679,3.931-4.007c1.722-0.156,3.343,1.617,4.932,1.617c0.754,2.242,5.103,4.222,7.865,3.544
		c1.731,1.532,5.023,2.384,8.632,1.154c2.047,1.792,4.714,2.541,7.855,1.154c0.834,0.834,2.595,1.497,4.625,1.081
		c0.153,0,1.026,2.227,3.24,3.009c-0.965,0.938-0.371,5.013,0.619,6.472c-0.677,1.566-0.89,3.236-0.314,4.855
		c-2.233,1.435-2.688,2.504-1.689,4.931c-2.924,4.697-6.422,5.235-9.711,3.783c-1.182-0.745-2.363-1.497-3.546-2.241
		c-1.259-1.235-2.517-2.46-3.774-3.695c-0.643-0.601-1.969-0.79-2.245,0.538c0,0-4.844-1.083-5.233,3.009
		c2.008-1.958,4.856-0.233,4.856-0.158c0,0.079-0.679,0.54-0.158,1.32c0.118-0.097,3.536,1.276,6.583,2.585
		c1.654,0.628,2.018,0.823,2.741,1.21c-0.794-0.362-1.729-0.776-2.741-1.21c-1.854-0.702-3.659-1.263-4.191-1.126
		c-1.726-0.16-3.556-0.374-4.394,0.922c-1.855,0.786-4.752,1.416-4.625,4.858c1.252-2.051,2.969-1.966,5.16-1.774
		c-0.053,0.157-0.096,0.308-0.148,0.462c2.378,1.084,1.927-0.293,4.146-0.497c1.854-0.172,4.483,0.493,5.871,0.958
		c-1.746,0.515-4.122,0.299-5.244,1.544c-0.206,0.412-0.925,0.241-0.608,1.226c0,0-3.407-0.087-4.32,4.626
		c3.464-2.217,6.089-2.151,6.167-2.151c0.076,0,1.08,0.231,1.08,0.231s4.159-2.779,4.237-2.779c0.076,0,4.027-1.75,5.853,0.231
		c1.592,0.782,3.295,0.831,4.938-0.158c3.24-1.407,6.271-1.507,9.251,0.471l2.694,1.615c0.386-0.255,0.77-0.517,1.154-0.773
		c0,0,3.052-0.861,5.29,1.854c-0.925-4.701-4.283-4.855-4.283-4.855c-0.257-0.231-0.52-0.462-0.776-0.691
		c-1.593-0.617-3.18-1.241-4.772-1.856c-0.695-1.722-2.441-3.092-0.701-5.16c1.778-8.841,3.904-15.48,0.462-24.437
		c3.211,1.388,5.614,5.677,9.637,4.163c0-3.596-13.24-10.425-23.354-15.915c16.569-0.848,36.488-13.08,28.83-28.628
		c1.207-3.75,2.41-7.501,3.618-11.253c1.706,3.434,5.156,6.051,8.253,7.164c-2.552-4.874-4.018-19.772-2.548-30.059
		c-6.678,8.248-14.05,15.568-21.887,23.006c3.853,0.9,7.222,0.267,10.948-0.195c-1.055,2.158-2.077,4.323-3.131,6.48
		c-10.184-5.963-22.14-1.488-22.229,6.472c0.348,9.282,11.825,10.601,18.445,7.367c-1.312,8.463-20.762,5.345-20.762,5.345
		c-6.912-2.382-13.476-1.974-20.734-1.92c1.507-4.641,9.885-8.759,16.267-6.942c-8.935-10.017,1.262-22.455,13.561-26.283
		c-13.405-4.421-1.863-14.64,8.17-21.962c0,0-28.85,12.142-31.479,12.103C184.152,129.316,186.404,119.583,189.536,114.362z
		 M97.583,126.17c0.297-0.161,2.209-0.219,3.46,0.087c1.301,0.316,2.879,0.499,2.857,0.887c-0.602,1.008-2.077,2.223-3.531,2.15
		C98.915,129.221,98.067,128.355,97.583,126.17L97.583,126.17z"/>
	<path id="path555" sodipodi:nodetypes="csc" fill="#FFFFFF" stroke="#010101" d="M226.789,163.429
		c-1.063,3.063-10.292,4.631-10.909,0.096C215.563,161.215,221.344,157.654,226.789,163.429z"/>
	<path id="path556" fill="none" stroke="#010101" stroke-linecap="round" d="M241.036,140.266c0,0-0.631,7.655-1.557,9.212"/>
	<path id="path557" fill="none" stroke="#010101" stroke-linecap="round" d="M237.461,140.687c0,0.042-3.197,8.623-3.197,8.623"/>
	<path id="path558" sodipodi:nodetypes="cc" fill="none" stroke="#010101" d="M231.145,155.801c0.641,0.499,3.113,1.818,4.746,4.874
		"/>
	<path id="path559" sodipodi:nodetypes="cc" fill="none" stroke="#010101" d="M226.878,163.529c0,0,2.302,2.009,0.276,6.856"/>
	<path id="path560" sodipodi:nodetypes="cc" fill="none" stroke="#010101" d="M192.619,177.83
		c4.543-0.547,11.063,9.548,14.387,11.525"/>
	<path id="path561" fill="none" stroke="#010101" d="M226.313,233.061c0,0-1.893,1.388-0.883,3.196"/>
	<path id="path562" fill="none" stroke="#010101" d="M194.512,234.746c0,0,2.271,0.629,2.021,2.523"/>
	<path id="path563" sodipodi:nodetypes="cc" fill="none" stroke="#010101" d="M189.927,228.14c0,0,1.641,1.724,0.547,3.155"/>
	<path id="path564" fill="none" stroke="#010101" d="M192.534,221.495c0,0,2.188,1.049-0.419,2.86"/>
	<path id="path565" fill="none" stroke="#010101" d="M165.067,232.978c0,0-1.895,1.597-0.505,3.406"/>
	<path id="path566" fill="none" stroke="#010101" d="M132.802,233.441c0,0,3.45,0.168,2.23,2.775"/>
	<path id="path567" sodipodi:nodetypes="cc" fill="none" stroke="#010101" d="M130.237,227.637c0,0,1.152,2.134-1.077,2.724"/>
	<path id="path568" fill="none" stroke="#010101" d="M134.569,220.525c0,0,1.136,2.272-1.052,2.567"/>
	<path id="path569" fill="none" stroke="#010101" d="M132.087,232.936c0,0,3.323-2.862,4.88-1.346
		c1.556,1.514,8.161-1.305,8.161-1.305"/>
	<path id="path570" fill="none" stroke="#010101" d="M147.399,226.038l-5.468,2.858"/>
	<path id="path571" sodipodi:nodetypes="cc" fill="none" stroke="#010101" d="M155.098,224.482c0,0,4.038,4.333,6.983-0.927"/>
	<path id="path572" sodipodi:nodetypes="cc" fill="none" stroke="#010101" d="M159.01,221.746c2.733,2.186,1.613,3.498,10.195-2.264
		"/>
	<path id="path573" sodipodi:nodetypes="cccc" fill="none" stroke="#010101" d="M161.618,218.086c0,0,7.317,0.758,7.655,1.304
		c0.842-0.883,7.376-6.178-0.657-6.934C167.271,217.967,161.743,218.171,161.618,218.086z"/>
	<path id="path574" fill="none" stroke="#010101" d="M74.562,234.464c0,0,2.694,0.394,1.117,2.563"/>
	<path id="path575" fill="none" stroke="#010101" d="M73.378,229.335c0,0,1.972,1.251-0.263,2.894"/>
	<path id="path576" fill="none" stroke="#010101" d="M76.468,223.88c0,0,0.92,2.367-2.169,2.036"/>
	<path id="path578" sodipodi:nodetypes="ccc" fill="none" stroke="#010101" d="M74.496,232.689c0,0,3.748-3.091,5.719-1.182
		c1.907,0.654,2.958,0.524,2.958,0.524"/>
	<path id="path579" fill="none" stroke="#010101" d="M108.218,232.491c-0.065,0-1.117,2.234-0.197,3.354"/>
	<path id="path580" sodipodi:nodetypes="csc" fill="none" stroke="#010101" d="M74.825,227.627c2.367-0.133,2.876,0.936,5.028,0.936
		c2.481,0.075,4.897-0.936,8.054-1.791"/>
	<path id="path581" fill="none" stroke="#010101" d="M58.785,156.5c0,0,1.512,0.724,2.958-1.511"/>
	<path id="path582" fill="none" stroke="#010101" d="M57.865,184.898c0,0,2.432,0.724,2.038,2.564"/>
	<path id="path583" fill="none" stroke="#010101" d="M67.265,152.424c0,0,0,1.447,3.023-0.789"/>
	<path id="path584" fill="none" stroke="#010101" d="M70.552,159.262c0,0-2.301,6.179,0.46,7.625"/>
	<path id="path585" fill="none" stroke="#010101" d="M73.313,157.552c0,0,1.183,2.564,2.826,1.117"/>
	<path id="path586" fill="none" stroke="#010101" d="M70.815,141.315l-1.907-3.089l1.709-0.592"/>
	<path id="path587" sodipodi:nodetypes="ccc" fill="none" stroke="#010101" d="M89.813,125.604c0,0,1.84,2.301,1.906,3.616
		c0.066,1.314-1.381,2.3-1.381,2.3"/>
	<path id="path588" sodipodi:nodetypes="ccc" fill="none" stroke="#010101" d="M88.498,128.432c0,0-0.395,1.379-0.525,2.3
		c0,0.657-2.104,1.512-2.104,1.512"/>
	<path id="path589" fill="none" stroke="#010101" d="M113.675,121.594c0.065,0.066-0.264,1.841-1.249,2.893"/>
	<path id="path590" sodipodi:nodetypes="cccc" fill="none" stroke="#010101" d="M95.663,126.524c0,0,2.888-0.795,5.048-0.345
		c2.14,0.44,5.01,1.199,5.01,1.199s3.418-0.46,4.536-1.249"/>
	<path id="path592" fill="#010101" stroke="#010101" stroke-linejoin="round" d="M98.884,126.064l3.55,0.658
		C102.434,126.722,99.936,130.075,98.884,126.064z"/>
	
		<path id="path593" sodipodi:nodetypes="cccccccccccccc" fill="none" stroke="#010101" stroke-linecap="round" stroke-linejoin="round" d="
		M103.683,135.99l4.668,8.941l2.234-3.353l1.183,2.301l1.907-3.353l3.287,2.104l-1.249-4.076l2.76-0.197c0,0-0.723-1.973-3.22-2.367
		c0.657-0.526,2.958-2.038,2.958-2.038s-1.314-1.512-3.352-1.578c0.657-0.723,1.577-2.498,1.512-2.498s-2.038-0.46-2.038-0.46
		s4.667,1.512,8.283-0.591"/>
	<path id="path594" sodipodi:nodetypes="csc" fill="none" stroke="#010101" d="M88.426,142.211l7.171-0.107
		c2.282-0.034,6.039-3.196,10.247-2.21"/>
	<path id="path595" sodipodi:nodetypes="ccccccccccccccccccccc" fill="none" stroke="#010101" stroke-linejoin="round" d="
		M89.484,142.039c0-0.066,0.526-1.381,0.526-1.381l0.586,1.52l0.943-0.025l0.622-1.524l0.511,1.53h0.938l0.578-1.698l0.874,1.608
		l0.742,0.037l0.584-1.958l1.205,1.403l0.437-0.17l0.375-1.958l1.19,1.37l0.341-0.2l0.551-1.931l0.989,1.436l0.498-0.162
		l0.462-1.624l0.918,1.492"/>
	<path id="path596" sodipodi:nodetypes="cccc" fill="none" stroke="#010101" d="M119.394,127.708c0,0-3.682-0.131-3.419-1.578
		c0.264-1.643,3.879-2.826,3.879-2.826s4.798-3.09,5.522-4.142"/>
	<path id="path597" fill="none" stroke="#010101" d="M120.248,121.463c0,0,1.184-1.184,3.156-0.591"/>
	<path id="path598" sodipodi:nodetypes="ccc" fill="none" stroke="#010101" d="M90.864,188.25c0,0-0.459,2.302,2.761,6.903
		c-0.92,5.127,3.898,9.157,5.805,9.814"/>
	<path id="path599" sodipodi:nodetypes="cc" fill="none" stroke="#010101" d="M74.411,179.053
		c-3.615,2.038,2.057,14.917,19.214,16.166"/>
	<path id="path600" sodipodi:nodetypes="cc" fill="none" stroke="#010101" d="M88.155,188.872c0,0,1.197,3.782,0.21,5.559"/>
	<path id="path601" sodipodi:nodetypes="cc" fill="none" stroke="#010101" d="M83.22,187.517c0,0-1.427,2.771-1.756,4.086"/>
	<path id="path602" sodipodi:nodetypes="cc" fill="none" stroke="#010101" d="M78.062,184.069c0,0-1.068,2.275-2.383,2.934"/>
	<path id="path603" sodipodi:nodetypes="ccc" fill="none" stroke="#010101" d="M138.917,166.887c0,0,4.601-0.066,9.203-12.556
		c4.535-17.092,40.494-36.155,41.218-39.705"/>
	<path id="path604" sodipodi:nodetypes="cc" fill="none" stroke="#010101" stroke-linecap="round" d="M152.017,146.731
		c6.756-3.749,27.614-11.395,41.528-17.004"/>
	<path id="path605" sodipodi:nodetypes="cccccccccccccccccc" fill="none" stroke="#010101" stroke-linejoin="round" d="
		M222.063,118.585c0,0-63.866,29.842-64.797,31.422c10.784-3.254,56.522-10.876,57.639-10.226
		c-2.695,0.651-58.195,13.387-60.799,16.455c13.852-0.465,42.857,4.462,47.413,9.203c-9.855-2.231-39.325-6.601-48.343-4.648
		c6.6,1.58,31.886,17.942,31.886,20.545c-3.811-3.625-34.21-16.177-35.418-14.967c6.972,4.184,16.827,19.708,16.827,23.52
		c-2.045-3.253-19.616-22.126-20.638-20.917c1.859,2.603,5.544,24.881,3.66,25.913c0-2.696-6.821-22.195-7.378-22.751
		c-1.395,0.371-10.089,23.789-8.367,25.966c-1.115-7.809,0.186-24.108,2.324-23.457c-3.811,0.557-15.975,16.597-14.674,19.106
		c0.372-3.998,0.916-6.648,7.795-19.943c-7.624,0.464-23.427,10.413-26.124,13.945c2.139-6.322,15.526-17.013,21.383-17.757"/>
	<path id="path606" fill="none" stroke="#010101" d="M103.173,142.323l3.833,0.047"/>
	<path id="path607" fill="none" stroke="#010101" d="M88.032,135.324c0,0,2.576,0.985,7.92-3.245"/>
	<path id="path608" sodipodi:nodetypes="ccc" fill="none" stroke="#010101" d="M105.242,183.929
		c-1.527-1.972,1.145-32.255,6.807-40.145c-1.971,14.25,4.581,28.819,6.235,28.757"/>
	<path id="path609" fill="none" stroke="#010101" d="M104.35,145.248c0,0,2.672,2.926,5.727,2.418"/>
	<path id="path610" fill="none" stroke="#010101" d="M101.361,151.928c0,0,1.335,2.29,6.426,2.671"/>
	<path id="path611" sodipodi:nodetypes="cc" fill="none" stroke="#010101" d="M98.419,157.952c0,0,3.45,4.219,8.094,3.583"/>
	<path id="path612" sodipodi:nodetypes="cc" fill="none" stroke="#010101" d="M95.317,165.161c0,0,0.954,3.117,10.116,3.309"/>
	<path id="path613" sodipodi:nodetypes="cc" fill="none" stroke="#010101" d="M92.645,173.941c0,0,4.263,3.817,12.279,2.609"/>
	<path id="path614" sodipodi:nodetypes="cc" fill="none" stroke="#010101" d="M93.09,184.947c0,0,5.471,3.053,12.215-1.082"/>
	<path id="path615" sodipodi:nodetypes="cccccccccc" fill="none" stroke="#010101" d="M185.657,172.987c0,0-3.816,3.244-0.254,8.461
		c-11.834-0.191-18.194,5.281-18.704,8.969c-15.078-1.081-12.342,3.373-17.241,4.836c-6.553-5.471-16.16-2.418-15.524,3.054
		c-4.39-6.171-11.133-3.181-11.96-1.655c-0.827,1.528-0.509-7.57-0.509-7.57s-4.39,1.972-7.444,5.598c0.064-2.417,0-6.362,0-7.634
		c-3.668,0.742-7.21,0.784-11.006,0.7"/>
	<path id="path616" sodipodi:nodetypes="cc" fill="none" stroke="#010101" d="M106.338,187.78c-0.064,0-6.314,9.828,3.483,12.437"/>
	<path id="path617" sodipodi:nodetypes="cccc" fill="none" stroke="#010101" d="M121.338,193.6c0,0-1.591,0.764-2.164,0.636
		c-1.908,0.445-1.527,4.899,0.891,4.645c0.827-0.955,1.718-2.29,1.718-2.29"/>
	<path id="path618" sodipodi:nodetypes="cccc" fill="none" stroke="#010101" d="M117.902,196.272c0,0-0.699,0.955-1.781-0.063
		c-0.573-1.018-2.608,4.581,0.954,4.771c0.637-1.655,2.609-2.1,2.609-2.1"/>
	<path id="path619" sodipodi:nodetypes="cc" fill="none" stroke="#010101" d="M114.975,198.371c-2.799-0.191-4.326,5.98,1.082,2.1"
		/>
	<path id="path620" sodipodi:nodetypes="ccccc" fill="none" stroke="#010101" d="M113.003,199.262c0,0-3.118-2.417-2.989,0.954
		c-0.064,2.1,0.953,2.608,0.953,2.608c0.127,1.527,1.464,3.69,2.545,1.718c0.445-1.909-0.318-2.736-0.318-2.736"/>
	<path id="path621" sodipodi:nodetypes="ccc" fill="none" stroke="#010101" d="M96.652,220.637c-0.063,0,0.509,4.199,3.437,1.018
		c2.036-4.261,8.461-16.285,9.925-20.421"/>
	<path id="path622" sodipodi:nodetypes="ccc" fill="none" stroke="#010101" d="M105.56,197.926c0,0-4.518,1.272-2.8,6.617
		c2.608,2.1,5.153,1.781,5.153,1.781"/>
	<path id="path623" fill="none" stroke="#010101" d="M102.251,208.742c0,0,3.054,1.336,4.072,0.827"/>
	<path id="path624" sodipodi:nodetypes="cc" fill="none" stroke="#010101" d="M99.931,213.979c0,0,1.366,2.397,3.274,1.569"/>
	<path id="path625" sodipodi:nodetypes="ccc" fill="none" stroke="#010101" d="M124.201,195.126c0,0,0.381,6.426-1.527,8.716
		c-1.909,2.291,0.447,7.048,0.447,7.048"/>
	<path id="path626" fill="none" stroke="#010101" d="M129.036,194.809c0.063,0.127,1.209,10.243-1.336,13.105"/>
	<path id="path627" sodipodi:nodetypes="cc" fill="none" stroke="#010101" d="M138.77,192.773c0,0,3.733,7.222-0.021,10.785"/>
	<path id="path628" fill="none" stroke="#010101" d="M149.458,194.999c0,0-2.163,6.427-5.217,8.589"/>
	<path id="path629" sodipodi:nodetypes="cc" fill="none" stroke="#010101" d="M160.083,195.254c0,0-10.053,17.176,8.525,17.176"/>
	<path id="path630" sodipodi:nodetypes="cc" fill="none" stroke="#010101" d="M146.404,201.361c0-0.064,10.293,0.028,10.993,1.937"
		/>
	<path id="path631" fill="none" stroke="#010101" d="M149.775,212.049c0.128-0.127,7.381-0.826,8.717-3.435"/>
	<path id="path632" sodipodi:nodetypes="cc" fill="none" stroke="#010101" d="M158.499,215.953c0.064,0,4.446-2.63,3.556-4.476"/>
	<path id="path633" sodipodi:nodetypes="cc" fill="none" stroke="#010101" d="M158.111,190.355
		c0.508,6.681-7.699,10.497-10.944,9.861"/>
	<path id="path634" sodipodi:nodetypes="cc" fill="none" stroke="#010101" d="M157.474,194.364c0,0,5.727,2.798,10.625-1.719"/>
	<path id="path635" sodipodi:nodetypes="ccc" fill="none" stroke="#010101" d="M166.764,190.483c0,0,2.162,3.881,4.771,3.626
		c3.437-1.019,4.708,1.082,4.708,1.082"/>
	<path id="path636" sodipodi:nodetypes="cccc" fill="none" stroke="#010101" d="M181.204,181.576c0,0-0.254,9.67,13.361,11.642
		c15.205,4.199,22.394,1.973,23.284,19.023c-0.572,6.488-1.378,13.818-6.087,11.018"/>
	<path id="path637" sodipodi:nodetypes="cc" fill="none" stroke="#010101" d="M213.461,218.347c0,0,2.246,1.889,3.773-0.592"/>
	<path id="path638" sodipodi:nodetypes="cc" fill="none" stroke="#010101" d="M213.759,213.345c0,0,2.775,0.501,4.048-2.172"/>
	<path id="path639" sodipodi:nodetypes="cc" fill="none" stroke="#010101" d="M212.979,206.863c0,0,3.003,0.749,3.958-1.225"/>
	<path id="path640" sodipodi:nodetypes="cc" fill="none" stroke="#010101" d="M213.078,198.943c0,0-2.283,4.469-3.109,4.914"/>
	<path id="path641" fill="none" stroke="#010101" d="M207.161,196.081c0,0,0.127,4.771-1.907,6.68"/>
	<path id="path642" fill="none" stroke="#010101" d="M200.736,194.936c0,0-0.063,3.944-3.308,6.68"/>
	<path id="path643" fill="none" stroke="#010101" d="M188.776,200.407c0.063-0.064,5.216-5.726,3.88-7.443"/>
	<path id="path644" sodipodi:nodetypes="cc" fill="none" stroke="#010101" d="M187.058,190.672c0,0-0.68,5.452-6.15,6.278"/>
	<path id="path645" sodipodi:nodetypes="cc" fill="none" stroke="#010101" d="M104.824,180.066c0,0,10.534-6.316,11.105-10.96"/>
	<path id="path646" sodipodi:nodetypes="cc" fill="none" stroke="#010101" d="M105.178,174.577c0-0.064,6.597-1.682,9.333-8.935"/>
	<path id="path647" sodipodi:nodetypes="cc" fill="none" stroke="#010101" d="M105.368,170.569c0.573,0.254,7.789-4.943,7.98-8.76"
		/>
	<path id="path648" sodipodi:nodetypes="cc" fill="none" stroke="#010101" d="M105.813,165.925c2.1-0.573,5.963-5.245,6.726-7.726"
		/>
	<path id="path649" sodipodi:nodetypes="cc" fill="none" stroke="#010101" d="M106.768,160.899c0,0,2.99-2.1,5.28-5.281"/>
	<path id="path650" sodipodi:nodetypes="cc" fill="none" stroke="#010101" d="M107.926,154.935c0.063,1.718,2.788-0.605,3.869-2.068
		"/>
	<path id="path651" fill="none" stroke="#010101" d="M113.831,173.177l1.272,1.591"/>
	<path id="path652" sodipodi:nodetypes="cc" fill="none" stroke="#010101" d="M111.139,175.655l0.845,1.34"/>
	<path id="path653" fill="none" stroke="#010101" d="M108.231,178.077c0,0.063,1.018,1.463,1.018,1.463"/>
	<path id="path654" fill="none" stroke="#010101" d="M106.45,179.094c0,0,0.063,2.035,1.081,2.163"/>
	<path id="path655" fill="none" stroke="#010101" d="M106.896,173.941c0,0,1.145,3.881,2.163,3.244"/>
	<path id="path656" fill="none" stroke="#010101" d="M109.821,172.096c0.064,0.126,1.273,3.626,1.273,3.626"/>
	<path id="path657" fill="none" stroke="#010101" d="M112.367,169.742l1.527,3.054"/>
	<path id="path658" sodipodi:nodetypes="cc" fill="none" stroke="#010101" d="M110.647,166.814c0.063,0.063,1.656,2.355,2.101,2.037
		"/>
	<path id="path659" fill="none" stroke="#010101" d="M108.359,168.915c0,0,0.891,3.5,1.59,3.181"/>
	<path id="path660" sodipodi:nodetypes="cc" fill="none" stroke="#010101" d="M105.318,171.541l1.641,2.463"/>
	<path id="path661" fill="none" stroke="#010101" d="M107.723,164.78c0,0,0.573,3.69,1.081,3.563"/>
	<path id="path662" sodipodi:nodetypes="cc" fill="none" stroke="#010101" d="M109.851,162.677c0,0.063,1.625,3.12,1.753,3.12"/>
	<path id="path663" fill="none" stroke="#010101" d="M106.577,162.235c0.063,0,1.782,1.972,1.782,1.972"/>
	<path id="path664" fill="none" stroke="#010101" d="M109.122,159.18c0.064,0.064,1.464,2.418,1.464,2.418"/>
	<path id="path665" fill="none" stroke="#010101" d="M109.821,154.918c0,0,0,2.736,0.573,2.8"/>
	<path id="path666" fill="none" stroke="#010101" d="M108.486,152.819l1.399,2.035"/>
</g>
<g>
	<path fill="#ED1C24" d="M58.034,118.091c-0.654,0.573-2.318,1.516-4.581,2.144c-6.51,1.806-10.994-1.343-12.49-6.735
		c-1.783-6.426,1.814-11.246,7.514-12.827c2.207-0.613,4.007-0.631,4.87-0.449l0.036,3.601c-0.939-0.13-2.233-0.132-3.77,0.294
		c-3.353,0.93-5.413,3.698-4.242,7.917c1.046,3.771,3.94,5.526,7.712,4.48c1.313-0.364,2.641-1.003,3.406-1.607L58.034,118.091z"/>
	<path fill="#ED1C24" d="M64.402,112.058l-0.271,5.19l-4.477,0.969l1.703-20.361l5.639-1.221l10.085,17.81l-4.647,1.006
		l-2.535-4.583L64.402,112.058z M68.548,107.779l-2.067-3.794c-0.557-1.066-1.21-2.438-1.732-3.481l-0.085,0.018
		c-0.01,1.189-0.009,2.701-0.053,3.868l-0.285,4.304L68.548,107.779z"/>
	<path fill="#ED1C24" d="M76.263,95.052c1.359-0.491,3.391-1.007,5.736-1.398c2.861-0.478,4.936-0.383,6.495,0.503
		c1.326,0.72,2.18,1.959,2.476,3.733c0.406,2.432-1.057,4.411-2.616,5.289l0.014,0.086c1.436,0.319,2.39,1.454,3.172,3.146
		c0.969,2.103,1.961,4.525,2.457,5.207l-4.463,0.745c-0.377-0.496-1.126-1.988-2.066-4.272c-0.95-2.341-1.884-2.832-3.691-2.56
		l-1.288,0.215l1.266,7.582l-4.32,0.721L76.263,95.052z M81.964,102.6l1.717-0.287c2.174-0.363,3.28-1.665,2.999-3.353
		c-0.292-1.745-1.646-2.46-3.649-2.126c-1.059,0.177-1.649,0.334-1.95,0.473L81.964,102.6z"/>
	<path fill="#ED1C24" d="M93.907,92.183c1.578-0.479,3.663-0.873,5.852-1.133c3.714-0.441,6.205-0.123,8.215,1.069
		c2.193,1.258,3.747,3.526,4.157,6.981c0.441,3.714-0.608,6.438-2.263,8.24c-1.843,1.941-4.886,3.12-8.686,3.571
		c-2.275,0.27-3.933,0.321-5.016,0.303L93.907,92.183z M100.16,107.471c0.385,0.042,1.018-0.034,1.537-0.095
		c4.005-0.446,6.366-2.945,5.815-7.581c-0.496-4.175-3.092-5.881-6.893-5.43c-0.95,0.113-1.602,0.277-1.966,0.408L100.16,107.471z"
		/>
	<path fill="#ED1C24" d="M118.896,89.269l1.604,19.479l-4.393,0.362l-1.604-19.479L118.896,89.269z"/>
	<path fill="#ED1C24" d="M123.2,88.926l11.903-0.614l0.187,3.62l-7.501,0.387l0.23,4.46l7.008-0.362l0.186,3.591l-7.009,0.362
		l0.405,7.848l-4.402,0.228L123.2,88.926z"/>
	<path fill="#ED1C24" d="M139.072,88.206l11.916-0.125l0.038,3.624l-7.509,0.079l0.047,4.465l7.016-0.074l0.038,3.595l-7.016,0.074
		l0.083,7.857l-4.407,0.046L139.072,88.206z"/>
	<path fill="#ED1C24" d="M174.444,107.964c-0.801,0.338-2.677,0.71-5.022,0.596c-6.748-0.331-10.017-4.729-9.742-10.319
		c0.326-6.661,5.256-10.106,11.164-9.817c2.288,0.112,4.003,0.661,4.765,1.104l-1.097,3.43c-0.851-0.419-2.079-0.828-3.672-0.905
		c-3.476-0.17-6.301,1.811-6.516,6.184c-0.191,3.91,2.005,6.485,5.915,6.676c1.36,0.067,2.821-0.123,3.738-0.456L174.444,107.964z"
		/>
	<path fill="#ED1C24" d="M183.195,89.646l-1.604,19.479l-4.393-0.362l1.604-19.479L183.195,89.646z"/>
	<path fill="#ED1C24" d="M190.816,94.126l-5.243-0.597l0.42-3.688l14.923,1.699l-0.42,3.688l-5.301-0.604l-1.791,15.729
		l-4.379-0.499L190.816,94.126z"/>
	<path fill="#ED1C24" d="M206.175,112.092l1.259-7.905l-4.284-12.371l5.012,0.798l1.209,4.95c0.378,1.499,0.643,2.599,0.9,3.932
		l0.058,0.009c0.621-1.135,1.257-2.179,2.049-3.462l2.687-4.33l4.897,0.78l-8.15,10.243l-1.282,8.048L206.175,112.092z"/>
	<path fill="#ED1C24" d="M228.67,96.217l11.64,2.559l-0.778,3.54l-7.335-1.613l-0.959,4.361l6.854,1.507l-0.771,3.512l-6.854-1.507
		l-1.688,7.675l-4.305-0.946L228.67,96.217z"/>
	<path fill="#ED1C24" d="M253.087,121.835c-0.854,0.158-2.768,0.118-5.034-0.5c-6.521-1.778-8.765-6.779-7.293-12.18
		c1.755-6.437,7.313-8.739,13.022-7.183c2.211,0.603,3.768,1.508,4.417,2.106l-1.812,3.114c-0.74-0.592-1.853-1.256-3.392-1.676
		c-3.357-0.916-6.545,0.41-7.697,4.636c-1.03,3.778,0.561,6.767,4.338,7.797c1.315,0.358,2.783,0.488,3.75,0.361L253.087,121.835z"
		/>
</g>
<g>
	<path fill="#ED1C24" d="M114.185,254.589h-4.367v2.817h4.877v2.201h-7.554V247.74h7.308v2.201h-4.631v2.465h4.367V254.589z"/>
	<path fill="#ED1C24" d="M118.573,256.861c0.704,0.37,1.831,0.739,2.977,0.739c1.232,0,1.884-0.51,1.884-1.303
		c0-0.722-0.563-1.162-1.99-1.655c-1.972-0.704-3.274-1.796-3.274-3.539c0-2.025,1.708-3.557,4.489-3.557
		c1.356,0,2.325,0.264,3.029,0.599l-0.599,2.147c-0.458-0.229-1.321-0.563-2.466-0.563c-1.162,0-1.726,0.546-1.726,1.145
		c0,0.758,0.652,1.092,2.201,1.691c2.096,0.774,3.064,1.866,3.064,3.557c0,1.989-1.515,3.68-4.772,3.68
		c-1.355,0-2.694-0.369-3.363-0.739L118.573,256.861z"/>
	<path fill="#ED1C24" d="M132.26,249.994h-3.205v-2.254h9.122v2.254h-3.24v9.614h-2.677V249.994z"/>
	<path fill="#ED1C24" d="M150.156,250.54h-0.035l-2.184,1.039l-0.439-2.008l3.045-1.408h2.201v11.445h-2.588V250.54z"/>
	<path fill="#ED1C24" d="M162.715,247.968c2.678,0,3.787,1.55,3.787,2.941c0,0.985-0.529,1.954-1.674,2.518v0.053
		c1.127,0.423,2.113,1.374,2.113,2.835c0,2.078-1.744,3.486-4.402,3.486c-2.906,0-4.244-1.638-4.244-3.187
		c0-1.374,0.793-2.324,2.043-2.87v-0.035c-1.109-0.582-1.654-1.515-1.654-2.519c0-1.937,1.742-3.223,4.014-3.223H162.715z
		 M162.662,257.953c0.934,0,1.568-0.616,1.568-1.426c0-1.004-0.758-1.603-1.797-1.885c-0.881,0.247-1.391,0.881-1.391,1.708
		c-0.018,0.828,0.615,1.603,1.602,1.603H162.662z M162.627,249.783c-0.916,0-1.373,0.616-1.373,1.32c0,0.774,0.686,1.268,1.602,1.55
		c0.617-0.177,1.162-0.74,1.162-1.444c0-0.722-0.404-1.426-1.373-1.426H162.627z"/>
	<path fill="#ED1C24" d="M171.031,257.671c0.352,0.053,0.635,0.035,1.162,0c0.828-0.036,1.656-0.282,2.271-0.705
		c0.758-0.493,1.25-1.25,1.443-2.112l-0.035-0.018c-0.527,0.527-1.268,0.827-2.324,0.827c-1.936,0-3.557-1.338-3.557-3.574
		s1.797-4.121,4.314-4.121c2.941,0,4.332,2.254,4.332,4.931c0,2.395-0.758,4.12-1.99,5.265c-1.092,1.004-2.605,1.532-4.402,1.603
		c-0.439,0.035-0.898,0.018-1.215,0V257.671z M174.219,249.923c-0.898,0-1.566,0.81-1.566,2.007c0,0.986,0.545,1.832,1.619,1.832
		c0.758,0,1.25-0.335,1.514-0.74c0.088-0.176,0.123-0.352,0.123-0.687c0.018-1.215-0.457-2.412-1.672-2.412H174.219z"/>
	<path fill="#ED1C24" d="M182.764,257.671c0.352,0.053,0.633,0.035,1.162,0c0.826-0.036,1.654-0.282,2.271-0.705
		c0.756-0.493,1.25-1.25,1.443-2.112l-0.035-0.018c-0.529,0.527-1.268,0.827-2.324,0.827c-1.938,0-3.557-1.338-3.557-3.574
		s1.795-4.121,4.314-4.121c2.939,0,4.33,2.254,4.33,4.931c0,2.395-0.756,4.12-1.988,5.265c-1.092,1.004-2.607,1.532-4.402,1.603
		c-0.441,0.035-0.898,0.018-1.215,0V257.671z M185.949,249.923c-0.896,0-1.566,0.81-1.566,2.007c0,0.986,0.547,1.832,1.621,1.832
		c0.756,0,1.25-0.335,1.514-0.74c0.088-0.176,0.123-0.352,0.123-0.687c0.018-1.215-0.457-2.412-1.674-2.412H185.949z"/>
</g>
<g>
	<path fill="#FFFFFF" d="M79.789,263.399l8.254,2.624l-0.798,2.509l-5.201-1.652l-0.983,3.093l4.86,1.544l-0.792,2.49l-4.859-1.545
		l-1.729,5.441l-3.053-0.969L79.789,263.399z"/>
	<path fill="#FFFFFF" d="M93.34,267.496l-3.857,13.676l-3.085-0.87l3.858-13.676L93.34,267.496z"/>
	<path fill="#FFFFFF" d="M95.774,268.418c1.048,0.062,2.551,0.3,4.229,0.712c2.048,0.501,3.405,1.159,4.191,2.197
		c0.679,0.861,0.894,1.935,0.583,3.203c-0.427,1.739-1.972,2.642-3.264,2.779l-0.016,0.063c0.867,0.625,1.179,1.655,1.215,3.01
		c0.044,1.682,0.013,3.583,0.147,4.18l-3.193-0.782c-0.108-0.439-0.181-1.65-0.153-3.444c0.037-1.836-0.445-2.432-1.73-2.768
		l-0.921-0.226l-1.329,5.424l-3.09-0.758L95.774,268.418z M97.415,275.09l1.228,0.301c1.556,0.381,2.667-0.172,2.963-1.378
		c0.307-1.248-0.393-2.115-1.826-2.466c-0.757-0.186-1.197-0.25-1.437-0.244L97.415,275.09z"/>
	<path fill="#FFFFFF" d="M114.44,280.743l-5.128-1.013l-0.653,3.309l5.728,1.131l-0.511,2.584l-8.87-1.752l2.753-13.935l8.58,1.694
		l-0.51,2.584l-5.438-1.073l-0.572,2.895l5.128,1.013L114.44,280.743z"/>
	<path fill="#FFFFFF" d="M129.907,289c-0.255-0.349-0.51-0.698-0.8-1.113c-1.005,0.6-2.344,0.97-4.018,0.769
		c-3.409-0.408-4.675-2.597-4.437-4.585c0.224-1.86,1.45-3.071,3.164-3.736l0.008-0.063c-0.526-0.741-0.861-1.843-0.741-2.848
		c0.216-1.798,1.849-3.555,4.692-3.214c2.177,0.261,3.655,1.733,3.411,3.762c-0.17,1.422-1.152,2.535-3.216,3.284l-0.01,0.085
		c0.687,0.994,1.422,2.121,2.026,2.916c0.67-0.811,1.265-2.056,1.604-3.288l2.844,0.342c-0.632,2.088-1.562,3.823-2.984,5.074
		c0.688,0.994,1.393,2.013,2.158,3.059L129.907,289z M125.826,286.41c0.815,0.099,1.543-0.134,2.01-0.48
		c-0.775-0.963-1.771-2.398-2.766-3.833c-0.637,0.349-1.253,0.889-1.362,1.811c-0.146,1.212,0.633,2.324,2.098,2.5L125.826,286.41z
		 M127.413,276.182c-0.815-0.099-1.338,0.539-1.428,1.292c-0.085,0.711,0.152,1.377,0.719,2.145c1.11-0.589,1.698-1.069,1.796-1.885
		c0.08-0.669-0.229-1.449-1.065-1.55L127.413,276.182z"/>
	<path fill="#FFFFFF" d="M140.574,275.839c0.993-0.146,2.386-0.242,4.344-0.198c1.98,0.044,3.404,0.454,4.335,1.255
		c0.89,0.714,1.454,1.906,1.423,3.296c-0.031,1.412-0.5,2.583-1.359,3.343c-1.117,0.986-2.771,1.435-4.666,1.393
		c-0.422-0.01-0.801-0.038-1.094-0.108l-0.113,5.097l-3.18-0.07L140.574,275.839z M143.611,282.354
		c0.272,0.069,0.608,0.099,1.072,0.108c1.706,0.038,2.778-0.802,2.81-2.235c0.029-1.306-0.839-2.104-2.46-2.14
		c-0.652-0.014-1.097,0.018-1.329,0.076L143.611,282.354z"/>
	<path fill="#FFFFFF" d="M154.88,286.244l-0.803,3.691l-3.325,0.17l3.609-14.407l4.188-0.214l5.146,13.958l-3.452,0.178l-1.28-3.585
		L154.88,286.244z M158.356,283.66l-1.038-2.964c-0.275-0.83-0.583-1.891-0.834-2.7l-0.064,0.003
		c-0.146,0.852-0.322,1.938-0.49,2.769l-0.709,3.054L158.356,283.66z"/>
	<path fill="#FFFFFF" d="M165.903,285.864c0.889,0.342,2.281,0.621,3.641,0.46c1.466-0.175,2.168-0.875,2.056-1.816
		c-0.101-0.858-0.834-1.302-2.6-1.687c-2.444-0.558-4.147-1.671-4.394-3.743c-0.287-2.408,1.527-4.471,4.834-4.864
		c1.612-0.192,2.802-0.016,3.686,0.283l-0.408,2.639c-0.576-0.207-1.649-0.482-3.01-0.321c-1.382,0.164-1.975,0.893-1.89,1.604
		c0.107,0.9,0.929,1.206,2.856,1.697c2.6,0.625,3.906,1.786,4.146,3.796c0.281,2.366-1.279,4.589-5.152,5.05
		c-1.612,0.193-3.255-0.057-4.103-0.402L165.903,285.864z"/>
	<path fill="#FFFFFF" d="M177.494,284.391c0.907,0.294,2.311,0.502,3.661,0.27c1.454-0.251,2.119-0.983,1.959-1.919
		c-0.146-0.853-0.9-1.257-2.684-1.55c-2.469-0.431-4.228-1.454-4.581-3.511c-0.41-2.39,1.294-4.542,4.576-5.106
		c1.6-0.275,2.796-0.16,3.694,0.092l-0.271,2.656c-0.587-0.178-1.672-0.397-3.023-0.164c-1.37,0.235-1.924,0.992-1.803,1.699
		c0.153,0.893,0.99,1.155,2.938,1.548c2.629,0.489,3.993,1.581,4.335,3.575c0.404,2.347-1.04,4.648-4.884,5.31
		c-1.599,0.274-3.252,0.109-4.116-0.192L177.494,284.391z"/>
	<path fill="#FFFFFF" d="M189.689,271.002l2.904,13.904l-3.135,0.654l-2.904-13.902L189.689,271.002z"/>
	<path fill="#FFFFFF" d="M201.596,283.043c-4.067,1.021-7.252-1.46-8.237-5.384c-1.037-4.128,0.847-7.88,4.893-8.896
		c4.23-1.062,7.334,1.526,8.287,5.328c1.14,4.537-0.897,7.937-4.923,8.947L201.596,283.043z M201.117,280.535
		c2.105-0.527,2.813-2.813,2.137-5.511c-0.62-2.473-2.318-4.305-4.465-3.767c-2.146,0.538-2.827,2.926-2.182,5.499
		c0.652,2.596,2.406,4.307,4.489,3.783L201.117,280.535z"/>
	<path fill="#FFFFFF" d="M210.8,280.39l-4.226-13.557l3.58-1.115l4.365,4.089c1.248,1.179,2.562,2.623,3.66,3.956l0.04-0.012
		c-0.738-1.733-1.37-3.545-2.01-5.597l-1.229-3.941l2.816-0.878l4.226,13.557l-3.218,1.002l-4.526-4.326
		c-1.263-1.218-2.707-2.664-3.846-4.054l-0.081,0.025c0.665,1.779,1.301,3.678,1.991,5.891l1.273,4.082L210.8,280.39z"/>
</g>
<g id="XMLID_4_" opacity="0.06">
	<path d="M293.83,281.756c-1.119,3.97-2.92,7.819-4.739,11.51c-12.65,25.55-33.061,47.33-54.61,65.61
		c-19.41,16.46-40.58,30.8-62.71,43.329c-7.13,4.03-14.34,7.91-21.63,11.631c-1.92,0.979-4.16-0.95-5.76-1.78
		c-3.38-1.76-6.761-3.54-10.101-5.37c-12.63-6.92-25.029-14.28-36.97-22.33c-30.42-20.52-59.62-45.21-79.83-76.22
		c-2.31-3.54-4.5-7.16-6.51-10.88c0.5-0.561,1.04-1.15,1.609-1.761c0.921-1,1.931-2.08,2.99-3.22c3.03-3.22,6.641-6.979,10.8-11.18
		c2.271-2.29,4.7-4.71,7.301-7.26v-0.011c1.13-1.09,2.29-2.22,3.479-3.38c42.101-40.68,121.98-107.85,225.521-148.49
		c1.13-0.44,2.26-0.88,3.399-1.32c2.96-1.14,5.931-2.25,8.931-3.35c4.289-1.57,8.63-3.09,13-4.56c1.22-0.41,2.439-0.81,3.67-1.22
		c0.75-0.24,1.5-0.49,2.25-0.73v158.271C293.921,272.846,294.881,278.036,293.83,281.756z"/>
</g>
</svg>
