<?xml version="1.0" encoding="UTF-8" standalone="no"?>
<svg
   xmlns:dc="http://purl.org/dc/elements/1.1/"
   xmlns:cc="http://creativecommons.org/ns#"
   xmlns:rdf="http://www.w3.org/1999/02/22-rdf-syntax-ns#"
   xmlns:svg="http://www.w3.org/2000/svg"
   xmlns="http://www.w3.org/2000/svg"
   xmlns:sodipodi="http://sodipodi.sourceforge.net/DTD/sodipodi-0.dtd"
   xmlns:inkscape="http://www.inkscape.org/namespaces/inkscape"
   version="1.1"
   id="Layer_1"
   x="0px"
   y="0px"
   width="251.04942"
   height="264.26401"
   viewBox="0 0 251.04941 264.264"
   enable-background="new 0 0 595.28 841.89"
   xml:space="preserve"
   inkscape:version="0.48.3.1 r9886"
   sodipodi:docname="everton-fc.svg"><metadata
   id="metadata69"><rdf:RDF><cc:Work
       rdf:about=""><dc:format>image/svg+xml</dc:format><dc:type
         rdf:resource="http://purl.org/dc/dcmitype/StillImage" /></cc:Work></rdf:RDF></metadata><defs
   id="defs67" /><sodipodi:namedview
   pagecolor="#ffffff"
   bordercolor="#666666"
   borderopacity="1"
   objecttolerance="10"
   gridtolerance="10"
   guidetolerance="10"
   inkscape:pageopacity="0"
   inkscape:pageshadow="2"
   inkscape:window-width="640"
   inkscape:window-height="480"
   id="namedview65"
   showgrid="false"
   fit-margin-top="0"
   fit-margin-left="0"
   fit-margin-right="0"
   fit-margin-bottom="0"
   inkscape:zoom="0.28032165"
   inkscape:cx="39.790356"
   inkscape:cy="223.272"
   inkscape:window-x="0"
   inkscape:window-y="0"
   inkscape:window-maximized="0"
   inkscape:current-layer="Layer_1" />
<g
   id="g3"
   transform="translate(-257.84965,-379.953)">
	<path
   d="m 452.213,389.515 35.696,34.907 c 0,0 -15.651,12.104 -18.899,32.448 -2.499,16.219 3.163,33.632 16.878,51.818 0,0 15.623,18.135 15.602,43.087 0,0 2.118,37.093 -34.514,55.48 0,0 -19.33,10.377 -50.789,13.253 0,0 -20.415,1.837 -32.816,13.555 -12.397,-11.718 -32.819,-13.555 -32.819,-13.555 -31.456,-2.876 -50.786,-13.253 -50.786,-13.253 -36.632,-18.388 -34.517,-55.48 -34.517,-55.48 -0.019,-24.952 15.605,-43.087 15.605,-43.087 13.714,-18.187 19.376,-35.6 16.875,-51.818 -3.245,-20.344 -18.899,-32.448 -18.899,-32.448 l 35.702,-34.907 c 12.844,9.03 31.453,9.365 34.161,9.365 0.222,0 0.334,0 0.334,0 23.366,-0.19 34.345,-8.935 34.345,-8.935 0,0 10.976,8.745 34.345,8.935 0,0 0.116,0 0.331,0 2.712,0 21.324,-0.338 34.165,-9.365 m 0.774,-9.562 -5.026,3.533 c -11.091,7.798 -28.019,8.022 -29.915,8.022 l -0.203,-0.003 h -0.027 -0.041 c -16.017,-0.131 -26.477,-4.84 -29.821,-7.345 l -4.58,-3.095 -4.592,3.101 c -3.357,2.505 -13.812,7.208 -29.818,7.339 h -0.037 l -0.041,0.003 h -0.193 c -1.891,0 -18.818,-0.225 -29.909,-8.022 l -5.028,-3.533 -4.393,4.294 -35.699,34.906 -6.052,5.919 6.701,5.179 c 0.106,0.09 13.402,10.722 16.126,27.777 2.171,14.095 -2.998,29.604 -15.368,46.068 -1.956,2.35 -17.165,21.428 -17.202,47.521 -0.062,1.753 -0.215,11.58 3.931,23.432 4.14,11.834 13.496,28.149 34.573,38.757 1.803,0.948 21.776,11.144 53.509,14.045 0.175,0.019 18.082,1.807 28.415,11.568 l 5.075,4.798 5.079,-4.798 c 10.332,-9.762 28.236,-11.55 28.418,-11.568 31.728,-2.901 51.703,-13.097 53.5,-14.045 21.08,-10.607 30.436,-26.923 34.575,-38.753 4.146,-11.855 4,-21.683 3.935,-23.436 -0.041,-26.094 -15.249,-45.172 -17.209,-47.521 -12.366,-16.461 -17.532,-31.974 -15.358,-46.106 2.752,-17.223 15.989,-27.635 16.123,-27.735 l 6.701,-5.183 -6.056,-5.919 -35.698,-34.906 -4.395,-4.294 z"
   id="path5"
   inkscape:connector-curvature="0"
   style="fill:#ffdf1c" />
	<path
   d="m 452.213,389.523 35.699,34.907 c 0,0 -15.654,12.102 -18.902,32.448 -2.499,16.215 3.166,33.629 16.881,51.82 0,0 15.62,18.132 15.599,43.083 0,0 2.121,37.094 -34.514,55.481 0,0 -19.333,10.376 -50.786,13.252 0,0 -20.418,1.841 -32.816,13.553 -12.403,-11.712 -32.819,-13.553 -32.819,-13.553 -31.459,-2.876 -50.789,-13.252 -50.789,-13.252 -36.635,-18.388 -34.513,-55.481 -34.513,-55.481 -0.022,-24.955 15.602,-43.083 15.602,-43.083 13.711,-18.191 19.376,-35.605 16.878,-51.82 C 294.485,436.531 278.83,424.43 278.83,424.43 l 35.699,-34.907 c 12.847,9.027 31.456,9.367 34.164,9.367 0.222,0 0.334,-0.003 0.334,-0.003 23.37,-0.192 34.348,-8.937 34.348,-8.937 0,0 10.973,8.745 34.342,8.937 0,0 0.112,0.003 0.334,0.003 2.706,0 21.318,-0.34 34.162,-9.367"
   id="path7"
   inkscape:connector-curvature="0"
   style="fill:#004f9d" />
	<path
   d="m 315.083,394.876 c 13.371,7.801 30.167,8.227 33.608,8.227 0.23,0 0.368,-0.003 0.378,-0.003 18.269,-0.151 29.534,-5.322 34.304,-8.118 4.761,2.795 16.023,7.966 34.268,8.114 0,0 0.141,0.006 0.408,0.006 3.438,0 20.238,-0.426 33.609,-8.227 l 30.096,29.428 c -5.179,5.13 -14.407,16.201 -16.912,31.931 -2.683,17.381 3.267,35.884 17.673,54.996 l 0.085,0.11 0.084,0.097 c 0.146,0.172 14.606,17.338 14.585,40.337 v 0.121 l 0.006,0.122 c 0.021,0.346 1.572,34.528 -32.195,51.479 l -0.05,0.024 -0.05,0.028 c -0.19,0.1 -18.925,10.002 -49.17,12.77 -0.83,0.074 -19.168,1.837 -32.437,12.201 -13.274,-10.364 -31.612,-12.127 -32.436,-12.201 -24.097,-2.2 -42.706,-9.319 -49.173,-12.77 l -0.053,-0.028 -0.051,-0.024 c -14.069,-7.063 -23.759,-17.811 -28.794,-31.943 -3.813,-10.7 -3.404,-19.457 -3.401,-19.535 l 0.006,-0.122 v -0.121 c -0.019,-22.999 14.438,-40.165 14.579,-40.331 l 0.09,-0.103 0.084,-0.11 c 14.407,-19.112 20.356,-37.615 17.67,-55.019 -2.505,-15.714 -11.73,-26.778 -16.909,-31.908 l 30.098,-29.428 m 137.13,-5.353 c -12.844,9.027 -31.456,9.367 -34.164,9.367 -0.222,0 -0.334,-0.003 -0.334,-0.003 -23.369,-0.192 -34.342,-8.937 -34.342,-8.937 0,0 -10.978,8.745 -34.348,8.937 0,0 -0.112,0.003 -0.334,0.003 -2.708,0 -21.317,-0.34 -34.164,-9.367 l -35.699,34.907 c 0,0 15.655,12.102 18.903,32.445 2.499,16.218 -3.167,33.632 -16.878,51.823 0,0 -15.624,18.128 -15.602,43.083 0,0 -2.122,37.094 34.513,55.481 0,0 19.33,10.376 50.789,13.252 0,0 20.416,1.835 32.819,13.553 12.398,-11.718 32.816,-13.553 32.816,-13.553 31.453,-2.876 50.786,-13.252 50.786,-13.252 36.635,-18.388 34.514,-55.481 34.514,-55.481 0.021,-24.951 -15.599,-43.083 -15.599,-43.083 -13.715,-18.191 -19.38,-35.605 -16.881,-51.823 3.248,-20.344 18.902,-32.445 18.902,-32.445 l -35.697,-34.907 z"
   id="path9"
   inkscape:connector-curvature="0"
   style="fill:#002157" />
	<path
   d="m 322.002,437.89 c 0,2.533 0.25,4.286 0.627,5.383 -0.437,-0.032 -1.126,-0.063 -1.847,-0.063 -0.718,0 -1.441,0.031 -1.94,0.063 0.284,-1.847 0.409,-3.725 0.409,-5.729 v -10.608 c 0,-2.878 -0.222,-3.441 -1.41,-3.441 -0.281,0 -0.687,0.062 -1.22,0.189 l -1.657,0.374 c -0.536,0.125 -0.88,0.253 -1.188,0.378 l -0.253,-0.189 c 0.253,-0.47 0.562,-1.252 0.718,-1.91 0.88,-0.093 1.441,-0.156 2.442,-0.375 l 3.507,-0.75 c 0.627,-0.125 1.313,-0.313 1.972,-0.501 l 0.247,0.248 c -0.281,1.975 -0.406,4.194 -0.406,5.508 v 11.423 z"
   id="path11"
   inkscape:connector-curvature="0"
   style="fill:#ffffff" />
	<path
   d="m 342.209,437.31 c 0,3.816 -3.16,6.574 -7.575,6.574 -3.975,0 -6.729,-2.38 -6.729,-5.821 0,-3.006 1.972,-4.728 5.136,-6.542 -2.193,-1.284 -4.006,-2.847 -4.006,-5.571 0,-3.253 2.845,-5.85 6.414,-5.85 3.476,0 6.009,2.221 6.009,5.224 0,2.817 -1.94,4.259 -4.318,5.572 2.47,1.343 5.069,3.097 5.069,6.414 m -11.861,0.564 c 0,2.533 1.878,4.413 4.474,4.413 2.63,0 4.664,-1.911 4.664,-4.384 0,-2.502 -1.878,-3.847 -4.852,-5.475 -2.19,1.064 -4.286,2.722 -4.286,5.446 m 8.794,-12.487 c 0,-2.16 -1.594,-3.754 -3.756,-3.754 -2.131,0 -3.725,1.563 -3.725,3.661 0,2.316 1.94,3.565 3.943,4.725 1.785,-1.003 3.538,-2.223 3.538,-4.632"
   id="path13"
   inkscape:connector-curvature="0"
   style="fill:#ffffff" />
	<path
   d="m 422.507,443.441 11.581,-19.686 h -7.513 c -1.348,0 -2.724,0.188 -3.881,1.031 l -0.312,-0.125 c 0.371,-1.031 0.686,-2.753 0.813,-3.537 0.843,0.064 1.72,0.064 2.658,0.064 h 8.233 c 1.061,0 1.56,0 2.533,-0.092 0.031,0.313 0.249,1.783 0.374,2.128 -1.722,1.938 -3.725,5.383 -5.728,9.011 -2.846,5.194 -4.097,8.294 -4.38,11.425 0,0 -2.627,0.028 -4.193,0.152 l -0.185,-0.371 z"
   id="path15"
   inkscape:connector-curvature="0"
   style="fill:#ffffff" />
	<path
   d="m 453.221,437.775 c 0,3.817 -3.16,6.57 -7.574,6.57 -3.975,0 -6.727,-2.376 -6.727,-5.82 0,-3.002 1.969,-4.725 5.132,-6.538 -2.189,-1.286 -4.006,-2.847 -4.006,-5.572 0,-3.252 2.846,-5.853 6.414,-5.853 3.473,0 6.009,2.223 6.009,5.226 0,2.818 -1.938,4.259 -4.317,5.572 2.473,1.344 5.069,3.099 5.069,6.415 m -11.862,0.565 c 0,2.533 1.878,4.412 4.478,4.412 2.626,0 4.663,-1.91 4.663,-4.382 0,-2.502 -1.881,-3.85 -4.854,-5.477 -2.187,1.064 -4.287,2.722 -4.287,5.447 m 8.795,-12.488 c 0,-2.158 -1.598,-3.756 -3.753,-3.756 -2.131,0 -3.726,1.564 -3.726,3.664 0,2.313 1.938,3.566 3.94,4.725 1.785,-1.004 3.539,-2.223 3.539,-4.633"
   id="path17"
   inkscape:connector-curvature="0"
   style="fill:#ffffff" />
	<path
   d="m 434.406,532.027 c 0.118,0.268 -0.3,0.68 -1.984,0.992 0,0 -3.906,0.721 -8.134,0.408 v -51.766 c 3.979,-1.773 3.055,-4.92 3.055,-4.92 6.149,-4.466 -0.428,-9.77 -0.428,-9.77 -4.654,-3.941 -11.911,-5.903 -11.911,-5.903 l -27.107,-44.945 c -0.627,-1.039 -1.116,-1.561 -1.476,-1.837 0.278,-0.498 0.428,-1.063 0.428,-1.674 0,-1.933 -1.563,-3.5 -3.479,-3.5 -1.925,0 -3.491,1.567 -3.491,3.5 0,0.512 0.106,0.984 0.3,1.42 -1.001,0.951 -1.479,1.928 -1.479,1.928 l -28.515,45.54 c -7.553,2.588 -10.738,6.438 -10.738,6.438 -4.242,5.092 0.085,8.194 0.085,8.194 -1.835,4.75 3.032,7.027 3.032,7.027 v 46.296 c -4.23,0.313 -8.133,-0.405 -8.133,-0.405 -1.688,-0.312 -2.112,-0.729 -1.984,-0.992 -1.592,3.272 3.098,8.873 52.196,12.104 26.456,1.742 51.8,-2.289 49.763,-8.135"
   id="path19"
   inkscape:connector-curvature="0"
   style="fill:#002157" />
	<path
   d="m 369.142,580.333 c -0.534,1.938 -0.671,2.434 -1.127,4.071 -2.552,0.83 -5.74,1.65 -8.682,1.65 -8.555,0 -13.989,-5.815 -13.989,-14.351 0,-8.648 5.494,-14.632 13.431,-14.632 6.832,0 11.106,4.1 11.106,10.751 0,0.555 0,2.938 -0.958,2.938 h -7.095 c -2.886,0 -6.938,0.056 -8.772,0.162 0.112,6.595 3.666,10.363 9.609,10.363 2.386,0 3.796,-0.455 5.771,-1.821 0.453,-0.317 0.958,-0.029 0.706,0.869 m -9.756,-13.01 c 2.39,-0.053 3.332,-0.773 3.332,-2.545 0,-2.605 -1.888,-4.489 -4.387,-4.489 -3.553,0 -5.051,2.657 -5.331,7.203 l 6.386,-0.169 z"
   id="path21"
   inkscape:connector-curvature="0"
   style="fill:#ffffff" />
	<path
   d="m 379.727,564.029 2.027,-2.64 c 2.53,-3.316 4.274,-4.383 6.92,-4.383 0.955,0 1.404,0.078 2.415,0.53 -0.793,2.854 -1.619,5.85 -2.104,7.594 -0.105,0.374 -0.452,0.883 -0.957,0.314 -1.073,-1.197 -1.267,-1.644 -2.564,-1.644 -1.572,0 -2.867,0.845 -3.825,2.414 -0.786,1.295 -1.126,2.362 -1.126,5.055 v 4.552 c 0,4.829 0.34,6.851 1.126,9.265 -0.898,-0.056 -2.701,-0.112 -4.445,-0.112 -1.741,0 -3.488,0.057 -4.555,0.112 0.505,-3.257 0.674,-5.952 0.674,-9.995 v -6.738 c 0,-2.699 -0.222,-7.525 -1.183,-10.501 2.14,0 5.46,-0.112 7.709,-0.225 l -0.112,6.402 z"
   id="path23"
   inkscape:connector-curvature="0"
   style="fill:#ffffff" />
	<path
   d="m 392.994,561.462 c 0.044,-0.172 0.749,-2.705 1.002,-3.616 0.715,0.072 2.059,0.106 3.419,0.106 0,-2.202 -0.118,-3.392 -0.23,-5.089 1.98,-0.562 5.575,-2.192 7.125,-3.172 0.571,-0.362 0.864,0.155 0.814,0.767 -0.053,0.659 -0.443,2.521 -0.521,7.494 h 3.905 c 1.357,0 2.88,-0.057 4.303,-0.394 0.209,-0.053 0.521,0.057 0.396,0.506 -0.215,0.786 -0.857,3.101 -1.123,4.059 -2.184,-0.256 -3.516,-0.269 -4.988,-0.269 h -2.492 c -0.116,1.862 -0.169,4.125 -0.169,5.706 v 6.383 c 0,4.299 0.449,7.463 4.187,7.463 1.192,0 2.149,-0.269 3.622,-1.018 0.237,-0.118 0.817,-0.093 0.611,0.658 -0.346,1.245 -0.661,2.384 -1.054,3.804 -3.36,0.889 -4.765,1.136 -6.57,1.136 -4.82,0 -7.934,-2.091 -7.934,-8.985 v -8.595 c 0,-2.768 0,-4.745 -0.112,-6.61 -1.473,0 -3.052,0.181 -3.818,0.312 -0.167,0.031 -0.544,-0.038 -0.373,-0.646"
   id="path25"
   inkscape:connector-curvature="0"
   style="fill:#ffffff" />
	<path
   d="m 308.285,562.045 c 3.378,0 6.785,-0.246 8.104,-0.442 0.559,-0.085 0.443,0.387 0.443,0.387 -0.412,1.491 -0.971,3.506 -1.332,4.804 -3.551,-0.33 -5.497,-0.427 -7.937,-0.427 h -3.943 v 7.871 c 0,5.098 0.555,6.76 6.607,6.76 3.444,0 5.275,0.022 8.987,-2.811 0.665,-0.505 1.464,-0.212 1.089,1.136 -0.371,1.342 -1.56,5.628 -1.656,5.978 -6.23,-0.206 -10.363,-0.256 -14.026,-0.256 -4.607,0 -7.609,0 -10.104,0.053 0.443,-2.936 0.773,-6.317 0.773,-10.529 v -17.401 c 0,-2.823 -0.106,-8.199 -1.107,-10.694 1.888,0.112 3.164,0.112 4.552,0.112 h 10.438 c 3.719,0 5.216,-0.112 9.269,-0.169 -0.736,2.658 -1.513,5.466 -1.81,6.539 -0.296,1.067 -0.86,0.262 -0.964,0.112 -1.719,-2.496 -5.051,-2.771 -8.217,-2.771 -1.002,0 -2.165,0.057 -3.554,0.112 -0.053,0.942 -0.222,3.601 -0.222,5.984 v 5.652 h 4.61 z"
   id="path27"
   inkscape:connector-curvature="0"
   style="fill:#ffffff" />
	<path
   d="m 332.147,584.987 c -1.11,0 -2.502,0.054 -3.56,0.112 -0.39,-2.445 -0.839,-3.999 -1.672,-6.445 l -3.672,-11.222 c -1.114,-3.335 -2.452,-7.004 -4.898,-9.836 3.672,0.112 6.567,-0.057 10.07,-0.331 0.225,2.721 0.84,5.328 1.616,7.943 l 2.063,7.057 c 0.499,1.666 1.56,5.385 1.56,5.385 0.387,-1.217 0.833,-2.384 1.223,-3.441 l 3.227,-8.336 c 0.555,-1.444 1.282,-3.666 1.5,-5.943 0,-0.779 0.06,-1.5 0,-2.445 0.783,0.056 2.228,0.056 3.397,0.056 1.114,0 2.923,-0.137 3.771,-0.246 0.765,-0.1 0.655,0.371 0.402,0.692 -1.912,2.427 -3.45,5.722 -4.895,9.112 l -5.288,12.279 c -0.839,1.997 -1.226,3.444 -1.725,5.663 -0.554,-0.054 -1.836,-0.054 -3.119,-0.054"
   id="path29"
   inkscape:connector-curvature="0"
   style="fill:#ffffff" />
	<path
   d="m 413.781,572.078 c 0,-8.732 5.294,-15.074 15.212,-15.074 8.804,0 13.764,5.01 13.764,13.683 0,9.347 -5.905,15.3 -15.103,15.3 -8.747,-10e-4 -13.873,-5.118 -13.873,-13.909 m 21.065,0 c 0,-7.73 -2.399,-11.901 -6.742,-11.901 -4.626,0 -6.41,4.171 -6.41,10.788 0,7.789 2.34,11.907 6.576,11.907 4.289,0 6.576,-3.672 6.576,-10.794"
   id="path31"
   inkscape:connector-curvature="0"
   style="fill:#ffffff" />
	<path
   d="m 445.55,567.442 c 0,-2.724 -0.229,-6.866 -1.195,-9.877 2.502,0 5.968,0 8.357,-0.225 l -0.168,4.879 2.274,-1.928 c 2.786,-2.327 5.06,-3.292 7.905,-3.292 6.482,0 8.697,3.635 8.697,10.049 v 7.319 c 0,5.166 0.341,8.289 1.139,10.729 -0.907,-0.056 -2.789,-0.109 -4.548,-0.109 -1.819,0 -3.641,0.054 -4.605,0.109 0.512,-3.063 0.681,-6.642 0.681,-10.729 v -4.936 c 0,-3.294 -0.228,-7.098 -4.889,-7.098 -1.65,0 -3.301,0.684 -4.549,1.875 -1.426,1.417 -1.821,2.611 -1.821,6.127 v 4.031 c 0,5.166 0.343,8.289 1.135,10.729 -0.852,-0.056 -2.729,-0.109 -4.489,-0.109 -1.878,0 -3.641,0.054 -4.607,0.109 0.512,-3.063 0.684,-6.642 0.684,-10.729 v -6.924 z"
   id="path33"
   inkscape:connector-curvature="0"
   style="fill:#ffffff" />
	<path
   d="m 341.841,474.15 c 0,0 7.128,-9.534 41.973,-9.15 0,0 32.308,-1.039 42.281,9.367 0,0 2.53,-1.854 0,-4.661 0,0 -6.396,-8.62 -42.113,-9.002 0,0 -30.957,-0.746 -42.141,9.148 0,0.001 -1.872,1.891 0,4.298"
   id="path35"
   inkscape:connector-curvature="0"
   style="fill:#ffffff" />
	<path
   d="m 370.417,526.721 c -8.686,-0.144 -7.696,5.079 -7.696,5.079 11.577,1.609 35.864,1.722 55.699,-1.127 v -5.415 c -15.657,1.874 -23.648,2.165 -48.003,1.463"
   id="path37"
   inkscape:connector-curvature="0"
   style="fill:#ffffff" />
	<path
   d="m 374.123,444.678 c 0,0 15.037,-2.85 28.839,3.457 0,0 -5.78,-9.093 -20.422,-8.508 0,0 -8.448,0.243 -8.417,5.051"
   id="path39"
   inkscape:connector-curvature="0"
   style="fill:#ffffff" />
	<path
   d="m 370.474,455.201 c 0,0 22.106,-2.572 38.267,3.262 0,0 -5.285,-10.288 -31.719,-8.142 -10e-4,0 -5.843,0.499 -6.548,4.88"
   id="path41"
   inkscape:connector-curvature="0"
   style="fill:#ffffff" />
	<path
   d="m 384.644,470.827 c 0,0 28.289,-0.429 39.717,7.178 0,0 0.468,0.325 0.861,-0.086 0,0 0.306,-0.454 -0.109,-0.827 0,0 -7.78,-8.386 -40.469,-8.376 0,0 -32.755,-0.738 -42.582,9.107 0,0 -0.614,0.517 -0.087,1.031 0,0 0.381,0.339 0.742,0 0,0 7.777,-8.343 41.927,-8.027"
   id="path43"
   inkscape:connector-curvature="0"
   style="fill:#ffffff" />
	<path
   d="m 384.253,420.625 c 0,0 -2.914,-0.393 -4.071,3.57 0,0 3.769,-0.909 8.053,0.819 -0.001,10e-4 -1.57,-4.346 -3.982,-4.389"
   id="path45"
   inkscape:connector-curvature="0"
   style="fill:#ffffff" />
	<path
   d="m 376.94,434.505 c 0,0 10.183,-1.977 18.534,2.188 0,0 -4.586,-7.555 -11.674,-7.072 10e-4,0 -6.279,-0.195 -6.86,4.884"
   id="path47"
   inkscape:connector-curvature="0"
   style="fill:#ffffff" />
	<path
   d="m 418.417,486.556 v -4.952 c -16.238,-5.641 -39.33,-4.37 -41.555,-4.389 -16.737,-0.147 -14.176,6.811 -14.176,6.811 6.537,-1.173 30.77,-2.866 55.731,2.53"
   id="path49"
   inkscape:connector-curvature="0"
   style="fill:#ffffff" />
	<path
   d="m 434.406,532.027 c -0.24,-0.684 -1.623,-0.655 -2.185,-0.593 -2.149,0.237 -4.249,0.468 -5.659,0.468 -0.249,0 -0.48,0 -0.692,-0.006 v -49.261 c 2.527,-1.491 3.183,-3.644 3.154,-5.197 1.632,-1.415 2.48,-3.052 2.523,-4.875 0.094,-3.716 -3.26,-6.529 -3.641,-6.837 -4.09,-3.46 -9.955,-5.433 -11.87,-6.015 L 389.25,415.295 c -0.337,-0.552 -0.661,-1.019 -0.982,-1.401 0.108,-0.417 0.162,-0.844 0.162,-1.282 0,-2.811 -2.271,-5.094 -5.061,-5.094 -2.798,0 -5.072,2.284 -5.072,5.094 0,0.339 0.034,0.674 0.097,0.997 -0.6,0.707 -0.945,1.323 -1.067,1.56 l -28.184,45.005 c -7.506,2.699 -10.772,6.575 -10.909,6.74 -1.707,2.045 -2.439,4.112 -2.181,6.14 0.206,1.637 1.014,2.835 1.669,3.56 -0.867,3.652 1.356,6.229 3.26,7.476 v 43.838 l -0.692,0.006 c -1.413,0 -3.513,-0.23 -5.662,-0.471 -0.562,-0.06 -1.856,-0.078 -2.181,0.596 -0.128,0.263 0.296,0.681 1.984,0.992 0,0 3.902,0.718 8.133,0.405 V 483.16 c 0,0 -4.867,-2.277 -3.032,-7.027 0,0 -4.327,-3.103 -0.085,-8.194 0,0 3.186,-3.85 10.738,-6.438 l 28.515,-45.54 c 0,0 0.478,-0.977 1.479,-1.928 -0.193,-0.436 -0.3,-0.908 -0.3,-1.42 0,-1.933 1.566,-3.5 3.491,-3.5 1.916,0 3.479,1.567 3.479,3.5 0,0.61 -0.149,1.176 -0.428,1.674 0.359,0.276 0.849,0.799 1.476,1.837 l 27.107,44.945 c 0,0 7.257,1.962 11.911,5.903 0,0 6.577,5.304 0.428,9.77 0,0 0.924,3.146 -3.055,4.92 v 51.766 c 4.228,0.313 8.134,-0.408 8.134,-0.408 1.569,-0.294 2.037,-0.668 2,-0.937 -0.007,-0.019 -0.01,-0.037 -0.016,-0.056"
   id="path51"
   inkscape:connector-curvature="0"
   style="fill:#ffffff" />
	<path
   d="m 362.733,496.135 c 4.155,-0.207 8.232,-0.331 12.186,-0.389 v -5.855 c -1.479,0.021 -2.979,0.053 -4.489,0.092 -8.582,0.134 -7.697,6.152 -7.697,6.152"
   id="path53"
   inkscape:connector-curvature="0"
   style="fill:#ffffff" />
	<path
   d="M 418.417,497.411 V 492 c -7.689,-1.621 -14.94,-1.953 -26.936,-2.353 v 6.188 c 13.468,0 24.64,1.347 26.936,1.576"
   id="path55"
   inkscape:connector-curvature="0"
   style="fill:#ffffff" />
	<rect
   x="379.59601"
   y="497.88501"
   width="7.4559999"
   height="1.595"
   id="rect57"
   style="fill:#ffffff" />
	<path
   d="m 370.417,514.569 c -8.613,-0.038 -7.696,5.3 -7.696,5.3 12.819,1.015 34.323,1.264 55.699,-0.371 v -5.385 c -3.912,0.112 -24.022,0.65 -48.003,0.456"
   id="path59"
   inkscape:connector-curvature="0"
   style="fill:#ffffff" />
	<rect
   x="379.59201"
   y="486.55801"
   width="7.4569998"
   height="9.1230001"
   id="rect61"
   style="fill:#ffffff" />
	<path
   d="m 370.47,501.958 c -8.354,0 -7.861,6.133 -7.861,6.133 25.329,-0.387 48.196,0.214 55.827,0.454 l -0.128,-5.62 c -6.872,-0.818 -25.894,-1.137 -47.838,-0.967"
   id="path63"
   inkscape:connector-curvature="0"
   style="fill:#ffffff" />
</g>
</svg>