<?xml version="1.0" encoding="utf-8"?>
<!-- Generator: Adobe Illustrator 14.0.0, SVG Export Plug-In . SVG Version: 6.00 Build 43363)  -->
<!DOCTYPE svg PUBLIC "-//W3C//DTD SVG 1.1//EN" "http://www.w3.org/Graphics/SVG/1.1/DTD/svg11.dtd">
<svg version="1.1" id="Layer_1" xmlns:svg="http://www.w3.org/2000/svg"
	 xmlns="http://www.w3.org/2000/svg" xmlns:xlink="http://www.w3.org/1999/xlink" x="0px" y="0px" width="800px" height="726.411px"
	 viewBox="0 0 800 726.411" enable-background="new 0 0 800 726.411" xml:space="preserve">
<path id="path3" fill="#FAA61A" d="M398.77,9.215H136.324c0,0-0.024,357.468,0,357.78C153.52,606.198,398.56,716.305,398.56,716.305
	s244.702-110.107,261.898-349.311c0.021-0.313,0-357.78,0-357.78H398.77"/>
<g id="g5">
	<g>
		<defs>
			<path id="SVGID_1_" d="M398.77,9.215H136.324c0,0-0.024,357.468,0,357.78C153.52,606.198,398.56,716.305,398.56,716.305
				s244.702-110.107,261.898-349.311c0.021-0.313,0-357.78,0-357.78H398.77"/>
		</defs>
		<clipPath id="SVGID_2_">
			<use xlink:href="#SVGID_1_"  overflow="visible"/>
		</clipPath>
		<rect id="rect13" x="137.291" y="9.811" clip-path="url(#SVGID_2_)" fill="#231F20" width="523.186" height="90.074"/>
	</g>
</g>
<g id="g15">
	<path id="path17" fill="none" stroke="#231F20" stroke-width="18.4305" d="M398.77,9.215H136.324c0,0-0.024,357.468,0,357.78
		C153.52,606.198,398.56,716.305,398.56,716.305s244.702-110.107,261.898-349.311c0.021-0.313,0-357.78,0-357.78H398.77
		L398.77,9.215z"/>
</g>
<polyline id="polyline19" fill="#FFFFFF" points="190.554,19.132 190.554,81.324 174.382,81.324 174.382,55.202 169.542,55.202 
	169.542,81.324 153.372,81.324 153.372,19.132 169.542,19.132 169.542,41.374 174.382,41.374 174.382,19.132 190.554,19.132 "/>
<path id="path21" fill="#FFFFFF" d="M235.769,19.132v41.561c0,4.713-0.155,8.029-0.461,9.948c-0.307,1.899-1.215,3.856-2.729,5.879
	c-1.509,1.997-3.506,3.519-5.992,4.574c-2.458,1.019-5.363,1.536-8.714,1.536c-3.715,0-6.994-0.62-9.838-1.849
	c-2.842-1.224-4.964-2.828-6.374-4.798c-1.405-1.975-2.241-4.049-2.5-6.222c-0.258-2.204-0.379-6.813-0.379-13.831V19.132h16.167
	v46.636c0,2.711,0.143,4.454,0.423,5.222c0.309,0.741,0.909,1.112,1.805,1.112c1.024,0,1.679-0.406,1.959-1.229
	c0.309-0.845,0.461-2.815,0.461-5.915V19.132H235.769"/>
<polyline id="polyline23" fill="#FFFFFF" points="260.167,19.132 260.167,68.876 270,68.876 270,81.324 243.996,81.324 
	243.996,19.132 260.167,19.132 "/>
<polyline id="polyline25" fill="#FFFFFF" points="292.058,19.132 292.058,68.876 301.889,68.876 301.889,81.324 275.882,81.324 
	275.882,19.132 292.058,19.132 "/>
<path id="path27" fill="#FFFFFF" d="M361.361,46.251h-16.166v-10.83c0-3.148-0.186-5.109-0.538-5.877
	c-0.335-0.794-1.09-1.193-2.269-1.193c-1.328,0-2.173,0.475-2.529,1.423c-0.362,0.949-0.543,2.996-0.543,6.146v28.884
	c0,3.025,0.181,4.995,0.543,5.915c0.356,0.922,1.159,1.383,2.41,1.383c1.207,0,1.99-0.461,2.351-1.383
	c0.384-0.92,0.576-3.086,0.576-6.489v-7.797h16.166v2.416c0,6.431-0.461,10.989-1.384,13.672c-0.894,2.694-2.898,5.048-6.027,7.073
	c-3.098,2.023-6.925,3.036-11.485,3.036c-4.734,0-8.638-0.863-11.711-2.577c-3.078-1.716-5.114-4.083-6.108-7.105
	c-1.005-3.044-1.5-7.618-1.5-13.714V41.069c0-4.48,0.158-7.838,0.461-10.067c0.307-2.252,1.22-4.415,2.729-6.493
	c1.531-2.074,3.647-3.7,6.334-4.874c2.716-1.207,5.829-1.802,9.341-1.807c4.762,0,8.688,0.92,11.788,2.764
	c3.101,1.842,5.131,4.148,6.109,6.913c0.971,2.742,1.454,7.018,1.454,12.833L361.361,46.251"/>
<rect id="rect29" x="369.129" y="19.137" fill="#FFFFFF" width="16.174" height="62.188"/>
<polyline id="polyline31" fill="#FFFFFF" points="426.333,19.132 426.333,31.578 416.735,31.578 416.735,81.324 400.559,81.324 
	400.559,31.578 390.993,31.578 390.993,19.132 426.333,19.132 "/>
<path id="path33" fill="#FFFFFF" d="M468.41,19.132l-11.786,39.682v22.51H441.63v-22.51l-11.371-39.682h14.874
	c2.326,12.115,3.637,20.271,3.914,24.467c0.893-6.627,2.396-14.784,4.496-24.467H468.41"/>
<path id="path35" fill="#FFFFFF" d="M508.325,59.116c-0.816-7.04-1.628-15.733-2.453-26.08c-1.646,11.887-2.665,20.578-3.071,26.08
	H508.325 M516.898,19.132l9.253,62.192H509.6l-0.808-11.179h-5.803l-0.957,11.179h-16.75l8.221-62.192H516.898L516.898,19.132z"/>
<line id="line37" fill="none" stroke="#FFFFFF" stroke-width="11.7184" stroke-miterlimit="10" x1="536.869" y1="81.324" x2="536.869" y2="68.647"/>
<polyline id="polyline39" fill="#FFFFFF" points="549.338,19.132 576.722,19.132 576.722,31.578 565.506,31.578 565.506,43.37 
	575.496,43.37 575.496,55.202 565.506,55.202 565.506,81.324 549.338,81.324 549.338,19.132 "/>
<line id="line41" fill="none" stroke="#FFFFFF" stroke-width="11.7157" stroke-miterlimit="10" x1="582.45" y1="81.324" x2="582.45" y2="68.647"/>
<path id="path43" fill="#FFFFFF" d="M632.686,46.251H616.51v-10.83c0-3.148-0.177-5.109-0.534-5.877
	c-0.331-0.794-1.095-1.193-2.264-1.193c-1.337,0-2.185,0.475-2.537,1.423c-0.362,0.949-0.534,2.996-0.534,6.146v28.884
	c0,3.025,0.172,4.995,0.534,5.915c0.354,0.922,1.165,1.383,2.418,1.383c1.204,0,1.981-0.461,2.343-1.383
	c0.39-0.92,0.574-3.086,0.574-6.489v-7.797h16.176v2.416c0,6.431-0.463,10.989-1.386,13.672c-0.892,2.694-2.907,5.048-6.031,7.073
	c-3.098,2.023-6.924,3.036-11.485,3.036c-4.734,0-8.635-0.863-11.711-2.577c-3.075-1.716-5.109-4.083-6.106-7.105
	c-1.002-3.044-1.5-7.618-1.5-13.714V41.069c0-4.48,0.154-7.838,0.454-10.067c0.309-2.252,1.223-4.415,2.736-6.493
	c1.54-2.074,3.645-3.7,6.331-4.874c2.719-1.207,5.829-1.802,9.337-1.807c4.757,0,8.688,0.92,11.795,2.764
	c3.098,1.842,5.132,4.148,6.103,6.913c0.976,2.742,1.46,7.018,1.466,12.833v5.913"/>
<g id="g45">
	
		<line id="line47" fill="none" stroke="#FFFFFF" stroke-width="11.7099" stroke-miterlimit="10" x1="644.463" y1="81.324" x2="644.463" y2="68.647"/>
	<path id="path49" fill="#231F20" d="M0.208,601.118c11.077-3.068,33.607-6.148,65.353-4.951
		c18.769,0.709,37.497,9.006,52.151,11.938c12.628,2.525,25.659-1.4,34.75-4.742c0.781,1.639,1.518,3.289,2.22,4.932
		c4.64,10.873-0.611,30.654-9.161,40.906c-8.547,10.262-8.688,8.469-12.335,14.164c-5.045,7.881-0.212,14.338-0.212,14.338
		c5.571,9.158,17.729,0.326,17.75,0.314c4.829-2.512,17.643-8.584,27.214-10.307c8.472-1.521,24.372-4.395,34.7-5.092
		c11.075-0.736,14.508-0.078,17.22,2.756c2.197,2.297,3.142,4.6,3.616,6.67c-4.794,3.426-18.318,11.756-47.348,21.209
		c-38.095,12.406-55.216,7.541-67.235,2.359c-12.017-5.188-32.44-13.912-54.273-9.666c-21.833,4.238-46.26,10.754-54.275,15.471
		c-8.011,4.715-8.25,4.949-8.25,4.949s1.562-12.408,13.586-25.137c12.02-12.725,34.411-22.537,50.117-24.66
		c15.706-2.117,31.882-4.006,41.312-5.658c9.425-1.654,13.908-3.064,13.908-3.064s-16.655-8.398-26.55-17.35
		c-9.899-8.963-29.934-20.039-40.928-22.393c-10.989-2.359-17.59-3.537-25.131-3.537s-15.94-0.154-20.657-0.854
		C3.037,603.002-0.972,601.827,0.208,601.118"/>
	<path id="path51" fill="#FAA61A" d="M153.999,672.684c5.251-2.684,14.654-7.08,31.874-10.379c20.957-4.014,33.4-4.893,43.476-3.543
		c8.179,1.104,9.037,10.637,9.149,10.594c1.953-0.859,8.07-19.02-5.979-25.123c-13.568-5.896-73.269,6.592-73.269,6.592
		s-15.918-0.086-20.187,13.266c-4.276,13.354,7.347,12.078,7.347,12.078S149.229,675.625,153.999,672.684"/>
	<path id="path53" fill="#231F20" d="M799.791,602.063c-11.079-3.068-33.609-6.148-65.354-4.953
		c-18.767,0.705-37.496,9.002-52.15,11.934c-12.624,2.525-25.658-1.396-34.748-4.744c-0.781,1.645-1.52,3.299-2.22,4.939
		c-4.643,10.873,0.608,30.658,9.159,40.91c8.548,10.256,8.688,8.467,12.334,14.154c5.053,7.881,0.216,14.336,0.216,14.336
		c-5.572,9.17-17.733,0.33-17.746,0.326c-4.832-2.52-17.646-8.594-27.222-10.307c-8.468-1.527-24.369-4.404-34.699-5.098
		c-11.07-0.73-14.508-0.08-17.219,2.758c-2.196,2.299-3.137,4.598-3.621,6.664c4.801,3.43,18.319,11.762,47.354,21.211
		c38.093,12.41,55.218,7.545,67.229,2.361c12.024-5.188,32.44-13.906,54.273-9.67c21.842,4.246,46.27,10.758,54.282,15.471
		c8.009,4.725,8.247,4.953,8.247,4.953s-1.57-12.408-13.582-25.133c-12.023-12.73-34.412-22.545-50.116-24.664
		c-15.704-2.121-31.885-4.006-41.31-5.652c-9.431-1.654-13.908-3.068-13.908-3.068s16.644-8.395,26.545-17.35
		c9.896-8.961,29.938-20.035,40.922-22.398c10.991-2.354,17.597-3.531,25.142-3.531c7.541,0,15.938-0.15,20.65-0.854
		C796.958,603.948,800.973,602.766,799.791,602.063"/>
</g>
<path id="path55" fill="#FAA61A" d="M646.007,672.684c-5.251-2.684-14.653-7.08-31.876-10.379
	c-20.955-4.014-33.396-4.893-43.476-3.543c-8.182,1.104-9.037,10.637-9.151,10.594c-1.955-0.859-8.066-19.02,5.975-25.123
	c13.576-5.896,73.277,6.592,73.277,6.592s15.911-0.086,20.191,13.266c4.271,13.354-7.352,12.078-7.352,12.078
	S650.782,675.625,646.007,672.684"/>
<path id="path57" fill="#231F20" d="M399.405,540.68c-19.727,0.01-41.252-0.482-85.798,1.953
	c-44.696,2.438-84.629,7.078-106.979,9.4c-22.343,2.322-49.702,7.082-58.124,11.48c-8.428,4.393-4.884,10.01-1.829,15.508
	c3.049,5.494,10.374,16.854,15.013,27.721c4.644,10.867,0.267,31.453-9.154,40.908c-9.385,9.416-18.12,16.438-13.356,25.516
	c0.048,0.1,1.721-11.287,14.698-16.479c7.993-3.203,12.227-4.359,19.249-5.416c10.97-1.658,25.685-2.729,38.473-4.396
	c12.787-1.668,39.871-3.85,53.203-5.387c13.334-1.525,85.801-5.656,136.354-6.145c50.563,0.488,120.716,4.617,134.051,6.145
	c13.326,1.537,40.418,3.719,53.201,5.387c12.792,1.668,27.503,2.738,38.473,4.396c7.021,1.057,11.256,2.213,19.247,5.416
	c12.981,5.191,14.649,16.576,14.693,16.479c4.773-9.076-3.972-16.1-13.354-25.516c-9.42-9.455-13.797-30.041-9.15-40.908
	c4.634-10.867,11.963-22.227,15.016-27.721c3.054-5.498,6.593-11.115-1.831-15.508c-8.428-4.398-35.776-9.158-58.13-11.48
	c-22.345-2.322-62.277-6.963-106.972-9.4C441.855,540.198,419.135,540.69,399.405,540.68"/>
<path id="path59" fill="#FFFFFF" d="M215.219,587.545l-0.611-5.324c-0.315-2.791-0.243-5.113,0.212-6.977
	c0.481-1.871,1.456-3.51,2.934-4.941c1.496-1.438,3.234-2.479,5.218-3.129l0.488,4.264c-1.355,0.992-2.047,2.195-2.083,3.613
	l2.458-0.275l1.324,11.637L215.219,587.545"/>
<polyline id="polyline61" fill="#FFFFFF" points="261.158,563.526 262.301,575.43 253.109,576.327 257.692,623.93 242.21,625.426 
	237.63,577.807 228.477,578.694 227.327,566.784 261.158,563.526 "/>
<polyline id="polyline63" fill="#FFFFFF" points="302.474,560.872 306.123,620.565 290.604,621.514 289.066,596.446 
	284.422,596.731 285.958,621.799 270.433,622.745 266.781,563.061 282.302,562.108 283.608,583.452 288.259,583.167 
	286.949,561.825 302.474,560.872 "/>
<polyline id="polyline65" fill="#FFFFFF" points="309.813,560.458 335.72,559.315 336.238,571.274 325.869,571.731 326.365,583.053 
	336.073,582.633 336.569,594 326.859,594.422 327.438,607.559 338.842,607.065 339.362,619.024 312.422,620.196 309.813,560.458 "/>
<polyline id="polyline67" fill="#FFFFFF" points="387.78,558.418 387.889,570.383 378.653,570.463 379.068,618.299 363.521,618.438 
	363.102,570.6 353.901,570.688 353.798,558.711 387.78,558.418 "/>
<polyline id="polyline69" fill="#FFFFFF" points="406.874,558.047 407.398,617.85 391.846,617.981 391.328,558.184 406.874,558.047 
	"/>
<path id="path71" fill="#FFFFFF" d="M450.336,581.133l-15.541-0.408l0.137-5.426c0.088-3.43,0-5.576-0.27-6.438
	c-0.277-0.871-0.966-1.32-2.073-1.355c-0.953-0.018-1.624,0.334-1.98,1.063c-0.362,0.729-0.593,2.615-0.671,5.67l-0.75,28.691
	c-0.063,2.686,0.058,4.467,0.375,5.332c0.33,0.855,1.002,1.281,2.038,1.313c1.13,0.025,1.901-0.432,2.325-1.385
	c0.445-0.947,0.697-2.811,0.776-5.588l0.186-7.096l-3.142-0.082l0.238-9.086l18.205,0.48l-0.839,32.09l-9.781-0.258l-1.328-4.32
	c-1.116,1.818-2.493,3.172-4.141,4.068c-1.623,0.861-3.528,1.268-5.718,1.219c-2.611-0.072-5.044-0.764-7.303-2.08
	c-2.233-1.346-3.914-2.957-5.048-4.863c-1.135-1.898-1.818-3.877-2.065-5.93c-0.232-2.072-0.305-5.168-0.193-9.281l0.459-17.758
	c0.149-5.709,0.568-9.848,1.253-12.42c0.685-2.57,2.507-4.887,5.468-6.953c2.981-2.094,6.791-3.068,11.424-2.951
	c4.554,0.117,8.304,1.154,11.261,3.107c2.956,1.949,4.854,4.227,5.696,6.834c0.838,2.584,1.195,6.33,1.076,11.227L450.336,581.133"
	/>
<polyline id="polyline73" fill="#FFFFFF" points="458.044,559.219 483.951,560.354 483.429,572.305 473.06,571.852 472.563,583.178 
	482.274,583.606 481.775,594.973 472.068,594.547 471.499,607.688 482.9,608.184 482.379,620.139 455.438,618.961 458.044,559.219 
	"/>
<path id="path75" fill="#FFFFFF" d="M505.329,571.801l-0.813,13.277c1.738,0.104,2.979-0.051,3.697-0.48
	c0.741-0.445,1.188-1.988,1.359-4.617l0.193-3.281c0.114-1.895-0.158-3.148-0.799-3.785
	C508.333,572.284,507.125,571.913,505.329,571.801 M490.432,560.641l10.991,0.67c7.316,0.451,12.258,1.039,14.8,1.764
	c2.577,0.729,4.595,2.303,6.076,4.732c1.5,2.418,2.104,6.164,1.8,11.252c-0.291,4.648-1.063,7.73-2.312,9.254
	c-1.254,1.531-3.588,2.35-6.989,2.463c3.019,0.947,5.021,2.1,6.001,3.443c0.979,1.342,1.563,2.563,1.738,3.66
	c0.203,1.07,0.163,4.016-0.143,8.826l-0.957,15.748l-14.41-0.883l1.213-19.836c0.188-3.191,0.053-5.191-0.414-5.98
	c-0.446-0.801-1.739-1.256-3.87-1.389l-1.655,26.916l-15.519-0.947L490.432,560.641z"/>
<path id="path77" fill="#FFFFFF" d="M564.165,585.018l-14.376-1.391l0.419-4.41c0.199-2.051,0.142-3.385-0.167-3.984
	c-0.313-0.598-0.9-0.936-1.761-1.025c-0.939-0.086-1.677,0.225-2.241,0.939c-0.534,0.711-0.883,1.844-1.033,3.389
	c-0.188,1.988-0.062,3.506,0.38,4.559c0.415,1.059,1.756,2.418,4.021,4.063c6.495,4.762,10.511,8.535,12.051,11.332
	c1.535,2.789,2.025,7.107,1.46,12.939c-0.405,4.242-1.204,7.32-2.404,9.232c-1.174,1.92-3.252,3.42-6.227,4.521
	c-2.974,1.07-6.349,1.424-10.117,1.066c-4.147-0.402-7.616-1.527-10.405-3.381c-2.767-1.85-4.479-4.031-5.162-6.541
	c-0.671-2.518-0.789-6.002-0.365-10.467l0.38-3.895l14.375,1.383l-0.696,7.244c-0.217,2.23-0.155,3.688,0.176,4.359
	c0.354,0.672,1.042,1.064,2.078,1.164c1.028,0.096,1.823-0.229,2.393-0.996c0.587-0.752,0.962-1.938,1.121-3.531
	c0.34-3.5,0.078-5.838-0.772-7.012c-0.873-1.17-3.115-3.203-6.729-6.102c-3.601-2.918-5.962-5.014-7.104-6.283
	c-1.143-1.273-2.025-2.969-2.665-5.088c-0.613-2.105-0.772-4.744-0.463-7.912c0.437-4.555,1.337-7.834,2.683-9.83
	c1.391-1.994,3.434-3.457,6.146-4.379c2.709-0.953,5.904-1.258,9.584-0.906c4.016,0.396,7.373,1.375,10.063,2.943
	c2.724,1.57,4.439,3.396,5.158,5.473c0.741,2.047,0.878,5.439,0.429,10.17L564.165,585.018"/>
<path id="path79" fill="#FFFFFF" d="M581.276,569.045l-0.608,5.324c-0.309,2.76-0.9,5.01-1.77,6.75
	c-0.856,1.709-2.193,3.094-3.968,4.158c-1.752,1.039-3.685,1.66-5.789,1.869l0.489-4.303c1.563-0.633,2.516-1.641,2.868-3.018
	l-2.493-0.281l1.328-11.635L581.276,569.045"/>
<polyline id="polyline81" fill="#FFFFFF" points="581.554,150.704 602.218,149.036 613.369,167.16 613.085,199.828 603.33,228.542 
	589.09,238.333 575.417,238.053 573.47,235.798 570.968,224.933 554.514,217.674 536.914,190.041 543.337,181.948 563.706,162.159 
	581.554,150.704 "/>
<path id="path83" fill="#FFFFFF" d="M263.982,406.846c0.582,4.441,2.901,7.148,2.901,7.148l41.528,2.703l37.091-28.398
	l32.456-35.542l13.902-7.144l-1.925,9.844c0,0-1.356,3.863-4.445,11.011c-3.091,7.148-24.536,73.6-24.536,73.6l-26.075,24.924
	c0,0-43.468-9.078-44.235-11.01c-0.772-1.936-24.536-24.152-24.536-24.152l-10.821-18.932l2.513-5.209
	C257.8,405.69,260.697,402.784,263.982,406.846"/>
<path id="path85" fill="#FFFFFF" d="M209.878,285.117l3.221,6.294l6.696,42.739l12.183-5.237v9.919l5.235,19.834l-16.613,5.083
	c0,0-3.846-3.69-4.384-5.854c-0.786-3.153-16.07-15.858-16.07-15.858l-5.269-29.736l3.067-19.276l2.012-9.118l3.627-4.83
	L209.878,285.117"/>
<path id="path87" fill="#FFFFFF" d="M360.719,278.866c4.902,8.596,6.773,20.854,16.253,31.046c-2.129-0.858-5.218-0.541-7.018-1.399
	c-2.908-1.456-4.796-4.629-6.881-4.629c-2.078,0-1.78,0.71-2.506,1.406v2.305c1.039,3.442,7.139,3.38,10.563,4.834
	c2.489,1.039,5.884,3.98,8.527,6.149c-4.62-0.583-11.597-3.894-13.674-3.894c-5.502,0-5.757,5.372-9.223,11.616
	c-0.536-4.536-9.111-8.852-11.468-9.961l-1.328,1.328c2.639,3.854,0.132,11.554,8.229,12.094v2.983
	c-3.407,2.625-6.426,6.471-10.063,8.964c-4.672,3.217-10.766,5.273-15.655,9.286v2.923c2.265,0.655,5.454-0.194,8.934-0.163
	c0.966,0.922,1.088,0.384,1.088,2.462c0,8.613-18.069,9.141-20.351,9.141c-16.406,0-72.501-13.112-75.923-14.294v-2.992
	c13.778-5.531,26.298-23.125,23.7-35.379c-0.514-2.387,0.307-5.07,0.525-7.929c2.919,1.686,6.424,4.101,8.503,4.101
	c2.078,0,2.142-0.633,2.607-1.324c-1.147-6.912,4.355-18.806,13.081-20.88c6.438-1.454,14.129-1.873,21.367-3.389
	c-0.09-0.569-1.667-1.151-2.301-1.997c-1.048-1.677-0.238-3.371-1.035-4.979c-0.786-0.776-0.082-0.655-2.156-0.655
	c-2.078,0-2.42,1.03-4.079,1.341c-2.493,0.417-5.097-0.441-7.382,0.494c-11.11,4.88-29.343,9.597-29.859,23.029
	c-2.061-0.821-3.614-0.781-7.567-1.622l-1.374,1.337c1.599,2.189,4.993,4.492,4.993,6.57c0,7.79-24.507,12.878-27.413,12.878
	c-3.217,0-5.549-0.724-8.253-5.712h12.719c5.919-0.104,15.922-7.409,13.279-13.862c3.416,0.474,5.01-3.561,7.428-5.937
	c5.761-0.135,8.783-9.141,11.693-12.357c1.138-1.249,4.207-1.699,5.247-3.466c1.143-1.871,2.449-9.33,6.74-10.076
	c0,0,0.154,1.983,0.122,3.488c0.741,0.695,0.033,0.574,2.111,0.574s4.772-3.268,8.209-5.286c5.109,0.298,12.973-2.191,15.046-2.191
	c2.083,0,4.988,1.661,7.063,1.661c2.079,0,4.384-0.785,6.548-1.599v4.401c0.099,2.078-2.393,3.014-2.393,5.087
	c0,3.528,2.803,2.91,3.32,2.91c3.945,0,10.036-5.526,13.507-10.775h10.063c2.078-0.024,7.541,3.709,10.343,6.094
	C356.386,274.123,358.722,277.653,360.719,278.866"/>
<path id="path89" fill="#FAA61A" d="M224.058,198.833l16.983-21.786l15.005-18.083l23.631-12.06l37.409-17.604l24.734-11.446
	l22.397-5.408l24.119,2.946l40.488,3.082l11.569-2.469l10.216,3.702l34.457,11.439l25.345,12.675l17.479,5.414l8.484,0.614
	c0,0,11.442,7.26,30.765,3.082c19.317-4.181-4.184,14.391-4.184,14.391l-15.753,11.574l-13.771,9.593l16.242,11.579l7.881,8.357
	c0,0-0.627,4.794,6.642,6.027c7.263,1.233,9.593,4.931,9.593,4.931l-7.749,1.097l16.856,9.114c0,0-2.943-2.332-6.032,2.462
	c-3.075,4.798-2.468,6.647-2.468,6.647l13.913,1.712l8.494,29.045l-2.472,49.603c0,0-2.943,22.749-2.943,28.293
	c0,5.548-9.11,22.881-9.11,33.848c0,10.957-5.414,30.277-5.414,30.277l-5.405,1.709l-18.087,18.227l-14.525,19.32l-9.111,8.975
	l-10.21,22.402l-13.291,19.314l-10.344-21.166l-6.026,4.313l-3.565,33.846l-5.546,2.943l-16.233-4.795l-10.343-25.346l-8.979-6.031
	l-6.023-9.723l-7.876,4.176l-4.188,19.455l-10.339-19.455l-10.835-11.441l-11.567-2.332l-2.945-16.375l-8.5,6.652l-4.799,13.898
	l-3.075,6.65l-5.414,8.494l-3.564,6.031l-2.462,7.26l-9.114,8.355l-4.179,9.115l-10.826,4.176l-3.695-4.176l-6.032,4.176
	l-11.44,2.467l-15.755-2.467l-15.002-5.41l-7.885-6.027l-14.521-6.027l-0.613-11.441l-2.469-11.578c0,0-3.563-13.289-1.096-33.227
	c1.566-12.668,10.206-13.77,10.206-13.77l71.255,36.172l27.812-45.9l16.375-56.239l2.945-13.778L366.688,340.1l15.621-19.94
	l-7.261-10.206c0,0-13.158-23.5-14.392-32.615c-1.233-9.107-32.745-19.315-32.745-19.315l-3.562,13.288l-4.794,5.414l-11.581,5.412
	l-10.826-2.332l-19.936,12.062l-7.261,9.59l-9.593,3.082l-9.728-6.027l-8.494,8.979l-18.083,3.08l-6.647-16.993l1.849-12.055
	l-1.849-42.203l1.229-29.047L224.058,198.833"/>
<path id="path91" fill="#FFFFFF" d="M263.982,406.846c0.582,4.441,2.901,7.148,2.901,7.148l41.528,2.703l37.091-28.398
	l32.456-35.542l13.902-7.144l-1.925,9.844c0,0-1.356,3.863-4.445,11.011c-3.091,7.148-24.536,73.6-24.536,73.6l-26.075,24.924
	c0,0-43.468-9.078-44.235-11.01c-0.772-1.936-24.536-24.152-24.536-24.152l-10.821-18.932l2.513-5.209
	C257.8,405.69,260.697,402.784,263.982,406.846"/>
<path id="path93" fill="#FFFFFF" d="M209.878,285.117l3.221,6.294l6.696,42.739l12.183-5.237v9.919l5.235,19.834l-16.613,5.083
	c0,0-3.846-3.69-4.384-5.854c-0.786-3.153-16.07-15.858-16.07-15.858l-5.269-29.736l3.067-19.276l2.012-9.118l3.627-4.83
	L209.878,285.117"/>
<path id="path95" fill="#FFFFFF" d="M364.84,209.65c3.949-0.208,5.747,0.064,12.67,8.105c6.005,6.972-3.944,10.376-3.944,10.376
	l-15.159,2.286l-0.212-14.952C358.195,215.465,360.899,209.859,364.84,209.65"/>
<path id="path97" fill="#FFFFFF" d="M255.433,207.808l-11.446-7.739l-13.5-0.258c0,0-2.716,0.086-4.655,3.153
	c-1.937,3.069-7.31,18.111-7.31,18.111s5.2,11.038,5.816,14.12c0.618,3.08,3.554,16.604,4.485,17.109
	c4.875,2.652,14.071-17.778,18.246-20.247c4.185-2.462,18.702-16.371,18.702-16.371l-1.229-10.21L255.433,207.808"/>
<path id="path99" fill="#FFFFFF" d="M360.719,278.866c4.902,8.596,6.773,20.854,16.253,31.046c-2.129-0.858-5.218-0.541-7.018-1.399
	c-2.908-1.456-4.796-4.629-6.881-4.629c-2.078,0-1.78,0.71-2.506,1.406v2.305c1.039,3.442,7.139,3.38,10.563,4.834
	c2.489,1.039,5.884,3.98,8.527,6.149c-4.62-0.583-11.597-3.894-13.674-3.894c-5.502,0-5.757,5.372-9.223,11.616
	c-0.536-4.536-9.111-8.852-11.468-9.961l-1.328,1.328c2.639,3.854,0.132,11.554,8.229,12.094v2.983
	c-3.407,2.625-6.426,6.471-10.063,8.964c-4.672,3.217-10.766,5.273-15.655,9.286v2.923c2.265,0.655,5.454-0.194,8.934-0.163
	c0.966,0.922,1.088,0.384,1.088,2.462c0,8.613-18.069,9.141-20.351,9.141c-16.406,0-72.501-13.112-75.923-14.294v-2.992
	c13.778-5.531,26.298-23.125,23.7-35.379c-0.514-2.387,0.307-5.07,0.525-7.929c2.919,1.686,6.424,4.101,8.503,4.101
	c2.078,0,2.142-0.633,2.607-1.324c-1.147-6.912,4.355-18.806,13.081-20.88c6.438-1.454,14.129-1.873,21.367-3.389
	c-0.09-0.569-1.667-1.151-2.301-1.997c-1.048-1.677-0.238-3.371-1.035-4.979c-0.786-0.776-0.082-0.655-2.156-0.655
	c-2.078,0-2.42,1.03-4.079,1.341c-2.493,0.417-5.097-0.441-7.382,0.494c-11.11,4.88-29.343,9.597-29.859,23.029
	c-2.061-0.821-3.614-0.781-7.567-1.622l-1.374,1.337c1.599,2.189,4.993,4.492,4.993,6.57c0,7.79-24.507,12.878-27.413,12.878
	c-3.217,0-5.549-0.724-8.253-5.712h12.719c5.919-0.104,15.922-7.409,13.279-13.862c3.416,0.474,5.01-3.561,7.428-5.937
	c5.761-0.135,8.783-9.141,11.693-12.357c1.138-1.249,4.207-1.699,5.247-3.466c1.143-1.871,2.449-9.33,6.74-10.076
	c0,0,0.154,1.983,0.122,3.488c0.741,0.695,0.033,0.574,2.111,0.574s4.772-3.268,8.209-5.286c5.109,0.298,12.973-2.191,15.046-2.191
	c2.083,0,4.988,1.661,7.063,1.661c2.079,0,4.384-0.785,6.548-1.599v4.401c0.099,2.078-2.393,3.014-2.393,5.087
	c0,3.528,2.803,2.91,3.32,2.91c3.945,0,10.036-5.526,13.507-10.775h10.063c2.078-0.024,7.541,3.709,10.343,6.094
	C356.386,274.123,358.722,277.653,360.719,278.866"/>
<path id="path101" fill="#FFFFFF" d="M341.696,221.729h2.97c2.414,10.625,10.727,13.211,17.996,13.211
	c2.074,0,6.544-1.65,10.343-2.255c-3.449,3-7.669,5.536-10.782,6.954c0.811,1.346,1.271,1.941,3.346,1.941
	c7.687,0,16.612-10.793,21.182-10.793c2.078,0,4.446,1.781,7.049,4.472c-4.586,13.213-20.064,16.492-29.063,17.952l-36.554-6.641
	c-2.521,0.406-6.525,4.033-9.919,3.084c0.932-2.33,12.626-7.243,14.076-7.243c2.078,0,10.382,2.495,12.461,2.495
	c2.078,0,5.27-0.81,7.488-1.328c-5.062-4.176-14.96-6.669-14.96-12.792C337.328,228.709,339.885,224.326,341.696,221.729"/>
<path id="path103" fill="#FFFFFF" d="M239.753,329.636c1.193,2.773,4.419,5.938,7,8.99h-6.363c-0.962-0.808-2.743-1.518-2.743-3.592
	C237.648,332.961,238.52,331.525,239.753,329.636"/>
<path id="path105" fill="#FFFFFF" d="M280.116,366.327c8.536,2.371,20.342,5.877,28.903,5.868
	c-5.075,10.067-5.336,14.526-5.087,22.153c-6.619-2.235-11.667-14.715-12.573-21.778
	C288.083,367.979,282.539,372.379,280.116,366.327"/>
<path id="path107" fill="#FFFFFF" d="M233.556,368.733h6.067c2.074-0.064,2.747,1.637,3.42,1.948
	c1.233,4.108,2.039,9.022,4.465,14.473c-2.427-0.62-14.012-8.069-13.952-11.803V368.733"/>
<path id="path109" fill="#231F20" d="M586.893,285.582c-0.503-0.706-0.794-1.637-1.35-1.54c-0.688-3.914-1.58-7.384-3.48-10.049
	c-1.95,0.863-3.43,0.818-4.6,0.988c1.072,3.579,2.904,7.673,3.994,10.61v0.009c0.551,1.465,0.913,2.643,0.913,3.336
	c0,2.074,0.119,1.778-0.419,2.489c-0.534-0.71-0.825-2.489-2.908-2.489c-2.069,0-6.513,3.389-7.241,5.462
	c-1.659,4.567-2.727,12.704-2.7,14.777v2.802c10.25,6.177,7.695,17.103,11.856,25.932l1.368-0.818
	c0.044-2.888-0.786-4.966-0.786-7.045c0-2.177,2.4-4.458,5.216-4.609l1.436,1.375c-1.639,3.914-3.327,9.465-3.327,11.543
	c0,2.081,0.864,4.34,1.98,6.22l1.667-1.655c0.212,0.596,0.43,1.238,0.642,1.902h0.009c1.178,3.656,2.343,7.976,2.343,9.734
	c0,3.428-1.871,8.788,1.139,12.312c1.766,2.08,5.927,5.133,8.005,5.133c0.824,0,6.637-2.594,6.592-7.17v-7.695h-3.019
	c-0.967,0.867-2.625,1.694-3.243,2.414c-3.291-1.405-2.926-10.475-2.846-14.727c0.014-0.401,0.019-0.764,0.019-1.07
	c0-2.074-0.01-7.803,0.538-11.645c2.077,2.29,4.998-0.832,7.235-1.663c3.119,4.167,1.871,9.985,3.636,14.378h0.006
	c0.987,2.453,2.938,4.461,7.135,5.471c-0.256-1.902-0.525-2.989-0.856-4.734l-0.039-0.741c-1.007-5.48-2.236-10.301-3.336-14.866
	c-0.939-4.048,0.834-9.09,0.322-13.244c-0.212-1.661-1.47-3.563-2.176-4.102c1.535-1.37,2.074-2.905,2.73-2.945l3.322,3.266h4.638
	c-0.524-3.921-5.922-11.534-8.616-11.534c-2.074,0-0.421,1.663-2.493,1.663c-2.078,0-5.485-4.818-7.891-7.867
	c0.706-0.561,2.074-1.275,2.749-1.302c1.522,1.569,3.481,5.015,5.561,5.015c2.074,0,3.321-2.493,5.396-2.493
	c2.069,0,5.172-0.046,7.047-1.13c-1.845-3.258-4.575-6.819-7.156-9.688c-0.967-1.081-1.919-2.061-2.799-2.888
	c1.961-1.785,3.682-1.864,4.975-4.205c-1.774-1.904-3.358-2.625-4.201-3.887c1.302,0.201,2.965,0.201,4.964,0.029
	c-0.775-2.871-2.453-4.583-3.265-5.928c1.456-0.589,2.506-2.621,2.466-3.647c-5.122-3.475-10.012-6.709-13.285-10.424
	c2.942,0.236,6.267,1.893,8.349,1.893c2.073,0,2.369-0.117,3.317-1.242c-1.778-1.957-3.356-4.342-4.209-5.593
	c2.136,0.194,2.965,1.026,5.048,1.026c2.073,0,1.239-0.832,2.36-0.953c0.128-1.125-0.834-2.259-0.834-2.259
	c-3.86-1.637-3.106-6.665-3.587-8.251c-3.945-2.594-8.949-4.262-12.907-6.488c1.603-2.169,4.929-5.496,6.381-7.826
	c5.564,1.672,11.287,3.294,16.892,6.244c-1.431,0.47-3.094,0.47-4.925,1.432v2.893c4.215,4.289,9.244,7.649,12.403,9.835
	c-2.378,2.175-4.708,3.733-7.426,4.69v2.879c0.22,0.424,10.325,16.077,13.749,15.991h3.564c-0.771-2.952-2.483-5.544-4.091-7.731
	l1.293-1.324c7.206,5.123,14.919,13.297,22.39,13.297c2.073,0,1.959-0.128,2.907-1.301c-4.351-2.798-8.389-6.01-10.811-8.993
	c1.441-0.549,2.387-1.458,3.336-2.562c-3.407-4.437-7.634-8.653-11.627-11.656l2.493-2.46c-2.573-3.601-5.939-6.135-9.14-9.167
	c0.711-0.534,2.074-0.415,3.252-0.525v-5.183c0.07-7.477-23.135-28.542-25.688-33.422l0.834-27.322
	c-0.516-14.133-7.161-25.334-20.761-25.334c-15.368,0-57.103,16.613-66.862,16.613c-6.755,0-13.25-7.784-16.291-12.624
	c6.218,1.812,15.877,5.151,17.95,5.151c0.415,0,3.036-0.28,5.388-3.85c-7.713-3.591-14.874-6.912-21.837-10.031
	c-2.281-1.033-5.212-0.527-7.502-1.359c-4.363-1.558-9.027-5.291-13.276-6.954c-13.71-5.398-31.862-11.547-46.158-13.378
	c0.759,2.892,1.565,5.291,1.849,7.678c6.614,2.941,13.22,4.58,18.819,7.598c-0.701,0.481-2.488,0.362-2.488,2.436
	c0,2.074,9.138,14.542,9.138,16.615c0,2.074-0.79,4.337,0.208,6.171c3.143-0.152,10.611-0.631,12.271,3.678
	c-3.178,2.279-8.741,6.35-10.819,6.35c-2.074,0-2.784-1.745-4.443-2.268c-3.217-1.035-6.617-1.904-9.006-3.768
	c-2.604-2.078-9.782-6.217-13.004-6.316c-0.132,2.8,0.706,6.122,0.764,8.395c-3.154,1.509-6.521,1.531-9.199,3.528
	c3.489,2.837,7.621,3.647,11.367,6.851c0.265,3.168,3.587,6.868,3.587,8.942c0,2.078-0.521,1.26-0.521,1.26
	c-2.162-1.604-5.044-1.794-6.288-2.729c-5.705-4.359-3.159-6.42-8.556-6.42c-2.078,0-6.91,1.754-10.153,4.428
	c0.816,4.172-5.511,11.757-6.653,15.81c-0.932,3.217-1.046,6.661-1.558,9.674c-4.369-5.873-7.18-9.145-10.705-9.145
	c-1.05,0-9.558,1.454-9.558,4.152c0,2.078,4.151,4.984,4.151,7.063c0,6.751-9.66,14.535-15.782,14.535
	c-2.079,0-17.026-7.477-19.104-7.477s-3.204,0.126-4.115,1.075c-0.249,3.155,1.169,7.053-3.75,8.898
	c-4.717-2.449-4.596-4.574-4.596-7.063c0-4.256,1.469-4.618,4.984-9.131c0,0,4.179,0.642,4.121,0.574
	c-2.078-2.531-6.113-2.648-6.113-2.648c-4.394,1.686-11.296,4.975-13.374,4.975c-2.079,0-1.664-1.659-3.737-1.659
	c-12.046,0-13.677,22.222-25.348,24.359c-1.158,1.563-1.216,4.419-0.715,5.924c-1.722,3.38-7.79,3.772-10.076,3.772
	c-2.07,0-12.457-4.984-14.53-4.984c-2.079,0-10.844,1.858-12.45,4.686c9.877,4.83,20.728,4.382,29.063,9.891
	c-0.713,0.497-1.54,2.16-2.233,2.881h-13.034c-2.079-0.013-8.408-2.506-10.486-2.506c-2.078,0-6.363,0.85-9.057,1.825
	c-0.289,4.174-4.337,6.479-5.895,6.479c-2.074,0-0.953-4.031-2.098-4.979c-3.627,4.307-9.533,11.625-9.533,13.706
	c0,2.074,0.122,1.95,1.09,2.872c1.82,0.033,3.186-0.09,3.903,0.521c-2.041,4.106-5.494,4.41-8.688,7.821
	c-1.355-2.31-1.474-4.915-4.183-6.647c-3.444,2.034-5.694,1.388-8.583,2.798c-1.604,2.164-3.19,4.256-4.717,6.321
	c-2.98,4.04-5.729,7.967-7.89,12.124c0.949,1.065,1.008,1.957,1.008,1.957h3.742c2.639-3.426,5.213-9.906,7.292-9.906
	c2.074,0,1.249,2.021,1.249,2.021c-6.716,5.765-6.647,13.758-14.956,13.758c-2.074,0-1.78,0.122-2.504-0.551v-3.914
	c0.013-2.074,2.711-5.869,3.022-8.362c0.24-2.281-0.058-4.858,0.24-7.117h0.004c0.216-1.63,0.755-3.095,2.052-4.157
	c0.402,1.044,0.51,2.634,0.949,4.148h0.004c0.161,0.578,0.38,1.143,0.682,1.664c1.017-0.552,1.901-1.112,2.674-1.664v-0.004
	c6.268-4.501,5.363-9.092,10.122-13.123c2.224-0.902,8.503,1.306,8.503-3.885c0-2.074-1.657-2.489-1.725-3.104
	c1.5-0.677,4.187-0.361,5.639-0.979c4.776-2.286,2.769-7.208,5.882-9.493c2.91-2.074,15.124-0.543,15.124-7.604
	c0-2.078-0.827-2.078-0.949-3.199c-4.45-0.121-7.64,0.728-9.886,0.082v-2.16c3.29-4.872,6.562-9.792,10.374-13.831
	c1.771,3.131,1.193,6.652,5.449,6.652c2.074,0,10.383-6.647,12.457-6.647c2.078,0,4.569,2.495,6.647,2.495
	c2.074,0,4.337-2.535,7.243-3.991c2.183-1.035,5.403-0.907,6.755-2.259c2.7-2.696,6.77-8.287,6.77-10.365
	c0-2.079-2.504-7.993-3.525-11.572c-6.334,1.405-5.417,6.846-6.665,8.406c-1.241,1.553-4.761,3.993-4.761,6.071
	c0,2.079,1.026,2.017,1.026,2.017c1.884,0.062,3.248-0.06,3.988,0.635c-0.03,0.675-1.567,2.039-2.263,2.767h-14.694
	c-2.074-0.018-6.122,2.531-8.589,4.21c0.591-2.083,2.213-3.627,3.08-5.538c-0.944-1.059-3.438-1.059-4.148-1.619
	c3.237-3.872,6.643-9.529,6.643-11.607c0-2.074-0.85-3.285-0.646-4.009c1.247-3.221,3.14-7.206,3.14-9.279
	c0-2.079-1.196-2.079-1.196-2.079c-4.519,5.132-9.657,10.495-12.67,16c-1.97,3.737-2.566,8.368-5.472,12.417
	c-1.143,1.661-2.676,3.148-3.208,3.27c0.121-3.031,0.189-5.571,1.125-7.852c1.558-3.634,6.118-7.247,7.779-10.782
	c2.594-5.295,3.133-13.198,9.259-16.211c2.178-1.039,5.549-1.575,6.48-2.819c1.562-2.079,3.717-6.482,3.717-8.556
	c0-2.081-0.949-1.957-1.888-2.87h-2.837c-1.798,1.745-2.518,3.329-3.927,4.121c-0.604-0.715-0.483-1.229-0.483-1.229
	c1.59-2.288,3.32-6.254,3.32-8.333c0-2.074-0.122-1.952-1.121-2.888c-3.108,0.507-11.322,3.81-12.771,8.587
	c-0.728,2.493-0.728,5.118-2.906,7.3c-1.871,1.866-5.626,3.616-5.626,5.694c0,2.074,2.491,1.657,2.491,3.737
	c0,2.286-5.957,9.676-7.651,10.458c0.176-2.149,0.163-3.713,0.917-7.391c-1.156-0.159-2.056-0.984-2.056-0.984
	c-1.057,0.944-1.178,1.652-3.256,1.652c-2.074,0-1.267-0.547-1.267-0.547c1.642-3.005,4.677-6.286,5.505-8.878
	c0.726-2.39-0.581-5.07,0.455-6.524c1.253-1.664,4.862-4.09,4.798-6.164v-3.515c-1.183-0.117-2.014-0.949-2.976-0.931
	c-7.071,5.147-16.9,24.277-16.9,26.98c0,2.074,1.672,4.251,2.508,7.36c-0.724,0.651-0.43,1.359-2.508,1.359
	c-8.097,0-2.489-9.141-11.21-9.141c-2.078,0-9.244,2.509-13.37,3.647c-0.315,0.79-1.997,1.337-1.997,3.416
	c0,2.079,0.827,1.664,0.949,2.784c1.125,0.126,0.71,0.953,2.789,0.953c2.074,0,4.567-4.152,6.645-4.152
	c2.698,0,11.106,4.373,11.243,7.74c-1.573,1.518-3.124,2.272-4.532,3.062c-2.266-2.372-5.052-6.649-7.126-6.649
	c-1.664,0-4.984,3.014-4.984,6.23c0,2.074-1.582,4.889,3.271,11.684c3.283,3.285,5.033,2.851,7.111,2.851
	c3.841,0,6.259-4.329,8.02-6.817c1.249-1.767,4.276-2.418,5.315-4.183c1.35-2.283,2.791-4.962,4.148-7.276
	c0.496,0.715,0.375,1.279,0.375,1.279c-1.953,5.544-3.204,10.4-9.692,13.862c-0.276,2.689-0.953,4.894-2.518,6.182
	c-2.376,0.28-5.065,1.189-7.45,2.954c-0.263,0.958-0.25,2.577-0.492,3.29c-5.405,3.34-6.621,6.927-10.859,11.519v-1.041
	c1.077-2.575,4.428-5.748,4.37-7.826v-2.678c-7.402-0.331-13.23-14.559-13.23-19.23c0-2.076,3.298-11.911,5.751-19.805h-3.062
	c-0.986,1.758-0.94,3.557-2.083,5.01c-1.97,2.491-5.237,4.953-6.173,6.928c-2.281,4.569-5.231,12.851-5.231,14.93
	c0,2.074-0.832,7.472-0.832,9.551c0,2.078,1.662,12.463,1.662,14.537c0,5.917-1.941,17.901-8.684,21.185
	c-4.467-3.248-16.857-13.297-21.738-13.151h-2.782c5.544,4.653,23.238,13.356,23.238,18.962c0,2.074-4.159,5.816-6.232,5.816
	c-2.073,0-10.533-8.209-15.799-12.461c-1.107,0.953-1.216,1.983-1.216,1.983c-0.016,0.927,1.648,1.341,1.648,3.415
	c0,2.078-0.708,1.37-0.708,1.37c-1.556,0.75-3.029,0.708-5.107,0.708s-22.839-2.493-24.917-2.493s-15.459,2.502-23.251,4.635
	c8.757-0.483,19.1-1.311,21.173-1.311c11.005,0,27.964,2.656,36.136,6.261c-2.765,1.677-5.756-1.006-8.71,2.017h-0.013
	c-0.399,0.41-0.801,0.927-1.203,1.578h14.387c2.389,0.112,4.67,2.29,4.67,5.511c0,2.074-0.6,4.613-2.083,5.399
	c-7.296-3.288-14.775-5.778-22.003-8.728c1.432-0.457,2.489-1.654,2.462-2.643c-0.922-0.966-1.633-1.09-3.711-1.09
	c-2.074,0-7.888,1.664-9.968,1.664c-2.074,0-13.289-1.664-15.362-1.664c-3.329,0-8.287-0.406-12.425,3.91
	c9.553-0.583,13.588-0.594,17.418-0.091c-2.321,1.238-4.58,1.997-6.244,2.412c5.816,0.417,14.956-1.247,17.03-1.247
	c7.062,0,30.444,9.023,33.797,12.245c1.928,10.674,5.246,30.951,5.246,33.025c0,2.96-1.776,5.988-4.311,8.959
	c-4.948,5.798-12.805,11.395-16.167,15.922c-3.846,5.193-6.072,12.342-8.404,18.667c2.092-1.844,20.679-33.167,30.956-33.167
	c2.079,0,3.735,1.249,3.735,3.327s-14.12,14.846-14.069,16.918v2.929h3.019c5.118-5.019,10.067-9.977,13.939-13.202
	c0.56,0.706,1.392,2.368,2.1,2.948c-3.252,4.499-12.461,19.686-12.461,25.708c0,2.08,0.832,2.49,0.94,3.642h3.846
	c3.583-6.985,4.739-19.116,11.693-25.56c3.945-3.633,5.95-4.247,5.95-6.325c0-7.786-4.41-0.399-8.977-9.326
	c-0.388-0.759-0.587-1.595-0.668-2.482v-0.004c-0.309-3.367,1.07-7.464,0.125-10.848c-2.277-1.758-4.604-2.674-4.604-4.748
	c0-2.08,1.663-2.905,1.663-4.986c0-2.074-4.062-4.882-4.79-7.585c-0.832-3.113-1.857-9.028-1.857-11.106
	c0-2.074,0.194-6.325,1.026-9.443c0.728-2.702,3.958-4.262,3.958-6.336c0-0.574-0.814-2.028-0.604-4.17
	c0.09-0.971,0.393-2.078,1.074-3.312c0.483,0.712,0.962,1.5,0.962,1.5c0.421,0.604,0.814,1.229,1.185,1.807h0.004
	c0.642,0.984,1.229,1.82,1.798,2.169c1.736,0.335,3.181,0.22,3.89,0.759c-2.372,2.195-3.735,4.825-3.943,6.592
	c-0.624,4.988-1.871,14.17-1.871,16.249c0,2.078,3.261,4.238,3.885,5.584c3.113,6.122,1.297,13.582,6.442,19.763
	c0.697,0.357,1.719,2.065,3.792,2.065c3.528,0,0.902-6.44,8.373-5.963v3.727c-2.436,2.358-3.969,1.22-5.88,5.187
	c0.177,0.253,1.414,1.452,2.965,3.1c2.937,3.135,7.002,7.916,7.002,10.98c0,5.295-10.455,6.27-12.452,7.399
	c2.601,2.863,5.968,5.388,8.037,6.923c0.263,3.154,1.255,7.175,3.022,9.98c4.673,7.479,14.888,11.826,21.328,11.826
	c2.074,0,2.367-0.124,3.307-1.143c-1.664-6.027-5.802-15.469-5.802-17.547c0-6.75,2.047-3.846,8.066-4.916
	c1.754-1.405,2.504-3.846,3.764-4.694c-0.198,2.138-0.986,4.44-1.849,6.39c3.479,2.725,7.272,4.784,7.998,7.485
	c1.659,6.332,3.621,17.334,3.621,19.407c0,2.078-0.62,7.834-1.139,11.16c-0.209,1.654-1.988,3.021-2.784,3.525
	c-0.79,0.297-1.889,1.518-1.879,2.438c3.665,7.564,19.406,5.576,18.503,15.541c1.58,1.307,3.596,0.707,4.946,1.543
	c2.802,1.664,4.885,5.666,6.963,5.652h18.012c1.526,1.549,3.894,4.166,5.973,4.166c2.078,0,2.065-1.152,2.065-1.152
	c-2.875-4.078-5.804-14.316-5.804-15.877c0-2.074,1.242-2.906,1.904-2.947c3.075,3.635,10.241,7.52,13.464,7.52
	c2.079,0,3.614-0.953,4.536-1.914c0.031-2.658-0.823-5.018-0.137-7.307c4.44-0.131,20.104-1.479,20.104-12.377
	c0-2.074-0.845-2.811-0.673-3.541c2.227-2.41,4.956-3.281,6.105-4.945c4.566-6.541,8.547-13.975,11.66-20.832
	c1.042-2.287-0.364-6.137,1.293-8.209c2.495-3.015,4.437-6.097,7.242-8.908c2.183-2.178,5.803-2.683,8.066-4.766
	c0.362-2.318,0.333-4.708,1.346-7.152c0.591-0.792-0.153-0.625,1.927-0.625c2.073,0,1.367-0.122,2.108,0.574
	c-0.035,2.332-0.538,5.057,0.19,7.441c0.832,2.599,2.264,4.858,2.264,6.932c0,2.083-0.827,14.593,0.13,21.531h3.755l3.104-3.259
	c1.365,3.104,2.152,7.067,2.152,9.146c0,9.135-6.644,11.006-6.644,14.539c0,2.074,2.488,1.654,2.488,3.736
	c0,2.074-5.815,12.041-5.815,14.119c0,2.074,4.315,4.063,6.39,5.605c0.258,2.334,1.085,6.027,1.085,8.102
	c0,2.078-4.147,9.551-6.225,9.551c-2.078,0-1.666-0.832-2.157-0.654c1.093-2.635-1.79-6.818-4.491-6.818
	c-3.113,0-17.03,26.166-17.03,29.486c0,2.074,0.836,1.664,0.936,2.807h3.015c0.875-1.35,4.256-14.852,9.343-14.852
	c2.074,0,2.074,0.832,2.634,0.727c0.697,5.563-0.552,11.369,0.064,16.357c0.212,1.756,2.703,3.682,3.755,3.619
	c0.979-1.824,1.733-4.211,3.031-5.758c1.354,3.102,2.872,6.154,2.979,8.748c0.622,10.811,0.85,13.154,0.174,16.01h4.725
	c-1.385-6.059,3.067-15.264,4.735-20.604c2.118,2.375,4.483,6.234,4.483,8.318c0,2.074-3.323,5.395-3.323,7.469
	c0,2.078,0.869,3.928,1.836,5.771h3.658c1.756-0.828,3.229-2.449,3.834-2.51c2.656,5.336,2.847,12.201,7.753,16.67
	c2.069-3.1-1.09-7.475,2.854-7.475c2.078,0,2.078,0,3.146-0.078c0.984-2.695,0.177-5.316,0.146-20.941
	c0.74-0.693,1.274-1.404,1.91-1.455l1.491,1.5c0.794,3.223,0.794,23.986,1.668,27.002c-3.187,0.844-5.039,4.672-5.039,6.854
	c0,0,0.617,5.395,4.151,5.395c2.079,0,1.54-0.121,2.458-1.086c0.031-1.818-0.009-4.127,0.561-5.566
	c2.153,1.604,4.876,3.338,6.95,3.338c1.77,0,3.326-1.252,3.326-4.578c0-2.074-2.497-12.043-2.497-14.115
	c0-2.078-0.124-3.027,0.335-3.744c2.193,5.57,3.826,11.219,3.945,16.496c4.244,0.018,5.695,2.617,5.695,6.77
	c0,10.586-5.814,4.354-5.814,14.947c0,0.314,7.104-0.342,14.543-3.473c0.393-1.848,0.252-3.262,1.92-4.658
	c1.447-0.182,3.128,0.646,4.897,0.303c2.576-2.24,4.929-3.816,7.63-4.803c0.079-2.734,0.898-5.223,0.898-7.297
	c0-2.078-1.649-12.9-1.963-19.543c-0.313-8.205,0.063-20.305-3.914-28.582h-3.963c-2.436,3.441-5.109,16.352-5.109,18.635
	c0,2.072,1.663,7.061,1.663,9.135c0,2.281,0.83,8.154-2.704,10.434c-0.612-12.951,0.217-17.076,0.105-20.686
	c-10.453-0.855-3.411-11.541-10.427-13.393c-2.696,4.328-4.354,8.477-6.539,12.43c-0.49-0.715-0.781-1.664-1.312-1.529
	c0.732-6.533,2.528-13.658-1.929-16.746c-1.884,0.875-2.819,2.609-3.353,3.324c-0.543-0.715-0.834-1.66-1.373-1.543
	c0.119-5.727-3.203-7.803-3.203-11.75c0-2.074-0.124-0.951,0.479-1.664c1.412,0.791,3.263,1.664,5.335,1.664
	c5.093,0,7.96-12.703,8.76-14.957c3.561,5.842,1.801,19.104,11.326,17.35c-0.149,3.836-0.971,8.076-0.014,12.465h3.854
	c0.975-2.682,1.816-5.252,1.933-6.695c2.907-0.699,6.539-4.006,8.617-4.006s1.328,0.658,1.328,0.658
	c0.75,4.805-1.307,10.182,0.158,14.018c1.646,4.572,4.743,4.531,4.743,7.748c0,2.078-1.663,13.703-1.663,15.783
	c0,2.074,2.493,6.641,2.493,8.725c0,2.068-0.83,5.785-1.549,18.553c1.134,0.137,1.959,0.967,2.951,0.932
	c0.962-0.918,1.796-0.918,2.723-1.885c0.022-4.313,0.737-9.295,1.885-13.338c0.41-1.658,2.294-4.262,2.294-6.344
	c0-2.074-3.321-10.795-3.321-12.875c0-2.078,0.71-3.859,2.012-5.398c1.359,3.096,5.467,5.816,5.467,7.895
	c0,2.08-2.497,3.738-2.497,5.813c0,2.078,1.664,3.738,1.664,5.818s-1.452,6.643-1.452,9.131c0,1.668-1.871,2.91-1.871,4.988
	c0,1.664,2.596,4.307,4.73,5.363c1.076-3.602,1.055-6.863,2.021-9.244c1.351-0.742,3.021-1.582,4.442-2.463
	c1.191-1.729,0.993-3.51,1.412-4.242c1.351-2.174,23.108-37.902,23.108-47.979c0-2.078-2.069-1.656-3.05-1.635
	c-8.226,7.141-13.516,20.867-18.956,32.371c-1.298-3.092-3.464-5.67-5.229-9.721c-2.388-5.295-3.288-11.477-3.495-17.291
	c-0.521-14.115-0.83-14.934-0.83-17.018c0-2.072,0.821-7.807,1.368-11.639c0.415,0.723,0.3,1.357,0.3,1.357
	c-0.013,2.396-0.004,4.941,0.229,6.699c0.671,0.932-1.023,1.789-1.023,1.789h4.69c4.708-4.875,0.676-14.088,7.231-14.373
	c1.293-3.199,2.141-6.547,3.103-9.732c1.333-0.736,3.054-0.775,4.452-1.971c1.293-2.129,2.201-6.76,5.053-10.58
	c0.34-1.758,0.221-3.787-0.481-4.324c1.54-1.369,4.599-1.85,5.438-3.09c2.483-3.848,5.754-7.602,6.688-10.918
	c0.626-2.385-0.521-5.798-0.084-8.006c0.434,2.208,1.268,4.699,2.309,7.434c2.807-0.806,3.469-1.203,3.469-1.203
	c1.235-2.299,2.947-5.395,2.947-7.479c0-2.074-1.664-2.074-1.664-4.152c0-2.695,5.479-17.769,6.16-18.691
	c1.358,3.1,3.146,6.57,7.003,9.103v-3.596c0.128-4.774-0.593-3.894,3.887-9.654c0.512,0.708,0.804,1.663,1.284,1.535v13.1
	c-0.063,2.082-2.55,11.946-2.55,14.024c0,2.074,0.947,2.784,2.033,3.733c2.759-1.729,5.388-4.385,5.921-5.815
	c0.474,0.715,0.769,1.664,1.347,1.591c1.726,5.703-1.02,11.887,5.691,14.021v18.969c-0.044,2.078,1.683,1.777,2.171,2.547
	c1.228,5.129,0.31,13.193,6.777,15.938c-1.535-5.432-2.347-14.016-2.347-16.096c0-2.074,1.663-11.213,1.663-13.291
	c0-2.074-0.317-19.068,0.212-24.89c0.203-2.483,0.622-4.604,0.622-6.679c0-8.521-1.333-18.055-3.469-27.588v-0.009
	c-2.181-9.75-5.206-19.51-8.521-28.24c-0.542-0.862-2.555-1.888-3.675-1.767c-0.128,2.785-0.953,4.863-0.953,6.937
	c0,2.074,2.488,2.493,2.488,4.574c0,2.069-1.857,3.64-2.272,5.304c-0.313,1.56,1.032,3.397,0.609,12.534l-0.04,0.677
	c-0.287,2.888-1.796,3.078-2.863,3.078c-2.074,0-1.373,0.122-2.088-0.565v-8.053c0.014-2.078,2.502-2.592,2.502-4.67
	c0-0.625-1.43-2.738-3.816-4.148c-3.42,4.865-3.345,9.71-3.844,14.341c-0.104,1.065-0.256,2.116-0.479,3.155h-5.405
	c-1.072-1.103-1.801-2.16-2.281-3.146c-0.569-1.174-0.785-2.246-0.785-3.148l-0.83-23.251c0-2.078-0.652-9.286,1.007-13.127
	c1.351-3.113,8.133-4.106,8.133-8.887c0-1.617-2.542-6.615-4.55-10.817h-0.005c-0.568-1.185-1.086-2.303-1.501-3.268
	c-1.494,0.435-2.275,1.225-2.678,3.268c-0.34,1.776-0.406,4.492-0.406,8.739c0,0.832-0.71,2.204-1.178,2.915
	c-1.733-3.764-2.6-7.636-3.776-11.653v-0.004c-0.313-1.061-0.657-2.138-1.037-3.221c-1.897-0.077-4.315,0.759-5.899,0.47
	c-0.759-0.483-2.643-2.211-3.662-2.165c-1.421,1.897-2.542,3.479-3.42,4.92c-1.901,3.14-2.616,5.593-2.616,9.154
	c0,2.078,3.313,8.726,3.313,10.799c0,2.079-2.488,5.816-2.488,7.894c0,2.074,2.488,17.857,2.488,19.936
	c0,2.074-1.24,2.903-1.968,2.919c-2.808-1.62-2.186-6.034-2.186-8.32c0-2.074,0.839-6.23,0.715-9.844
	c-1.968-0.124-4.456-0.953-6.529-0.953c-2.074,0-1.535,0.953-2.479,1.963c0.834,3.539,1.654,8.834,1.654,10.908
	c0,4.47,0.688,7.347-3.08,12.916c-2.353-0.386-3.937,0.428-5.052,1.86c-2.636,3.371-2.715,10.171-4.121,13.103h-6.244l-1.479-1.454
	c0.036-1.5-0.088-3.458-0.819-3.85c3.899-0.04,5.842-4.406,5.842-7.618c0-0.064,0-0.125-0.009-0.181v-0.004
	c-0.094-2.041-1.65-4.446-1.65-6.462c0-2.078-0.123-2.195,0.411-2.908c0.538,0.713,1.248,1.251,1.35,2.407h2.967
	c1.791-1.694,2.748-2.407,2.748-4.481c0-2.078-2.492-9.138-2.492-11.212c0-2.083,3.419-9.509,3.834-13.664
	c0.731-5.919-1.056-12.099,3.282-16.247c1.422,0.79,2.439,1.661,4.515,1.661c2.078,0,2.365-0.117,3.317-1.174
	c-0.868-1.915-2.635-4.531-4.407-6.058c-1.191-0.082-2.462-0.529-3.706-1.09h-0.019c-2.365-1.048-4.62-2.471-5.992-2.471
	c-2.073,0-2.399,0.164-3.063,1.053c-0.159,0.483-0.366,0.958-0.622,1.418v0.004c-1.545,2.811-4.616,5.295-4.616,7.075
	c0,2.074,2.493,9.136,2.493,11.214c0,2.074-0.829,11.144-1.266,15.784c-0.411-3.009-2.065-7.036-2.692-10.46
	c-0.926-4.88,0.729-9.933,0.318-14.912c-0.291-3.117-3.411-6.563-3.801-8.706c-0.025-0.137-0.038-0.271-0.038-0.397
	c0-2.182,7.166-9.553,10.378-9.553c2.083,0,14.539,6.647,16.612,6.647c2.078,0,1.959-0.125,2.907-1.18
	c-5.432-11.358-17.438-8.06-17.438-20.006c0-2.074,0.459-1.247,0.459-1.247c2.334,3.17,7.633,11.634,11.582,11.634
	c2.077,0,2.033-1.002,2.033-1.002v-2.861c-4.195-5.933-8.004-12.741-11.114-18.35c-0.936-1.765-3.182-3.113-4.116-3.32
	c-2.393-0.521-4.779-0.926-6.323-2.228c1.435-0.527,4.037-0.604,5.82-2.597c-5.063-3.629-10.802-8.166-10.802-11.175
	c0-2.078,0.819-2.824,1.565-7.325c-1.152-0.152-1.152-0.984-3.229-0.984c-2.073,0-2.898,2.493-4.293,2.592l-0.737-2.806
	c2.26-0.636,4.911-1.566,6.244-3.109c3.848,5.639,7.188,11.473,10.811,15.784c1.978-1.781,3.636-2.612,4.559-3.579
	c0.035-1.82-2.457-2.652-2.457-4.726c0-2.079,1.653-0.832,1.653-2.91c0-2.074-7.422-15.775-11.153-22.623
	c-1.245-2.288-4.744-2.59-6.298-3.836c3.83-0.543,7.942,0.293,11.434-0.068c3.552-4.576,6.441-3.791,9.761-3.791
	c6.646,0,2.896,0.457,12.244,6.271c1.351,0.832,3.513,0.042,5.074,0.56c3.323,1.042,6.588,4.583,10.008,5.311
	c4.051,0.832,8.335-0.828,12.496-0.307c2.488,0.312,4.62,1.458,6.698,1.458c4.461,0,2.621-3.7,5.52-7.645
	c1.254-1.664,3.385-1.41,4.735-2.762c2.704-2.696,4.659-6.14,8.185-7.697c3.53-1.556,7.457,0.448,9.377-3.177
	c-2.67-1.911-5.807-1.979-7.881-1.979c-12.673,0-18.271,13.288-30.322,13.288c-5.706,0-3.637-5.575-7.483-9.46
	c3.9-1.366,9.381-0.788,13.123-3.385c2.18-1.555,1.973-5.187,3.321-6.122c1.347-0.936,3.693-0.878,5.045-2.229
	c1.861-1.871,3.454-4.617,5.739-6.071c6.02-3.841,14.786-4.004,18.467-11.424c-1.782-1.889-3.317-2.427-3.361-3.082
	c3.317-2.765,6.27-3.076,9.593-3.076c14.944,0,18.682,16.712,18.682,27.823c0,2.074-1.856,18.4-3.617,27.333
	c-2.388,12.146-16.409,30.914-30.229,30.914c-1.452,0-3.376-0.587-4.108-0.276c-3.114,1.346-6.892,5.988-6.892,9.729
	c0,2.074,0.86,3.058,1.129,3.691c3.222,2.054,7.175,7.106,9.258,7.106c2.069,0,2.058-1.125,2.058-1.125
	c-3.46-6.551,2.718-7.848,6.221-12.167c1.342,2.31,2.926,5.815,2.926,7.889c0,2.079,0.009,9.813,0.529,14.173
	c0.31,2.496,0.31,4.936,0.31,7.014c0,2.376-0.429,10.054-2.083,12.435c-0.005,0.009-0.014,0.013-0.018,0.022
	c-0.009-0.009-0.014-0.018-0.022-0.018L586.893,285.582"/>
<path id="path111" fill="#FFFFFF" d="M341.696,221.729h2.97c2.414,10.625,10.727,13.211,17.996,13.211
	c2.074,0,6.544-1.65,10.343-2.255c-3.449,3-7.669,5.536-10.782,6.954c0.811,1.346,1.271,1.941,3.346,1.941
	c7.687,0,16.612-10.793,21.182-10.793c2.078,0,4.446,1.781,7.049,4.472c-4.586,13.213-20.064,16.492-29.063,17.952l-36.554-6.641
	c-2.521,0.406-6.525,4.033-9.919,3.084c0.932-2.33,12.626-7.243,14.076-7.243c2.078,0,10.382,2.495,12.461,2.495
	c2.078,0,5.27-0.81,7.488-1.328c-5.062-4.176-14.96-6.669-14.96-12.792C337.328,228.709,339.885,224.326,341.696,221.729"/>
<path id="path113" fill="#FFFFFF" d="M239.753,329.636c1.193,2.773,4.419,5.938,7,8.99h-6.363c-0.962-0.808-2.743-1.518-2.743-3.592
	C237.648,332.961,238.52,331.525,239.753,329.636"/>
<path id="path115" fill="#FFFFFF" d="M280.116,366.327c8.536,2.371,20.342,5.877,28.903,5.868
	c-5.075,10.067-5.336,14.526-5.087,22.153c-6.619-2.235-11.667-14.715-12.573-21.778
	C288.083,367.979,282.539,372.379,280.116,366.327"/>
<path id="path117" fill="#FFFFFF" d="M233.556,368.733h6.067c2.074-0.064,2.747,1.637,3.42,1.948
	c1.233,4.108,2.039,9.022,4.465,14.473c-2.427-0.62-14.012-8.069-13.952-11.803V368.733"/>
<path id="path119" fill="#FAA61A" d="M479.546,133.674c3.737,1.632,8.207,2.875,11.217,4.329c1.969,0.931,2.188,3.609,3.434,4.858
	c1.977,1.97,5.763,2.864,7.215,5.042c11.424,17.03,24.479,24.738,36.933,24.738c2.078,0,10.25-1.639,14.972-2.78
	c-5.29,2.138-14.35,9.427-20.782,9.427c-2.074,0-9.144-3.327-11.221-3.327c-1.033,0-4.373-0.428-3.055,4.889
	c-2.108-0.776-2.758-1.562-4.832-1.562c-2.078,0-3.322,5.809-5.399,5.809c-2.074,0-10.029-1.661-16.094-2.634
	c-0.104-1.101-0.938-2.76-0.759-4.757c2.859,0.772,6.469,1.582,8.543,1.582c3.327,0,7.064-1.56,7.064-4.984
	c0-2.078-1.575-1.831-2.255-2.753c-0.234-1.765-0.234-3.402-0.474-4.907c-1.227-0.708-3.636-2.33-6.396-3.623
	c1.229-0.349,2.599-1.057,3.316-1.694C496.729,147.948,480.615,146.099,479.546,133.674"/>
<path id="path121" fill="#FAA61A" d="M474.798,180.944c2.079,0,5.922,1.677,9.549,2.961c-1.238,0.366-1.653,2.022-3.731,2.022
	c-2.074,0-2.489-1.657-4.567-1.657c-2.083,0-4.99,1.657-4.99,3.735c0,2.074,0.716,1.366,1.668,2.491
	c-1.782,1.955-4.985,4.571-4.985,6.645c0,2.079,1.535,2.202,3.292,3.996v10.292c-0.923,0.958-2.581,1.79-3.57,2.716l-8.004-1.094
	c2.277-2.597,4.955-4.589,4.955-6.771c0-2.076-1.535-3.861-3.313-5.749c0.878-1.915,2.952-3.365,3.879-5.235
	c0.732-1.452-0.296-3.66,0.533-5.011c1.668-2.806,3.929-5.771,5.07-8.198C471.348,181.798,472.725,180.944,474.798,180.944"/>
<path id="path123" fill="#FAA61A" d="M431.19,214.59l-0.937,1.933c-0.852,0.849-2.802,0.141-3.852,0.082
	c-0.984-1.829-0.198-4.51,0.058-7.382C427.745,210.138,430.317,212.741,431.19,214.59"/>
<path id="path125" fill="#FAA61A" d="M485.98,210.279c-0.918,1.279-1.747,1.279-2.768,2.219l-3.844-1.306
	C480.615,210.852,481.44,210.021,485.98,210.279"/>
<path id="path127" fill="#FAA61A" d="M450.116,215.077c0.181,1.174-0.697,3.018-1.699,4.86c-15.408-1.825-9.395-0.505-12.24-2.074
	C440.66,216.672,445.575,216.694,450.116,215.077"/>
<path id="path129" fill="#FAA61A" d="M472.306,219.157c2.082,0,7.061,4.984,7.061,7.058c0,2.495-7.033,7.351-9.002,7.781
	c0.706-3.828-1.945-6.561-4.268-7.655C468.119,222.98,469.089,219.157,472.306,219.157"/>
<path id="path131" fill="#FAA61A" d="M429.117,220.82c2.073,0,6.905,2.584,10.021,5.196c0.357,2.643,1.191,5.604,1.191,7.678
	c0,2.074-2.493,2.493-2.493,4.571c0,2.074,1.659,0.413,1.659,2.491c0,2.074-5.813,5.815-5.813,7.889
	c0,2.079,1.659,1.662,1.659,3.735c0,2.078-1.747,2.328-2.315,3.064c-0.182,1.558,0.133,3.817,0.652,6.411
	c0.31,1.664-1.659,2.987-1.659,5.065c0,2.074,1.54,2.195,2.488,3.385c-1.884,1.138-3.548,1.963-4.999,2.557
	c0.809,1.346,2.393,2.901,3.336,4.088c-1.885,1.138-4.254,1.875-6.341,4.143c-2.316,0.357-5.701,0.362-8.729,0.241
	c0.124,0.532-0.701,0.122-0.701,2.195c0,2.495,8.547,6.674,9.95,7.55c-2.065,0.344-4.368-0.527-5.976,0.267
	c-0.785,0.787-0.662,0.077-0.662,2.151c0,4.988,8.83,6.23,11.632,6.23c2.082,0,13.561-4.126,19.984-6.464v-2.125
	c-1.585-1.496-4.201-2.204-4.201-4.285c0-2.078,0.953-1.955,1.659-2.493c-0.706-0.538-1.435-2.12-3.318-3.312
	c3.434-2.138,7.017,0.091,9.722-4.379c0.512-0.931,1.195-3.402,2.739-4.83c-1.406-2.552-5.467-4.13-6.613-4.695v-2.824
	c-0.031-2.078,3.292-2.802,3.292-4.88c0-2.074-1.54-3.027-3.323-4.984c1.783-1.957,5.813-3.32,5.813-5.398
	c0-2.079-1.659-2.079-1.629-3.064c0.918-0.966,2.715-3.162,4.479-3.369c3.313-0.521,8.366-1.871,10.436-1.871
	c2.078,0,4.575,1.657,7.304,1.734c0.982,2.703,1.844,6.155,1.844,8.234c0,3.113-4.773,8.443-2.497,11.271
	c-3.618,2.473-6.649,1.703-6.649,5.337c0,2.078,2.444,13.207,5.146,18.503c2.083,4.157,9.06,5.941,13.896,8.271
	c0.07,3.543-0.564,10.014,2.56,13.524c-0.948,1.116-0.829,1.65-0.948,2.78c-1.125,0.117-1.125,0.949-3.203,0.949
	c-2.074,0-4.911-4.338-6.328-6.656c-2.811,1.721-2.811,3.333-2.811,4.161c0,2.083,1.659,4.157,1.659,6.237
	c0,2.074-0.821,2.489-1.18,4.558c-1.288-2.771-2.788-5.048-4.889-6.674c-0.582,3.854-3.9,11.25-3.9,13.33
	c0,2.069,1.668,3.73,1.668,5.809c0,6.126-12.461-0.411-12.51,8.829v3.484c-1.278,0.443-5.56,1.831-6.115,6.791
	c-2.113-4.41-1.929-9.498-2.452-13.65c-0.203-1.661-2.186-2.958-2.186-5.037c0-2.074,2.497-1.246,2.497-3.32
	c0-2.08-6.517-9.769-11.503-14.442c-3.115-2.802-9.933-1.445-13.18-1.798c-0.949-0.914-1.897-0.792-1.897-2.866
	c0-2.078,2.488-2.493,2.488-4.571c0-8.721-12.897-5.924-16.132-5.295c-6.149-2.63-8.688-3.841-12.108-3.841
	c-2.083,0-12.079,1.661-22.643,0.776c0,0-0.613-0.776-0.613,1.302c0,6.226,11.051,9.48,14.685,10.93
	c8.408,3.32,19.823,10.131,26.464,20.41c1.456,2.178,2.7,6.015,5.202,7.885c1.442,1.039,24.246,13.103,24.246,21.412
	c0,2.074-0.829,8.233-0.281,12.805l-4.299-2.42c-1.653,0.984-2.895,2.078-2.895,3.32c0,2.077,0.834,7.864,1.58,20.604
	c-3.565,0.88-4.902,11.068-4.902,13.139c0,2.082,0,18.172-0.375,26.893c-6.469-35.232-12.911-17.232-12.911-41.531
	c0-4.148-0.45-10.1,2.771-14.771c1.249-1.767,3.888-3.715,4.408-5.693c1.143-3.94,4.447-11.931,4.447-14.005
	c0-2.185-1.351-4.569-3.322-4.569c-7.58,0-6.336,14.956-17.032,14.956c-2.073,0-4.694-0.904-5.938-2.669
	c-5.298-7.375-4.063-21.652-16.631-26.226c-2.178-0.832-15.216-0.909-15.216-7.239c0-3.845,3.532-10.162,10.318-8.201
	c0.668-0.461,1.43-1.233,2.142-1.82c-2.44-3.892-6.817-7.737-10.663-11.062c-1.975-1.768-6.036-1.075-8.216-2.118
	c-2.908-1.456-4.796-4.629-6.881-4.629c-2.078,0-1.78,0.71-2.506,1.406v2.305c1.039,3.442,7.139,3.38,10.563,4.834
	c2.489,1.039,5.884,3.98,8.527,6.149c-4.62-0.583-11.597-3.894-13.674-3.894c-5.502,0-5.757,5.372-9.223,11.616
	c-0.536-4.536-9.111-8.852-11.468-9.961l-1.328,1.328c2.64,3.854,0.132,11.554,8.229,12.094v2.983
	c-3.407,2.625-6.425,6.471-10.063,8.964c-4.672,3.217-10.766,5.273-15.655,9.286v2.923c2.265,0.655,5.454-0.194,8.934-0.163
	c0.966,0.922,1.088,0.384,1.088,2.462c0,8.614-18.069,9.141-20.351,9.141c-16.406,0-72.501-13.112-75.923-14.294v-2.992
	c13.778-5.531,26.298-23.125,23.7-35.379c-0.514-2.387,0.307-5.07,0.525-7.929c2.919,1.686,6.424,4.101,8.503,4.101
	c2.078,0,2.142-0.633,2.607-1.324c-1.147-6.912,4.355-18.806,13.081-20.88c6.438-1.454,14.129-1.873,21.367-3.389
	c-0.09-0.569-1.667-1.151-2.301-1.997c-1.048-1.677-0.238-3.371-1.035-4.979c-0.786-0.776-0.082-0.655-2.156-0.655
	c-2.078,0-2.42,1.03-4.079,1.341c-2.493,0.417-5.097-0.441-7.382,0.494c-11.11,4.88-29.343,9.597-29.859,23.029
	c-2.061-0.821-3.614-0.781-7.567-1.622l-1.374,1.337c1.599,2.189,4.993,4.492,4.993,6.57c0,7.79-24.507,12.878-27.413,12.878
	c-3.217,0-5.549-0.724-8.253-5.712h12.719c5.919-0.104,15.922-7.409,13.279-13.862c3.416,0.474,5.01-3.561,7.428-5.937
	c5.761-0.135,8.783-9.141,11.693-12.357c1.138-1.249,4.207-1.699,5.247-3.466c1.143-1.871,2.449-9.33,6.74-10.076
	c0,0,0.154,1.983,0.122,3.488c0.741,0.695,0.033,0.574,2.111,0.574s4.772-3.268,8.209-5.286c5.109,0.298,12.973-2.191,15.046-2.191
	c2.083,0,4.988,1.661,7.063,1.661c2.079,0,4.384-0.785,6.548-1.599v4.401c0.099,2.078-2.393,3.014-2.393,5.087
	c0,3.528,2.803,2.91,3.32,2.91c3.945,0,10.036-5.526,13.507-10.775h10.063c2.078-0.024,7.541,3.709,10.343,6.094
	c2.078,1.767,5.231,7.17,7.309,7.17h28.033c2.078,0,3.432-2.489,5.504-2.489c2.074,0,9.552,4.984,11.633,4.984
	c2.072,0,4.15-0.421,4.15-2.495c0-3.321-2.392-6.659-5.73-7.636c-0.086-2.123,0.603-3.248-1.694-5.43
	c2.981,0.626,5.767,1.436,7.841,1.436c2.083,0,2.197-0.71,3.751-2.168c-0.825-2.268-4.121-4.704-5.798-8.373
	c2.439-0.958,8.277,0.578,8.277-3.996c0-2.074-0.706-1.364-1.663-2.489l2.497-2.575c-0.785-1.392-2.369-2.948-4.156-4.926
	c3.27-2.791,10.14-2.91,13.29-7.477c-1.412-2.698-3.733-3.557-5.754-4.75c-0.063-1.039,0.887-2.165,1.605-2.76
	c-1.821-3.058-3.848-2.846-4.99-2.846c-2.078,0-6.159,0.823-11.617,1.35C414.012,224.169,427.039,220.82,429.117,220.82"/>
<path id="path133" fill="#FAA61A" d="M267.329,228.343c-0.203,2.522-4.799,9.813-6.085,10.74c0,0-1.171,0.009-1.171-2.07
	C260.072,234.94,264.348,230.909,267.329,228.343"/>
<path id="path135" fill="#FAA61A" d="M254.962,243.357c-0.746,2.151-2.363,2.797-2.363,4.871c0,2.079,0.708,1.785,1.657,2.893
	c-4.247,5.269-5.904,10.244-9.758,14.495C247.335,257.83,244.291,249.223,254.962,243.357"/>
<path id="path137" fill="#FAA61A" d="M219.054,257.377c0.318,12.344-6.33,10.475-6.33,10.786
	C212.724,266.09,216.923,260.92,219.054,257.377"/>
<path id="path139" fill="#FAA61A" d="M238.994,259.041c0.62,2.418-0.022,9.95-4.554,10.654
	C235.168,265.986,236.071,262.516,238.994,259.041"/>
<path id="path141" fill="#FAA61A" d="M221.794,272.501c-3.323,5.445-6.833,10.003-4.139,15.397h-5.703
	C214.948,281.375,215.647,273.576,221.794,272.501"/>
<path id="path143" fill="#FAA61A" d="M229.754,273.152c1.13,0.949-0.534,4.026-3.565,6.566
	C226.891,277.529,227.802,274.933,229.754,273.152"/>
<path id="path145" fill="#FAA61A" d="M573.431,344.588c1.46,8.675,1.46,17.897,0.266,27.413c-1.275-2.779-2.053-5.174-3.786-7.871
	c0.878-1.866,3.322-3.658,3.521-5.738V344.588"/>
<path id="path147" fill="#FAA61A" d="M537.981,349.576c0.361,1.238,1.195,2.906,1.165,21.334c-0.923,0.963-2.043,2.748-3.174,2.625
	C535.85,363.279,536.693,353.208,537.981,349.576"/>
<path id="path149" fill="#FAA61A" d="M488.12,352.892c1.19,2.773,2.807,6.001,4.32,8.359c0.636-0.055,1.05-0.882,3.124-0.882
	c2.077,0,2.679,2.535,4.558,3.643c-4.435,6.158-2.378,11.671-1.849,17.888c-2.938-1.662-6.376-3.444-7.735-5.752
	c-1.328,1.544-2.858,4.567-2.858,6.651c0,2.074,1.659,3.736,1.659,5.813c0,7.371-13.596,14.37-15.678,15.634
	c-0.971,2.387-1.771,5.543-1.889,8.328c-6.941,0.123-14.382,1.785-23.832,2.508v-3.107c8.799-0.104,10.771-11.102,10.986-16.71
	c1.505,2.521,1.165,8.481,4.205,10.79c7.73-8.178-1.267-19.198,3.977-29.012c1.88-0.063,4.367,0.769,5.858,0.804
	c3.395-3.845-0.45-9.015,4.471-11.636c1.08,2.744,2.744,6.07,3.322,8.307c3.394-2.053,3.592-6.462,3.592-8.748
	c0-0.832,1.254-0.413,1.861-0.357C486.889,363.92,486.889,354.785,488.12,352.892"/>
<path id="path151" fill="#FAA61A" d="M502.743,365.485h2.684c1.354,39.305,2.181,46.387,2.181,48.461
	c0,4.264-6.54,11.055-6.248,16.197c-0.397-3.742-0.386-8.82,0.688-13.051c0.662-0.904,2.31-2.539,2.789-3.297
	c0.291-1.586,1.116-3.174,1.116-5.248L502.743,365.485"/>
<path id="path153" fill="#FAA61A" d="M448.028,382.008c1.854,1.658,3.932,10.343,3.932,15.326c0,4.045-0.445,4.631-7.364,7.83
	v-4.686c4.476-4.377,4.867-4.704,4.867-8.964C449.462,389.436,448.646,385.805,448.028,382.008"/>
<path id="path155" fill="#FAA61A" d="M516.209,393.613c1.245,0.937,2.202,0.812,2.202,2.89c0,2.074-1.663,5.816-2.029,9.553
	C515.098,402.418,515.089,398.084,516.209,393.613"/>
<path id="path157" fill="#FAA61A" d="M415.561,415.292c4.802,0.736,4.802,7.951,5.44,10.648c-2.197-2.625-6.424-6.592-6.424-8.67
	C414.578,415.196,415.412,416.434,415.561,415.292"/>
<path id="path159" fill="#FAA61A" d="M411.396,426.834c3.936,5.156,8.166,13.277,8.166,15.355c0,2.072-2.487,3.734-2.487,5.813
	c0,3.322,4.978,18.689,9.964,18.689c2.078,0,4.151-2.496,4.151-4.564c0-2.084-2.493-6.236-2.493-8.313
	c0-2.074,0.834-1.658,1.195-2.902c2.113,6.109,2.943,12.762,4.536,18.936c-1.989,0.164-3.357,0.043-4.934,1.582l-1.146,20.178
	c-6.262-14.379-11.261-29.154-16.04-44.309c-0.931-3.113,0.924-7.533,0.301-10.859c-0.105-0.93-1.354-2.035-1.213-4.119V426.834"/>
<path id="path161" fill="#FAA61A" d="M399.5,454.352c0.128,2.787,2.301,5.563-0.441,8.154
	C398.796,461.297,398.383,454.231,399.5,454.352"/>
<path id="path163" fill="#FAA61A" d="M409.164,455.065c1.253,4.482,2.063,9.422,3.543,14.898
	C409.176,466.338,408.25,460.11,409.164,455.065"/>
<path id="path165" fill="#FAA61A" d="M493.367,470.137c0.123,1.121,0.953,1.957,0.829,6.398c-1.12,0.125-1.496-1.764-2.369-3.602
	C491.827,472.936,492.246,470.012,493.367,470.137"/>
<path id="path167" fill="#FFFFFF" d="M360.719,278.866c4.902,8.596,6.773,20.854,16.253,31.046
	c-2.129-0.858-5.218-0.541-7.018-1.399c-2.908-1.456-4.796-4.629-6.881-4.629c-2.078,0-1.78,0.71-2.506,1.406v2.305
	c1.039,3.442,7.139,3.38,10.563,4.834c2.489,1.039,5.884,3.98,8.527,6.149c-4.62-0.583-11.597-3.894-13.674-3.894
	c-5.502,0-5.757,5.372-9.223,11.616c-0.536-4.536-9.111-8.852-11.468-9.961l-1.328,1.328c2.639,3.854,0.132,11.554,8.229,12.094
	v2.983c-3.407,2.625-6.426,6.471-10.063,8.964c-4.672,3.217-10.766,5.273-15.655,9.286v2.923c2.265,0.655,5.454-0.194,8.934-0.163
	c0.966,0.922,1.088,0.384,1.088,2.462c0,8.613-18.069,9.141-20.351,9.141c-16.406,0-72.501-13.112-75.923-14.294v-2.992
	c13.778-5.531,26.298-23.125,23.7-35.379c-0.514-2.387,0.307-5.07,0.525-7.929c2.919,1.686,6.424,4.101,8.503,4.101
	c2.078,0,2.142-0.633,2.607-1.324c-1.147-6.912,4.355-18.806,13.081-20.88c6.438-1.454,14.129-1.873,21.367-3.389
	c-0.09-0.569-1.667-1.151-2.301-1.997c-1.048-1.677-0.238-3.371-1.035-4.979c-0.786-0.776-0.082-0.655-2.156-0.655
	c-2.078,0-2.42,1.03-4.079,1.341c-2.493,0.417-5.097-0.441-7.382,0.494c-11.11,4.88-29.343,9.597-29.859,23.029
	c-2.061-0.821-3.614-0.781-7.567-1.622l-1.374,1.337c1.599,2.189,4.993,4.492,4.993,6.57c0,7.79-24.507,12.878-27.413,12.878
	c-3.217,0-5.549-0.724-8.253-5.712h12.719c5.919-0.104,15.922-7.409,13.279-13.862c3.416,0.474,5.01-3.561,7.428-5.937
	c5.761-0.135,8.783-9.141,11.693-12.357c1.138-1.249,4.207-1.699,5.247-3.466c1.143-1.871,2.449-9.33,6.74-10.076
	c0,0,0.154,1.983,0.122,3.488c0.741,0.695,0.033,0.574,2.111,0.574s4.772-3.268,8.209-5.286c5.109,0.298,12.973-2.191,15.046-2.191
	c2.083,0,4.988,1.661,7.063,1.661c2.079,0,4.384-0.785,6.548-1.599v4.401c0.099,2.078-2.393,3.014-2.393,5.087
	c0,3.528,2.803,2.91,3.32,2.91c3.945,0,10.036-5.526,13.507-10.775h10.063c2.078-0.024,7.541,3.709,10.343,6.094
	C356.386,274.123,358.722,277.653,360.719,278.866"/>
<path id="path169" fill="#231F20" d="M378.024,111.172c2.083,0,44.129,4.984,46.211,5.001h16.671
	c1.791,1.763,3.528,3.534,4.362,5.558c-8.379,1.992-6.508,2.319-24.476,1.897c-7.576-0.104-3.238,4.673-7.06,7.998
	c1.026,2.771,7.289,1.926,10.603,3.9c2.807,1.657,6.081,5.783,7.329,8.273c1.139,2.385,1.188,5.132,1.359,7.51
	c0.568,0.73,1.421,1.588,1.98,2.488c0.331,1.734,0.335,3.42,0.472,4.902c1.315,0.706,3.381,2.747,3.698,4.307
	c0.31,1.553,0.286,3.545-0.31,5.006c0.548,0.642,2.246,1.531,3.893,5.264c-1.188,0.194-0.769,1.026-2.847,1.026
	s-5.048-1.875-7.55-2.292c-3.737-0.622-9.642,0.422-14.434-3.768c-0.03-1.833,1.861-3.868,3.296-4.368
	c-4.007-2.954-8.983-4.618-13.286-8.174c0.869-1.933,3.598-3.804,5.813-4.302c-5.648-3.755-12.318-7.102-18.255-12.258
	c0.604-4.152,4.233-4.816,13.313-4.481c-2.46-2.888-6.63-4.573-8.987-8.39c-10.523-1.185-24.873-8.56-35.479-7.625
	c-9.158,0.004-9.984-0.825-11.196-1.07C358.916,110.382,371.695,111.172,378.024,111.172"/>
<path id="path171" fill="#231F20" d="M341.851,117.82c2.535,0,3.367,0.83,4.55,1.026c-1.64,3.726-3.257,9.818-6.786,11.896
	c-7.271,4.251-16.82,2.53-25.027,4.712c-0.931,0.208-1.695,2.504-3.355,2.811c-2.491,0.415-5.928,0.81-9.045,2.155
	c-1.145,0.415-14.175,9.791-17.709,9.773h-4.227c-0.944-0.931-0.944-1.767-1.9-2.919
	C297.002,133.471,320.729,122.499,341.851,117.82"/>
<path id="path173" fill="#231F20" d="M360.995,125.292c2.078,0,3.327,4.152,5.405,4.152c2.073,0,4.566-1.657,6.645-1.657
	s3.091,0.871,4.966,1.955c-3.361,6.036-12.503,5.699-16.867,7.36c-2.599,0.936-5.061,3.241-7.554,3.656
	c-2.491,0.417-5.946-1.161-8.229-0.333c-1.976,0.732-3.98,2.923-6.684,3.647c-3.112,0.83-7.658,0.821-11.598,2.173
	c-1.247,0.415-19.552,11.444-23.812,11.444c-2.074,0-3.32-1.661-3.32-3.739c0-5.297,6.645-4.311,5.891-11.865
	c5.328-1.412,1.79-1.008,19.285-0.978c0.697-0.741,2.288-2.314,3.232-3.89c0.979-0.285,1.765-0.267,2.515-0.542
	c4.09-3.993,8.97-2.414,12.502-4.174c2.491-1.244,5.165-5.544,7.243-5.544c2.074,0,2.074,1.662,4.151,1.662
	C356.847,128.617,358.92,125.292,360.995,125.292"/>
<path id="path175" fill="#231F20" d="M431.344,127.038h12.955c1.399,3.186,1.011,3.446,1.011,4.07c0,2.078,6.063,2.888,8.143,4.445
	c6.963,5.295,8.064,16.234,17.535,18.991c-0.234,3.29-2.423,5.635-5.322,5.635c-2.073,0-6.777-3.759-10.1-4.794
	c-1.559-0.521-3.063-0.214-4.862,0.315c-6.43-7.292-8.397-15.611-17.643-20.807c-0.719-0.41-1.83-2.354-2.695-4.139L431.344,127.038
	"/>
<path id="path177" fill="#231F20" d="M375.227,146.154h4.397c-0.786,2.945-1.6,4.472-1.626,5.145
	c0.741,0.697,2.109-0.251,10.416-0.251c6.122,0,4.984,6.14,4.708,10.158c4.269,1.599,4.593,6.42,3.175,9.284
	c1.546,1.44,3.975,1.392,6.593,3.199v3.755c-1.834,0.966-4.093,2.671-6.171,2.671c-8.929,0-14.848-15.783-26.998-15.783
	c-2.073,0-9.398,2.462-13.723,4.157c0,0-0.813-0.832-1.997-1.03c0.814-2.065,2.553-3.833,4.92-6.023
	c-3.808-3.338-9.003,2.738-11.62-4.225C351.746,151.613,374.911,146.06,375.227,146.154"/>
<path id="path179" fill="#231F20" d="M297.168,151.893l1.944,2.023c-0.872,1.884-0.828,2.941-0.828,5.019
	c0,3.634-3.325,5.396-4.979,5.396c-2.083,0-1.661-2.491-3.742-2.491c-2.078,0-4.852,1.641-7.757,2.387
	C282.927,158.223,291.99,152.709,297.168,151.893"/>
<path id="path181" fill="#231F20" d="M256.178,158.602h4.618c0.108,1.165,0.94,0.333,0.94,2.407c0,2.081-5.088,8.565-5.613,12.929
	c-0.311,2.489,0.629,5.802,0.285,9.24c-1.41,1.771-2.976,1.919-5.055,1.919c-3.944,0-3.854-1.721-12.042-7.011
	C244.413,172.762,249.396,165.285,256.178,158.602"/>
<path id="path183" fill="#231F20" d="M309.602,159.42h5.198c-0.214,5.873-6.967,9.862-9.286,12.353h-2.846
	c-0.936-0.917-1.059-0.379-1.059-2.453C301.609,167.76,306.692,159.352,309.602,159.42"/>
<path id="path185" fill="#231F20" d="M338.544,165.164c1.875,0.875,2.932,2.078,2.932,4.156c0,2.906-15.206,27.521-17.591,29.495
	c-0.624,0.521-2.72,0.327-4.174,1.366c-1.659,1.247-3.354,3.967-7.773,6.515c-1.069-0.953-2.022-0.415-2.022-2.491
	c0-2.079,2.511-6.361,3.375-8.521c-3.064-0.629-6.385,0.198-9.868-0.706c0,0-0.033-0.863-0.986-1.966
	c3.417-4.437,9.972-9.99,9.972-12.068c0-2.074-1.54-1.78-2.407-2.747v-3.79c1.161-0.104,1.575-0.936,3.649-0.936
	c2.077,0,6.751,4.165,9.858,4.997c1.479-1.553,2.265-3.993,3.35-5.498c1.505-1.085,4.16-1.154,5.714-1.434
	C334.974,169.419,335.85,166.893,338.544,165.164"/>
<path id="path187" fill="#231F20" d="M364.321,169.32c4.468,0,12.051,0.726,12.051,7.89c0,2.078-0.9,5.165-2.767,5.891
	c-4.774,1.767-10.328,2.052-14.897,4.644c-3.737,2.076-4.359,9.968-10.067,13.063h-3.785v-6.257
	c-0.056-0.311,6.049-15.201,7.188-16.758c1.147-1.556,1.6-4.618,2.851-5.862C356.864,169.958,362.248,169.32,364.321,169.32"/>
<path id="path189" fill="#231F20" d="M414.158,169.32c2.079,0,2.794,0.949,3.707,1.915c0.035,0.991-0.913,2.945-1.897,3.872
	l-12.179-1.121C406.454,171.881,412.084,169.32,414.158,169.32"/>
<path id="path191" fill="#231F20" d="M381.352,191.744c2.074,0,8.305,0.832,10.383,0.832c6.648,0,7.062,8.201,7.062,10.383
	c0,3.322-0.311,7.894-5.397,7.894c-2.081,0-15.155-6.7-22.792-11.007v-2.91C374.04,194.319,379.277,191.744,381.352,191.744"/>
<path id="path193" fill="#231F20" d="M510.399,197.578c1.732,0.637,6.48,4.104,9.622,8.893c-2.024,0.225-3.685,1.057-5.136,0.993
	c0,0-0.627-0.768-0.627,1.311s1.505,2.169,3.095,3.475c3.556,1.008,6.177-2.462,8.922,1.924c0.484-1.432,0.44-2.906,0.477-4.726
	l1.91-1.897c0.962-0.022,2.917,0.931,4.682,2.729v10.021c0.019,2.074-5.034,11.135-8.304,15.779
	c1.447,0.564,3.622,0.547,6.517-0.212c-0.696,5.372-0.691,7.792-0.75,10.504c-1.825,0.981-4.505,1.026-6.636,0.818
	c3,4.455-1.986,8.331,5.356,11.021c0.631-0.724,1.337-2.087,1.465-3.276h2.679c2.492-0.058,9.619,9.833,10.974,12.652
	c0.322,0.85,0.35,1.41,0.35,3.488c0,2.078-0.834,5.812-0.869,8.468c-0.918,0.962-0.38,1.083-2.458,1.083
	c-10.387,0-4.836-9.067-14.526-13.292c0,0-0.547-0.117-1.248,0.419c1.535,1.366,4.1,3.137,4.902,4.889v3.729
	c-1.17,0.104-0.75,0.936-2.829,0.936c-3.115,0-5.814-4.125-6.021-7.036c-0.521-7.473-1.643-16-3.83-23.166
	c-1.14-3.737-4.688-7.596-4.688-9.674c0-2.074,0.896-2.294,1.396-3.089c0.291-0.792-0.562-1.063-0.562-3.137
	c0-5.502,7.472-2.389,7.472-9.141c0-4.67-7.767-3.018-8.948-3.289c-2.612-3.958-5.048-8.046-8.499-11.629
	C506.86,203.541,508.514,200.238,510.399,197.578"/>
<path id="path195" fill="#231F20" d="M304.824,204.256v5.246c0.108,2.074-3.629,4.671-5.648,4.549v-3.72
	C299.116,208.253,301.794,205.937,304.824,204.256"/>
<path id="path197" fill="#231F20" d="M566.707,204.282h5.449l1.906,2.034c-0.949,1.087-2.596,3.704-4.674,3.631h-4.358
	C564.923,207.11,566.587,205.449,566.707,204.282"/>
<path id="path199" fill="#231F20" d="M231.647,216.734c1.818,4.344,2.672,9.417,3.34,14.804c-2.094-0.796-3.94-2.643-4.807-4.415
	C230.18,227.124,230.586,216.664,231.647,216.734"/>
<path id="path201" fill="#231F20" d="M557.859,223.309c2.078,0,5.815,1.664,9.526,1.922c-0.923,1.282-0.879,3-2.021,4.558
	c-1.244,1.659-4.184,3.488-6.252,3.488c-2.079,0-4.117-2.72-4.907-4.472v-3.729C555.371,224.972,555.786,223.309,557.859,223.309"/>
<path id="path203" fill="#231F20" d="M544.45,239.941c6.213,1.021,8.847,7.976,8.847,10.782c0,2.078-0.834,2.903-0.948,4.066h-3.82
	c-2.625-3.402-6.032-8.635-6.032-10.713C542.495,241.998,543.453,240.873,544.45,239.941"/>
<path id="path205" fill="#231F20" d="M134.958,249.186c0.415-0.125,3.479,1.339,4.596,3.85c-4.556-0.452-9.683-0.375-12.353-3.85
	H134.958"/>
<path id="path207" fill="#231F20" d="M568.529,259.881c2.925,2.588,5.408,6.74,8.819,10.202v2.837
	c-0.922,0.936-0.375,1.059-2.458,1.059c-2.072,0-5.739-3.508-7.466-6.127L568.529,259.881"/>
<path id="path209" fill="#231F20" d="M621.483,264.927h3.04c5.73,7.665,15.694,10.881,20.973,14.407
	c-1.783,2.001-4.152,2.954-6.228,2.954c-5.811,0-11.847-4.717-17.785-11.894V264.927"/>
<path id="path211" fill="#231F20" d="M470.647,273.979c1.125,0.953,1.243,0.832,1.243,2.906c0,2.078-1.664,2.493-1.81,4.476
	l-4.796-0.979C466.124,278.361,468.697,275.764,470.647,273.979"/>
<path id="path213" fill="#231F20" d="M563.327,279.076c5.369,0.307,6.888,8.558,7.21,13.121c-2.018-1.165-7.272-5.445-7.21-7.73
	V279.076"/>
<path id="path215" fill="#231F20" d="M375.951,281.457c2.074,0,3.47-0.208,13.339,0.836c7.369,0.827,18.611,0.832,26.117,7.947
	c-1.89,1.141-2.908,1.185-4.981,1.185c-2.078,0-5.917-1.659-8.002-1.659h-15.57c-2.077,0-7.997-3.325-10.07-3.325
	c-2.078,0-4.053,0.818-7.587,1.648l-1.963-2.092c0.948-1.096,1.824-2.795,2.751-3.475
	C371.75,282.292,373.872,281.457,375.951,281.457"/>
<path id="path217" fill="#231F20" d="M628.124,284.009h3.569c2.073-0.064,9.49,5.838,12.955,8.794
	c-1.228,0.284-1.228,1.109-3.306,1.109c-3.632,0-11.489-2.841-13.22-6.954L628.124,284.009"/>
<path id="path219" fill="#231F20" d="M315.332,287.272c0,0,0.814,0.832,1.997,0.953v2.678c0.063,2.079-4.834,7.358-7.537,10.054
	c-1.35,1.352-4.532,1.612-6.709,3.068c-2.703,1.761-3.281,4.739-5.829,6.968c-0.898,0.344-1.048,1.195-3.122,1.195
	c-2.079,0-3.281-1.893-4.152-3.752c6.398-10.38,5.816-5.798,5.816-9.95C295.796,293.71,311.524,288.754,315.332,287.272"/>
<path id="path221" fill="#231F20" d="M334.197,287.384h3.045c-0.646,5.242,3.927,4.04,5.07,4.04c2.073,0,6.645-1.659,8.721-1.659
	c2.074,0,2.678,0.042,4.445,0.949c0,0,0,0.832,0.921,1.8c0.032,0.984-1.752,2.113-2.715,3.049h-11.684
	c-2.081,0.013-4.073,2.462-5.527,3.049c0.809,1.348,1.27,1.948,3.344,1.948c2.077,0,5.819-1.659,7.889-1.659
	c2.079,0,2.496,0.828,3.66,0.951v2.954c-3.759,4.364-4.687,4.496-8.381,3.479c0.158,1.337-1.51,4.243-1.51,6.321
	c0,2.079,0.71,1.37,1.667,2.496c-0.958,1.123-0.832,1.242-2.909,1.242c-2.079,0-5.816-1.659-8.601-1.785
	c-0.122-1.121-0.953-0.289-0.953-2.37c0-2.908,5.261-6.252,6.647-7.024c-1.433-0.492-3.32-1.28-5.399-1.28
	c-2.084,0-3.327,1.659-5.146,1.628c-0.962-0.918-1.915-0.801-1.915-2.875C324.867,300.56,331.559,292.481,334.197,287.384"/>
<path id="path223" fill="#231F20" d="M464.408,294.252c0,0,0.004,2.987-2.069,2.987c-2.074,0-5.326-3.508-7.008-6.425
	C459.02,290.592,461.743,292.329,464.408,294.252"/>
<path id="path225" fill="#231F20" d="M133.242,294.866h3.014c-1.224,3.466-4.112,4.966-8.225,4.6
	C129.785,297.361,131.444,296.534,133.242,294.866"/>
<path id="path227" fill="#231F20" d="M466.137,299.097c3.681-0.196,4.511,0.631,5.636,0.755c0.118,1.123,0.952,1.955,0.896,3.002
	c0,0,0.058,1.03-2.021,1.03C468.564,303.885,466.949,301.16,466.137,299.097"/>
<path id="path229" fill="#231F20" d="M461.191,306.523c3.736,0.697,7.259,3.294,9.84,5.924c0.025,0.991-0.923,2.941-1.906,3.872
	C465.829,316.03,462.055,309.136,461.191,306.523"/>
<path id="path231" fill="#231F20" d="M287.07,311.36c1.125,0.953,2.91,1.246,2.91,3.325c0,2.074-0.953,3.199-2.747,4.894h-2.97
	c-0.099-1.156-0.931-0.325-0.931-2.403C283.333,315.102,285.113,313.145,287.07,311.36"/>
<path id="path233" fill="#231F20" d="M325.697,315.512c2.074,0,2.074,0.832,3.246,0.953v2.965c-1.708,1.774-2.833,3.559-4.907,3.559
	s-3.204-0.953-4.145-1.992C321.156,317.643,324.554,315.512,325.697,315.512"/>
<path id="path235" fill="#231F20" d="M281.323,318.841c1.057,0.948,2.01,1.654,2.01,3.732c0,2.079-1.847,2.837-4.613,4.567
	c-1.079-0.953-1.2-0.825-1.2-2.906C277.519,322.162,279.412,319.708,281.323,318.841"/>
<path id="path237" fill="#231F20" d="M307.945,323.009h5.877c0.953,0.933,1.077,1.227,1.077,3.307c0,3.113-3.22,4.979-5.401,4.979
	c-2.078,0-3.51-0.874-5.35-1.858v-3.72C305.053,324.773,305.867,322.989,307.945,323.009"/>
<path id="path239" fill="#231F20" d="M393.397,323.816c2.073,0,9.429,8.433,14.529,13.668c0,0,0.005,2.952-2.068,2.952
	c-2.078,0-10.283-9.282-15.335-15.543C391.734,324.652,391.317,323.816,393.397,323.816"/>
<path id="path241" fill="#231F20" d="M404.797,323.856h3.452c2.692-0.04,7.55,9.065,7.916,10.674h-2.731
	c-3.424,0.09-9.653-6.449-9.653-8.214L404.797,323.856"/>
<path id="path243" fill="#231F20" d="M334.323,328.877h5.385c0.108,1.169,0.94,1.59,0.94,3.664c0,2.079-1.785,2.787-2.747,3.656
	h-7.145v-3.828C331.634,331.417,332.569,329.68,334.323,328.877"/>
<path id="path245" fill="#231F20" d="M295.379,329.636c2.074,0,3.737,0.832,3.737,2.905c0,3.945-5.915,4.567-7.989,4.554
	c0,0-0.732-0.818-1.902-0.988C289.998,333.241,293.305,329.636,295.379,329.636"/>
<path id="path247" fill="#231F20" d="M278.521,334.68h3.746c0.944,0.894,1.897,2.019,1.866,3.002
	c-0.922,0.969-2.879,1.917-3.867,1.891c-0.962-0.922-1.794-0.922-2.729-1.931L278.521,334.68"/>
<path id="path249" fill="#231F20" d="M318.564,335.456c5.055-0.009,5.055,0.821,6.18,0.944c0.124,1.955-3.303,6.524-5.376,6.438
	h-6.05C314.289,338.152,315.27,336.72,318.564,335.456"/>
<path id="path251" fill="#231F20" d="M170.998,342.988c0.194,2.742-2.039,6.239-5.588,4.653
	C166.254,345.645,168.933,343.8,170.998,342.988"/>
<path id="path253" fill="#231F20" d="M299.374,342.962h6.145l1.902,2.014c-0.673,1.368-4.671,4.596-5.812,4.596
	c-2.078,0-3.144-0.909-3.144-0.909c-0.889-0.876-1.013-0.34-1.013-2.418C297.453,344.171,298.406,343.877,299.374,342.962"/>
<path id="path255" fill="#231F20" d="M286.655,343.751c2.078,0,4.11,1.893,4.988,3.742c-0.878,1.847-2.081,2.908-4.159,2.908
	c-2.078,0-2.908-0.83-4.029-0.958c-0.124-1.121-0.955-2.778-0.922-3.769C283.456,344.709,284.577,343.751,286.655,343.751"/>
<path id="path257" fill="#231F20" d="M160.37,354.827c-2.548,3.713-5.869,7.87-8.507,11.257h-3.047v-2.915
	c-0.048-2.074,5.979-6.903,9.626-8.92L160.37,354.827"/>
<path id="path259" fill="#231F20" d="M316.814,353.755c0.987-0.031,2.113,0.09,2.982,1.057v3.792
	c-1.163,0.104-1.995,0.931-6.479,0.812v-2.963C314.189,355.509,315.853,354.677,316.814,353.755"/>
<path id="path261" fill="#231F20" d="M163.625,391.172v2.734c0.095,2.077-2.436,5.262-3.59,7.773
	c-0.532,0.854-2.958-1.855-2.958,0.223C157.076,400.344,160.136,392.377,163.625,391.172"/>
<path id="path263" fill="#231F20" d="M344.521,430.993l1.111,7.029c-0.208,7.605-12.149,11.23-16.198,11.23
	c-2.073,0-4.337-0.051-6.167-1.035c-0.063-1.881-0.063-3.539,0-5.416c3.283-1.711,10.216,0.668,13.328-2.857
	C339.091,437.034,341.602,433.584,344.521,430.993"/>
<path id="path265" fill="#231F20" d="M270.872,460.043c2.079,0,4.567,0.832,6.903,0.867l1.293-0.797v4.672l-6.032,6.053
	c-2.711-0.85-3.643-4.215-6.294-6.096C267.573,462.096,269.005,460.043,270.872,460.043"/>
<path id="path267" fill="#231F20" d="M282.823,465.055h2.773c0.936,0.926,0.936,1.754,1.884,2.811
	c-0.867,1.918-2.903,4.646-4.979,4.646c-2.079,0-3.197-0.959-4.148-2.018C279.222,468.584,281.069,465.907,282.823,465.055"/>
<path id="path269" fill="#231F20" d="M289.614,471.68c1.074,0.949,1.608,0.832,2.604,0.854c0.962,0.928,1.087,0.803,1.087,2.877
	c0,3.328-4.88,14.537-7.066,14.537c-3.841,0-3.737-3.535-3.737-4.152C282.501,484.34,287.997,472.569,289.614,471.68"/>
<path id="path271" fill="#231F20" d="M261.162,475.032h3.66c0.949,0.918,1.07,1.629,1.07,3.707c0,2.074-0.904,4.387-2.508,6.537
	c1.447,0.568,4.167,0.107,4.167,2.178c0,2.084-0.832,3.742-0.865,5.563c-0.916,0.967-3.058,1.049-4.887,0.059
	c-0.064-1.881,0.812-3.359,0.351-4.791c-0.461,1.432-2.493,3.332-4.247,3.316c-1.751-0.863-2.815-2.063-2.815-4.148
	C255.088,482.682,260.09,476.057,261.162,475.032"/>
<path id="path273" fill="#231F20" d="M277.74,475.047c1.026-0.051,2.683,0.785,3.808,0.902c0.124,1.121,0.953,0.289,0.953,2.373
	c0,2.074-1.73,5.635-3.631,8.287c-1.953-0.855-4.673-2.055-4.673-4.133C274.197,480.395,275.929,477.67,277.74,475.047"/>
<path id="path275" fill="#231F20" d="M374.415,475.018c0,0,1.125-0.021,1.125,2.053c0,1.252-6.583,14.09-9.877,15.305v-5.436
	C365.568,483.309,371.807,476.293,374.415,475.018"/>
<path id="path277" fill="#231F20" d="M324.623,475.864c1.035,1.857,1.074,3.707,1.074,5.779c0,2.074-1.473,6.248-2.304,8.848
	c-0.724,2.389,0.741,4.932,0.32,7.428c-0.307,1.652-2.397,3.619-4.342,4.48c-2.729-3.479-6.963-9.959-6.963-12.037
	c0-4.666,1.348,0.85,0.985-14.443C317.077,476.672,321.026,476.672,324.623,475.864"/>
<path id="path279" fill="#231F20" d="M335.389,477.514l1.862,1.924v7.906c-1.169,0.109-1.586,0.941-3.665,0.941
	c-3.009,0-3.742-3.113-3.742-5.396C329.845,480.084,330.334,477.907,335.389,477.514"/>
<path id="path281" fill="#231F20" d="M298.465,479.211h3.737c0.949,0.895,1.065,0.357,1.065,2.432s-3.022,13.896-4.472,20.438
	c-0.106,0.828-1.754,1.992-3.837,1.992c-2.074,0-4.979-1.664-4.979-3.742C289.98,498.256,295.822,486.067,298.465,479.211"/>
<path id="path283" fill="#231F20" d="M306.847,489.979c0.991-0.031,1.976,0.832,2.661,1.154c0.399,1.639,1.24,2.967,1.24,5.041
	c0,2.082-0.832,2.496-0.956,5.332h-6.274c-0.953-0.881-1.081-1.176-1.081-3.25C302.437,496.174,305.053,491.733,306.847,489.979"/>
<path id="path285" fill="#231F20" d="M365.158,493.274c1.125,0.951,1.242,0.416,1.242,2.494c0,3.939-3.327,11.619-7.166,11.59
	h-4.285c0,0-1.008,0.029-1.008-2.039C353.941,501.374,362.162,496.092,365.158,493.274"/>
<path id="path287" fill="#231F20" d="M265.283,498.303l5.538,0.996c-0.798,2.824-1.635,5.316-2.501,7.898
	c-0.892,0.904-3.032,0.98-4.858,0c-0.062-1.047-0.894-0.631-0.894-2.711C262.567,502.409,264.271,500.145,265.283,498.303"/>
<path id="path289" fill="#231F20" d="M277.519,500.749c2.079,0,3.093,0.875,4.951,1.854v2.613c0.031,4.568-2.983,8.828-5.783,8.828
	c-4.362,0-5.816-2.914-5.816-6.234C270.872,503.448,272.015,500.749,277.519,500.749"/>
<path id="path291" fill="#231F20" d="M347.49,504.167h3.85c0.108,4.475,0.108,9.451,0.077,13.768
	c-0.922,0.967-2.775,1.076-3.53,1.258c-3.979,2.967-3.086,5.646-7.238,5.646c-2.074,0-2.906-0.83-4.075-0.955v-11.254
	c0.875-0.961,2.643-1.875,4.486-2.746c1.848,0.871,2.684,2.535,3.998,3.355C345.65,511.004,345.674,507.625,347.49,504.167"/>
<path id="path293" fill="#231F20" d="M287.884,506.569c0,0,0.849,0.818,2.019,0.947v10.428c-0.876,0.957-0.876,1.789-1.838,2.703
	h-2.844c-0.94-0.914-2.72-2.039-2.72-4.117C282.501,513.417,286.018,507.665,287.884,506.569"/>
<path id="path295" fill="#231F20" d="M330.681,512.375c2.074,0,3.199,0.949,4.14,1.967c-0.828,3.529-1.645,6.756-1.769,10.373
	c-1.123,0.123-0.712,0.953-2.786,0.953c-3.846,0-3.736-3.113-3.736-5.396C326.529,519.231,327.049,512.375,330.681,512.375"/>
<path id="path297" fill="#231F20" d="M301.609,514.872c3.111,0,4.979,3.326,4.979,4.984c0,4.152-3.527,4.152-4.152,4.152
	c-2.074,0-5.809-2.08-5.809-4.152C296.627,517.772,299.531,514.872,301.609,514.872"/>
<path id="path299" fill="#231F20" d="M315.729,515.702c2.074,0,4.087,5.166,5.812,7.936c-1.78,1.912-5.394,4.523-7.472,4.523
	c-2.074,0-4.984-1.664-4.984-3.738C309.084,522.247,312.409,515.702,315.729,515.702"/>
<path id="path301" fill="#231F20" d="M386.746,363.696c2.725,3.162,7.897,2.588,7.897,7.055c0,2.078-1.663,3.324-1.663,5.397
	c0,2.078,4.151,6.651,4.151,8.726c0,2.08-3.334,9.231-4.526,14.025c-1.438,1.238-3.073,1.221-4.609,2.588
	c0.71,0.535,2.074,0.418,4.09,0.535v2.682c0.063,2.08-3.375,3.939-3.896,6.014c-0.415,1.664,0.349,4.723-0.588,5.965
	c-1.56,2.084-4.713,4.201-7.112,6.561c0.033,1.5,2.292,2.793,4.135,3.801c-0.475,3.48-8.253,10.68-8.253,15.975
	c0,2.074,1.652,4.984,1.652,7.059c0,2.082-0.898,5.631-2.798,8.293c-1.954-0.859-4.652-2.76-5.101-4.965
	c-1.264,3.885-2.1,8.047-4.26,12.582c1.622-0.92,3.438-1.789,5.196-1.773c0,0,0.736,0.816,1.921,0.941v2.682
	c0.062,2.078-4.708,8.662-8.445,10.939c-2.906,1.77-9.77,2.039-11.848,2.039c-1.764,0-9.167-4.125-10.188-5.676
	c-14.378-2.223-1.957-5.957-13.482-5.957c-2.073,0-2.909,2.496-4.983,2.496c-2.178,0-14.059-2.793-16.354-6.674
	c-7.312,2.092-0.055,12.484-6.903,12.484c-2.079,0-2.079-0.828-3.263-0.951v-5.381c-0.064-2.078,1.644-2.57,2.449-3.916
	c-1.449-0.592-4.174-1.225-6.458-2.582c-1.77-1.035-2.691-3.289-2.915-4.766c-2.01-0.705-6.537-1.504-8.611-1.547h-2.634
	c-0.953-1.85-2.431-4.154-4.004-4.955c-0.734,0.014-2.1,1.555-3.066,2.469h-2.833c-0.94-0.914-1.063-0.793-1.063-2.875
	c0-2.07,2.491-2.494,2.491-4.564c0-2.082-2.444-4.387-2.945-5.814c-1.5,2.328,0.247,6.738-5.884,8.287
	c-1.017-0.936-1.139-1.225-1.139-3.303c0-2.08,4.157-9.559,4.157-11.637c0-5.191-11.629-13.186-11.629-25.33
	c0-3.215,1.449-7.893,5.813-7.893c2.074,0,4.862,2.611,6.587,4.408v2.896c-1.833,0.963-4.514,0.172-6.014,0.137
	c-0.695,0.748-0.573,0.451-0.573,2.525c0,20.455,44.226,32.916,46.092,32.916c3.321-0.104,6.656,1.139,10.271,1.264
	c0.121,1.957-2.493,3.078-4.036,4.406c2.31,1.357,6.646,2.949,8.726,2.949c20.559,0,34.086-17.285,43.326-40.441
	c2.288-5.604,3.01-12.773,5.505-19.104C372.864,385.344,379.67,372.782,386.746,363.696"/>
<path id="path303" fill="#231F20" d="M552.718,370.375c2.008,0.836,3.856,1.851,4.669,3.604v17.147
	c2.157-0.022,4.762-0.832,7.396,0.076c0.927,1.793,0.141,4.467,0.109,20.088c0.745,0.701,2.108-0.248,4.762-0.221l1.91,2.01
	c-1.703,3.539-6.168,6.238-8.133,10.184c-3.009,6.129-6.813,18.51-6.813,20.586c0,2.074,0.808,5.688,1.654,8.4
	c-0.948,1.029-0.415,1.154-2.488,1.154c-4.664,0-5.692-4.275-8.809-7.492c-2.271,0.822-5.542,4.125-9.318,5.729
	c0.706-2.941,1.519-6.549,1.519-8.623c0-2.076-2.489-10.73-3.273-15.596c-0.76-0.723-2.127-0.605-3.15-0.645
	c-2.639-3.656,2.153-9.551-1.443-14.08c-1.337,2.313-3.217,4.965-6.168,5.736v-7.916c-0.089-2.076,6.686-6.004,10.236-9.445
	c4.625,2.547,2.652,5.453,2.334,7.971c-0.207,0.852-0.193,1.164-0.193,3.242c0,5.813-0.193,2.039,5.414,5.762
	c1.2,3.23,1.184,6.506,2.546,9.605l4.496-4.531c-2.313-1.355-5.814-4.605-5.814-6.688c0-2.074,2.611-4.441,5.052-6.795v-11.92
	c-2.162,0.029-4.642,0.029-7.347-0.031c0,0-1.021,0.061-1.021-2.018c0-3.112,5.966-7.27,7.215-9.348
	C550.759,381.752,550.831,375.605,552.718,370.375"/>
<path id="path305" fill="#231F20" d="M526.932,420.223c2.922,0.803,4.452,8.197,4.723,10.146c0.754,0.727,2.122-0.227,3.247-0.105
	c0.114,1.957,0.948,2.783,0.948,4.861c0,2.08-2.502,14.641-4.442,21.582c-5.394-4.773-8.019-14.102-8.019-18.254
	C523.389,436.374,525.066,426.293,526.932,420.223"/>
<path id="path307" fill="#231F20" d="M519.021,431.856c1.041,4.436,3.543,12.406,3.543,14.48c0,2.291-0.331,1.545-2.316,3.498
	c-0.177,4.002,0.64,9.063-0.565,13.889c-0.647,0.42-2.319,0.42-3.64,1.139c-0.962,4.822-1.813,10.713-4.625,16.777
	c-4.214-4.279-3.812-5.6-3.812-9.127c0-2.078,5.818-24.092,5.818-26.176c0-2.074-1.668-3.318-1.668-5.395
	C511.757,438.758,514.622,433.499,519.021,431.856"/>
<path id="path309" fill="#231F20" d="M155.653,259.2c6.542,3.009,14.111,7.261,21.268,10.469
	c-6.345-7.898-19.475-14.789-30.567-16.284C147.565,256.308,153.886,258.368,155.653,259.2"/>
<path id="path311" fill="#231F20" d="M177.797,310.762c-10.595,1.017-23.3,5.319-34.621,11.13c-3.009,1.558-9.361,5.249-9.167,9.344
	c14.422-6.941,27.223-14.076,41.859-18.019C176.694,313.008,176.891,312.068,177.797,310.762"/>
<path id="path313" fill="#FAA61A" d="M364.659,466.038c-0.872,1.359-2.644,3.104-4.392,3.896h-2.905
	c-0.1-1.164,0.729-1.996,0.854-3.125C360.169,466.692,362.473,466.737,364.659,466.038"/>
<path id="path315" fill="#231F20" d="M686.271,12.608h2.607c1.658,0,2.89-0.245,2.89-2.047c0-1.586-1.686-1.833-3.026-1.833h-2.471
	V12.608 M683.341,6.436h5.582c3.702,0,5.771,1.163,5.771,4.375c0,2.716-1.683,3.772-3.87,3.954l3.954,6.458h-3.071l-3.601-6.319
	h-1.837v6.319h-2.93L683.341,6.436L683.341,6.436z M688.605,24.375c5.521,0,10.064-4.424,10.064-10.533
	c0-6.067-4.545-10.459-10.064-10.459c-5.608,0-10.073,4.393-10.073,10.459C678.532,19.951,682.997,24.375,688.605,24.375z
	 M688.605,0.684c7.147,0,13.547,5.151,13.547,13.158c0,8.048-6.398,13.235-13.547,13.235c-7.161,0-13.556-5.187-13.556-13.235
	C675.05,5.835,681.444,0.684,688.605,0.684z"/>
</svg>
